{"glyphs":{"0":{"ha":806,"x_min":51,"x_max":755,"o":"m 755 492 q 727 268 755 363 q 651 112 699 174 q 539 20 603 50 q 402 -10 475 -10 q 265 20 329 -10 q 153 112 201 50 q 78 268 106 174 q 51 492 51 363 q 78 715 51 621 q 153 872 106 810 q 265 964 201 933 q 402 994 329 994 q 539 964 475 994 q 651 872 603 933 q 727 715 699 810 q 755 492 755 621 m 685 492 q 663 696 685 611 q 601 834 640 781 q 511 913 563 888 q 402 938 459 938 q 294 913 345 938 q 203 834 242 888 q 142 696 165 781 q 119 492 119 611 q 142 287 119 372 q 203 149 165 203 q 294 70 242 95 q 402 46 345 46 q 511 70 459 46 q 601 149 563 95 q 663 287 640 203 q 685 492 685 372 z "},"1":{"ha":806,"x_min":142,"x_max":692,"o":"m 692 51 l 692 0 l 185 0 l 185 51 l 411 51 l 411 849 q 413 899 411 872 l 197 706 q 177 700 187 698 q 162 708 167 702 l 142 736 l 426 987 l 478 987 l 478 51 l 692 51 z "},"2":{"ha":806,"x_min":80,"x_max":714,"o":"m 690 63 q 708 56 701 63 q 714 39 714 49 l 714 0 l 80 0 l 80 24 q 84 39 80 31 q 94 53 88 47 l 429 392 q 506 474 471 435 q 568 554 542 514 q 608 637 594 594 q 623 727 623 679 q 605 821 623 781 q 557 887 587 861 q 488 925 527 913 q 406 938 448 938 q 320 923 359 938 q 250 884 281 909 q 200 823 220 858 q 173 747 181 788 q 160 726 168 731 q 138 723 152 722 l 104 728 q 139 841 113 792 q 204 924 165 890 q 296 976 244 958 q 408 994 348 994 q 516 977 465 994 q 606 928 567 961 q 668 845 645 895 q 691 729 691 796 q 674 626 691 674 q 628 535 657 578 q 560 450 599 491 q 479 365 522 408 l 172 51 q 218 60 194 57 q 266 63 242 63 l 690 63 z "},"3":{"ha":806,"x_min":76,"x_max":713,"o":"m 108 728 q 143 841 117 792 q 208 924 169 890 q 300 976 248 958 q 413 994 352 994 q 519 978 469 994 q 607 931 569 963 q 666 853 644 900 q 688 746 688 807 q 674 659 688 698 q 633 592 659 621 q 572 543 607 563 q 494 513 536 523 q 658 429 603 492 q 713 270 713 365 q 689 158 713 210 q 622 69 665 106 q 522 10 580 31 q 397 -11 465 -11 q 257 11 313 -11 q 165 70 201 34 q 109 151 129 106 q 76 240 89 196 l 103 251 q 126 254 114 256 q 144 238 138 252 q 153 212 147 230 q 170 173 159 194 q 199 129 181 151 q 243 88 217 106 q 308 57 270 69 q 397 45 345 45 q 506 66 459 45 q 584 119 553 87 q 632 191 616 151 q 647 269 647 231 q 633 353 647 314 q 585 420 619 392 q 498 464 552 448 q 363 481 443 481 l 363 528 q 476 545 427 530 q 557 588 524 561 q 606 653 590 615 q 623 735 623 690 q 606 826 623 788 q 559 889 588 864 q 491 926 530 914 q 410 938 452 938 q 324 923 363 938 q 254 884 284 909 q 203 823 224 858 q 176 747 183 788 q 164 726 172 731 q 142 723 156 722 l 108 728 z "},"4":{"ha":806,"x_min":28,"x_max":761,"o":"m 523 335 l 523 849 q 524 875 523 861 q 526 903 525 889 l 101 335 l 523 335 m 761 335 l 761 299 q 757 286 761 291 q 742 282 752 282 l 581 282 l 581 0 l 523 0 l 523 282 l 58 282 q 42 286 48 282 q 35 299 37 291 l 28 331 l 522 984 l 581 984 l 581 335 l 761 335 z "},"5":{"ha":806,"x_min":99,"x_max":694,"o":"m 215 594 q 303 611 262 606 q 382 616 344 616 q 517 594 459 616 q 615 533 576 572 q 674 440 654 494 q 694 322 694 385 q 667 182 694 244 q 594 78 640 121 q 485 12 547 35 q 354 -11 424 -11 q 277 -4 314 -11 q 207 16 240 3 q 148 44 175 28 q 99 76 120 60 l 119 103 q 139 114 126 114 q 165 103 148 114 q 209 81 182 93 q 272 58 235 68 q 358 47 309 47 q 464 66 415 47 q 549 119 513 84 q 606 205 585 153 q 626 320 626 256 q 611 417 626 373 q 564 493 595 462 q 484 543 532 525 q 370 560 435 560 q 286 554 331 560 q 192 534 242 548 l 149 547 l 226 983 l 668 983 l 668 954 q 659 931 668 940 q 629 922 649 922 l 274 922 l 215 594 z "},"6":{"ha":806,"x_min":94,"x_max":727,"o":"m 402 44 q 510 63 462 44 q 591 114 558 81 q 643 193 625 147 q 661 292 661 238 q 643 393 661 348 q 593 470 626 439 q 517 519 561 502 q 418 536 472 536 q 309 515 357 536 q 227 460 260 494 q 176 383 194 426 q 159 297 159 340 q 176 195 159 242 q 224 115 193 149 q 301 63 256 81 q 402 44 346 44 m 288 600 q 249 547 267 572 q 216 497 231 522 q 313 564 257 540 q 436 588 369 588 q 553 567 499 588 q 645 508 606 546 q 705 416 683 470 q 727 296 727 363 q 703 173 727 229 q 636 76 679 117 q 534 12 594 35 q 403 -11 474 -11 q 277 11 334 -11 q 180 75 220 33 q 117 177 139 117 q 94 313 94 237 q 124 443 94 370 q 219 606 153 515 l 488 967 q 523 983 499 983 l 581 983 l 288 600 z "},"7":{"ha":806,"x_min":87,"x_max":741,"o":"m 741 983 l 741 953 q 738 932 741 941 q 732 917 735 924 l 282 25 q 267 7 276 14 q 242 0 258 0 l 197 0 l 651 889 q 672 922 660 907 l 106 922 q 92 927 98 922 q 87 940 87 933 l 87 983 l 741 983 z "},"8":{"ha":806,"x_min":83,"x_max":722,"o":"m 403 42 q 505 57 459 42 q 585 102 551 73 q 636 171 618 131 q 654 260 654 211 q 631 368 654 325 q 570 437 607 411 q 489 473 533 463 q 403 484 444 484 q 317 473 361 484 q 235 437 272 463 q 175 368 199 411 q 151 260 151 325 q 169 171 151 211 q 220 102 188 131 q 300 57 253 73 q 403 42 347 42 m 183 742 q 196 666 183 703 q 236 600 209 629 q 305 555 263 572 q 403 538 346 538 q 500 555 459 538 q 569 600 542 572 q 609 666 596 629 q 622 742 622 703 q 607 821 622 785 q 564 885 592 858 q 495 927 536 912 q 403 942 455 942 q 310 927 351 942 q 241 885 269 912 q 198 821 213 858 q 183 742 183 785 m 508 513 q 594 482 555 503 q 662 430 633 461 q 706 356 690 399 q 722 260 722 314 q 699 147 722 197 q 633 62 675 97 q 532 8 591 26 q 403 -11 474 -11 q 273 8 332 -11 q 173 62 215 26 q 107 147 131 97 q 83 260 83 197 q 99 356 83 314 q 143 430 115 399 q 211 482 172 461 q 297 513 250 503 q 221 547 254 526 q 165 599 188 569 q 131 665 142 628 q 119 743 119 701 q 139 841 119 795 q 195 921 158 887 q 284 974 232 955 q 403 994 337 994 q 520 974 468 994 q 610 921 573 955 q 667 841 647 887 q 687 743 687 795 q 675 665 687 701 q 640 599 663 628 q 584 548 617 569 q 508 513 551 526 z "},"9":{"ha":806,"x_min":91,"x_max":701,"o":"m 388 469 q 494 490 447 469 q 572 542 540 510 q 620 616 603 575 q 637 698 637 656 q 619 796 637 751 q 571 872 602 840 q 497 921 540 903 q 403 939 454 939 q 303 922 349 939 q 226 873 258 904 q 176 798 194 842 q 158 703 158 755 q 174 605 158 649 q 220 532 190 562 q 293 485 251 501 q 388 469 336 469 m 519 406 q 558 461 540 435 q 591 513 576 488 q 493 443 551 467 q 370 418 435 418 q 259 438 310 418 q 170 494 208 458 q 112 583 133 531 q 91 699 91 635 q 115 816 91 762 q 180 909 138 869 q 279 971 222 949 q 404 994 336 994 q 524 972 469 994 q 618 909 578 949 q 679 811 657 868 q 701 685 701 755 q 693 613 701 647 q 669 543 685 578 q 631 472 653 508 q 581 394 609 435 l 323 16 q 289 0 313 0 l 228 0 l 519 406 z "},"\u0000":{"ha":0,"x_min":0,"x_max":0,"o":""}," ":{"ha":377,"x_min":0,"x_max":0,"o":""},"A":{"ha":910,"x_min":18,"x_max":892,"o":"m 675 357 l 475 853 q 455 912 465 878 q 446 880 451 895 q 435 853 441 865 l 235 357 l 675 357 m 892 0 l 838 0 q 822 5 828 0 q 812 19 815 10 l 697 304 l 214 304 l 99 19 q 89 6 96 11 q 72 0 82 0 l 18 0 l 420 983 l 490 983 l 892 0 z "},"Ą":{"ha":910,"x_min":17,"x_max":965,"o":"m 674 357 l 474 853 q 454 912 464 878 q 445 880 450 895 q 435 853 440 865 l 235 357 l 674 357 m 965 -198 q 916 -225 946 -215 q 855 -235 887 -235 q 769 -209 801 -235 q 737 -137 737 -183 q 745 -96 737 -115 q 766 -59 753 -76 q 797 -27 779 -42 q 832 0 814 -12 q 811 19 817 3 l 696 304 l 213 304 l 98 19 q 88 6 95 11 q 72 0 81 0 l 17 0 l 419 983 l 490 983 l 892 0 l 881 0 q 850 -19 867 -8 q 820 -47 834 -31 q 797 -82 806 -62 q 788 -122 788 -101 q 810 -174 788 -156 q 867 -192 833 -192 q 900 -189 887 -192 q 922 -181 913 -185 q 936 -173 931 -176 q 945 -169 942 -169 q 954 -174 951 -169 l 965 -198 z "},"Æ":{"ha":1288,"x_min":7,"x_max":1217,"o":"m 656 357 l 583 928 q 570 894 577 910 q 556 863 563 878 l 278 357 l 656 357 m 1217 59 l 1217 0 l 701 0 l 663 304 l 249 304 l 91 17 q 62 0 82 0 l 7 0 l 550 983 l 1217 983 l 1217 924 l 651 924 l 701 526 l 1130 526 l 1130 469 l 708 469 l 760 59 l 1217 59 z "},"B":{"ha":878,"x_min":145,"x_max":795,"o":"m 463 57 q 659 113 592 57 q 725 270 725 169 q 707 354 725 317 q 656 417 690 391 q 574 457 623 443 q 464 471 526 471 l 217 471 l 217 57 l 463 57 m 217 926 l 217 523 l 429 523 q 545 540 497 523 q 625 586 594 558 q 670 651 656 615 q 685 725 685 687 q 622 875 685 824 q 428 926 559 926 l 217 926 m 428 983 q 574 966 512 983 q 676 917 635 949 q 735 838 716 885 q 755 733 755 792 q 741 658 755 694 q 702 591 728 622 q 640 538 677 560 q 555 503 603 515 q 733 427 671 487 q 795 269 795 367 q 773 156 795 206 q 708 72 751 106 q 604 18 666 37 q 464 0 542 0 l 145 0 l 145 983 l 428 983 z "},"C":{"ha":939,"x_min":81,"x_max":894,"o":"m 854 165 q 866 160 861 165 l 894 131 q 827 72 863 98 q 749 27 792 46 q 655 -1 706 9 q 543 -11 604 -11 q 356 25 441 -11 q 210 126 271 60 q 115 285 149 192 q 81 492 81 378 q 116 696 81 603 q 213 855 151 788 q 363 957 276 921 q 556 994 451 994 q 735 963 657 994 q 876 874 813 931 l 855 843 q 838 835 849 835 q 810 850 829 835 q 758 884 792 865 q 675 917 725 902 q 556 933 626 933 q 393 902 467 933 q 266 815 319 872 q 183 676 213 758 q 153 492 153 594 q 184 306 153 388 q 267 167 214 224 q 391 80 319 110 q 547 50 463 50 q 641 57 599 50 q 717 78 682 64 q 781 112 751 92 q 840 159 811 132 q 847 164 844 162 q 854 165 851 165 z "},"Ç":{"ha":939,"x_min":81,"x_max":894,"o":"m 894 131 q 831 74 865 99 q 756 31 797 49 q 668 2 715 13 q 563 -11 620 -9 l 547 -65 q 642 -97 610 -76 q 674 -159 674 -118 q 665 -197 674 -180 q 639 -225 656 -213 q 598 -242 622 -236 q 547 -248 574 -248 q 491 -240 518 -248 q 446 -219 464 -232 l 453 -199 q 464 -192 457 -192 q 473 -195 467 -192 q 489 -203 479 -199 q 512 -211 498 -208 q 546 -215 526 -215 q 601 -200 582 -215 q 621 -159 621 -185 q 612 -130 621 -142 q 586 -111 603 -118 q 548 -99 570 -103 q 498 -91 525 -94 l 524 -11 q 344 30 425 -8 q 204 132 263 67 q 114 289 146 198 q 81 492 81 380 q 116 696 81 603 q 213 855 151 788 q 363 957 276 921 q 556 994 451 994 q 735 963 657 994 q 876 874 813 931 l 855 843 q 838 835 849 835 q 810 850 829 835 q 758 884 792 865 q 675 917 725 902 q 556 933 626 933 q 393 902 467 933 q 266 815 319 872 q 183 676 213 758 q 153 492 153 594 q 184 306 153 388 q 267 167 214 224 q 391 80 319 110 q 547 50 463 50 q 641 57 599 50 q 717 78 682 64 q 781 112 751 92 q 840 159 811 132 q 847 164 844 162 q 854 165 851 165 q 866 160 861 165 l 894 131 z "},"D":{"ha":1056,"x_min":145,"x_max":973,"o":"m 973 492 q 939 287 973 378 q 843 132 905 196 q 695 34 781 68 q 504 0 608 0 l 145 0 l 145 983 l 504 983 q 695 949 608 983 q 843 851 781 915 q 939 696 905 787 q 973 492 973 605 m 899 492 q 871 675 899 594 q 790 811 842 756 q 665 896 738 867 q 504 925 592 925 l 217 925 l 217 58 l 504 58 q 665 87 592 58 q 790 172 738 116 q 871 308 842 227 q 899 492 899 388 z "},"Ð":{"ha":1065,"x_min":5,"x_max":982,"o":"m 513 58 q 675 87 602 58 q 800 172 748 116 q 880 308 851 227 q 908 492 908 388 q 880 675 908 594 q 800 811 851 756 q 675 896 748 867 q 513 925 602 925 l 226 925 l 226 520 l 448 520 l 448 476 l 226 476 l 226 58 l 513 58 m 513 983 q 704 949 618 983 q 852 851 790 915 q 948 696 914 787 q 982 492 982 605 q 948 287 982 378 q 852 132 914 196 q 704 34 790 68 q 513 0 618 0 l 155 0 l 155 476 l 5 476 l 5 520 l 155 520 l 155 983 l 513 983 z "},"E":{"ha":806,"x_min":145,"x_max":735,"o":"m 735 59 l 734 0 l 145 0 l 145 983 l 734 983 l 734 924 l 217 924 l 217 526 l 647 526 l 647 469 l 217 469 l 217 59 l 735 59 z "},"Ę":{"ha":806,"x_min":145,"x_max":756,"o":"m 756 -198 q 707 -225 737 -215 q 646 -235 678 -235 q 560 -209 592 -235 q 528 -137 528 -183 q 536 -96 528 -115 q 557 -59 544 -76 q 588 -27 570 -42 q 623 0 605 -12 l 145 0 l 145 983 l 734 983 l 734 924 l 217 924 l 217 526 l 647 526 l 647 469 l 217 469 l 217 59 l 735 59 l 734 0 l 672 0 q 641 -19 658 -8 q 611 -47 625 -31 q 588 -82 597 -62 q 579 -122 579 -101 q 601 -174 579 -156 q 658 -192 624 -192 q 691 -189 678 -192 q 713 -181 704 -185 q 727 -173 722 -176 q 736 -169 733 -169 q 745 -174 742 -169 l 756 -198 z "},"F":{"ha":784,"x_min":145,"x_max":734,"o":"m 217 924 l 217 510 l 665 510 l 665 451 l 217 451 l 217 0 l 145 0 l 145 983 l 734 983 l 734 924 l 217 924 z "},"G":{"ha":1021,"x_min":81,"x_max":930,"o":"m 930 446 l 930 97 q 773 17 856 44 q 585 -11 690 -11 q 376 25 469 -11 q 217 126 283 60 q 116 285 151 192 q 81 492 81 378 q 116 698 81 606 q 214 857 150 791 q 369 958 278 922 q 574 994 460 994 q 678 986 631 994 q 767 964 726 978 q 843 927 808 949 q 911 876 878 905 l 892 846 q 863 838 882 829 q 833 858 852 842 q 779 890 813 873 q 695 919 745 906 q 572 933 644 933 q 399 902 476 933 q 267 815 322 872 q 183 676 213 758 q 153 492 153 594 q 183 306 153 388 q 268 165 213 223 q 404 77 324 108 q 584 47 484 47 q 665 52 628 47 q 736 68 702 58 q 801 93 769 78 q 865 126 833 108 l 865 391 l 677 391 q 664 396 669 391 q 659 407 659 401 l 659 446 l 930 446 z "},"H":{"ha":1049,"x_min":145,"x_max":903,"o":"m 903 983 l 903 0 l 832 0 l 832 471 l 217 471 l 217 0 l 145 0 l 145 983 l 217 983 l 217 524 l 832 524 l 832 983 l 903 983 z "},"Ħ":{"ha":1055,"x_min":25,"x_max":1030,"o":"m 835 722 l 219 722 l 219 524 l 835 524 l 835 722 m 1030 722 l 906 722 l 906 0 l 835 0 l 835 471 l 219 471 l 219 0 l 148 0 l 148 722 l 25 722 l 25 766 l 148 766 l 148 983 l 219 983 l 219 766 l 835 766 l 835 983 l 906 983 l 906 766 l 1030 766 l 1030 722 z "},"I":{"ha":362,"x_min":145,"x_max":217,"o":"m 217 0 l 145 0 l 145 983 l 217 983 l 217 0 z "},"Į":{"ha":363,"x_min":65,"x_max":294,"o":"m 294 -198 q 245 -225 274 -215 q 183 -235 215 -235 q 98 -209 130 -235 q 65 -137 65 -183 q 73 -96 65 -115 q 94 -59 81 -76 q 125 -27 108 -42 q 160 0 142 -12 l 146 0 l 146 983 l 217 983 l 217 0 l 209 0 q 179 -19 195 -8 q 149 -47 163 -31 q 126 -82 135 -62 q 117 -122 117 -101 q 139 -174 117 -156 q 196 -192 161 -192 q 228 -189 215 -192 q 250 -181 242 -185 q 265 -173 259 -176 q 274 -169 270 -169 q 283 -174 279 -169 l 294 -198 z "},"J":{"ha":576,"x_min":18,"x_max":440,"o":"m 440 328 q 420 182 440 245 q 362 76 400 119 q 269 11 324 33 q 147 -11 215 -11 q 84 -6 116 -11 q 18 9 52 -1 q 20 28 19 19 q 22 48 21 38 q 27 59 24 54 q 41 64 31 64 q 56 61 47 64 q 76 56 65 59 q 104 51 88 53 q 141 49 120 49 q 236 65 194 49 q 308 116 278 82 q 354 203 338 151 q 369 326 369 256 l 369 983 l 440 983 l 440 328 z "},"K":{"ha":882,"x_min":145,"x_max":869,"o":"m 217 529 l 275 529 q 298 530 288 529 q 316 534 308 531 q 330 542 324 537 q 344 555 337 547 l 741 963 q 761 978 751 974 q 785 983 772 983 l 842 983 l 413 542 q 390 520 400 528 q 367 508 380 513 q 394 495 382 503 q 417 472 406 486 l 869 0 l 812 0 q 786 5 794 0 q 770 19 778 9 l 355 444 q 341 457 347 451 q 326 466 334 463 q 307 472 318 470 q 280 474 297 474 l 217 474 l 217 0 l 145 0 l 145 983 l 217 983 l 217 529 z "},"L":{"ha":703,"x_min":145,"x_max":682,"o":"m 682 60 l 682 0 l 145 0 l 145 983 l 217 983 l 217 60 l 682 60 z "},"Ł":{"ha":720,"x_min":27,"x_max":699,"o":"m 699 60 l 699 0 l 162 0 l 162 406 l 27 337 l 27 383 q 30 395 27 391 q 40 403 32 400 l 162 469 l 162 983 l 233 983 l 233 501 l 523 652 l 523 606 q 520 593 523 599 q 510 585 517 588 l 233 439 l 233 60 l 699 60 z "},"Ľ":{"ha":703,"x_min":145,"x_max":682,"o":"m 682 60 l 682 0 l 145 0 l 145 983 l 217 983 l 217 60 l 682 60 m 452 1012 q 466 1007 463 1012 q 469 993 469 1001 q 466 973 469 985 q 459 941 464 961 q 444 891 453 920 q 423 819 435 861 q 414 806 419 810 q 397 802 408 802 l 375 802 l 410 1012 l 452 1012 z "},"M":{"ha":1261,"x_min":145,"x_max":1116,"o":"m 1116 983 l 1116 0 l 1054 0 l 1054 838 q 1056 876 1054 856 l 669 189 q 642 171 660 171 l 631 171 q 603 189 613 171 l 206 877 q 208 838 208 856 l 208 0 l 145 0 l 145 983 l 194 983 q 210 981 204 983 q 221 969 215 978 l 617 286 q 635 244 628 267 q 644 266 640 256 q 655 287 649 277 l 1040 969 q 1052 981 1046 978 q 1067 983 1058 983 l 1116 983 z "},"N":{"ha":1049,"x_min":145,"x_max":903,"o":"m 903 983 l 903 0 l 870 0 q 855 3 861 0 q 844 14 849 6 l 206 867 q 208 827 208 846 l 208 0 l 145 0 l 145 983 l 181 983 q 195 980 190 983 q 207 969 201 978 l 844 119 q 842 158 842 140 l 842 983 l 903 983 z "},"Ŋ":{"ha":1049,"x_min":145,"x_max":903,"o":"m 903 983 l 903 -24 q 892 -118 903 -76 q 856 -189 880 -160 q 795 -234 832 -218 q 710 -249 759 -249 q 657 -244 681 -249 q 607 -228 633 -239 l 614 -201 q 620 -189 616 -191 q 631 -186 625 -186 q 655 -192 637 -186 q 704 -199 673 -199 q 806 -157 770 -199 q 841 -31 841 -115 l 841 17 l 206 867 q 208 827 208 846 l 208 0 l 145 0 l 145 983 l 181 983 q 195 980 190 983 q 207 969 201 978 l 844 119 q 842 158 842 140 l 842 983 l 903 983 z "},"O":{"ha":1099,"x_min":81,"x_max":1018,"o":"m 1018 492 q 984 285 1018 378 q 888 127 950 192 q 740 25 826 61 q 549 -10 653 -10 q 359 25 445 -10 q 211 127 273 61 q 115 285 149 192 q 81 492 81 378 q 115 698 81 605 q 211 856 149 790 q 359 958 273 922 q 549 994 445 994 q 740 958 653 994 q 888 856 826 922 q 984 698 950 790 q 1018 492 1018 605 m 944 492 q 916 676 944 594 q 835 815 888 758 q 710 902 783 872 q 549 933 638 933 q 389 902 462 933 q 264 815 316 872 q 182 676 211 758 q 153 492 153 594 q 182 307 153 388 q 264 168 211 225 q 389 81 316 111 q 549 51 462 51 q 710 81 638 51 q 835 168 783 111 q 916 307 888 225 q 944 492 944 388 z "},"Ø":{"ha":1099,"x_min":81,"x_max":1018,"o":"m 313 124 q 421 70 362 88 q 549 51 480 51 q 710 81 638 51 q 835 168 783 111 q 916 307 888 225 q 944 492 944 388 q 915 680 944 597 q 831 820 885 763 l 313 124 m 797 851 q 685 912 747 891 q 549 933 623 933 q 389 902 462 933 q 264 815 316 872 q 182 676 211 758 q 153 492 153 594 q 186 295 153 381 q 278 153 219 210 l 797 851 m 871 874 q 980 711 941 808 q 1018 492 1018 614 q 984 285 1018 378 q 888 127 950 192 q 740 25 826 61 q 549 -10 653 -10 q 400 11 469 -10 q 275 72 331 32 l 184 -51 q 164 -68 175 -62 q 140 -73 152 -73 l 110 -73 l 239 100 q 123 266 164 167 q 81 492 81 365 q 115 698 81 605 q 211 856 149 790 q 359 958 273 922 q 549 994 445 994 q 706 970 633 994 q 835 903 778 947 l 913 1007 q 927 1023 920 1018 q 947 1028 933 1028 l 985 1028 l 871 874 z "},"Œ":{"ha":1529,"x_min":83,"x_max":1458,"o":"m 513 51 q 658 81 592 51 q 770 168 724 111 q 843 306 817 224 q 869 492 869 388 q 843 676 869 594 q 770 816 817 758 q 658 903 724 873 q 513 934 592 934 q 367 903 433 934 q 255 816 301 873 q 182 676 208 758 q 156 492 156 594 q 182 306 156 388 q 255 168 208 224 q 367 81 301 111 q 513 51 433 51 m 1458 59 l 1458 0 l 876 0 l 876 232 q 814 130 851 175 q 729 55 776 85 q 625 7 682 24 q 504 -9 569 -9 q 333 26 410 -9 q 200 127 256 62 q 114 285 144 193 q 83 492 83 378 q 114 698 83 605 q 200 856 144 790 q 333 958 256 922 q 504 994 410 994 q 625 977 569 994 q 729 930 682 961 q 814 853 776 899 q 876 751 851 808 l 876 983 l 1458 983 l 1458 924 l 940 924 l 940 526 l 1371 526 l 1371 469 l 940 469 l 940 59 l 1458 59 z "},"P":{"ha":803,"x_min":145,"x_max":748,"o":"m 399 453 q 515 471 464 453 q 602 521 567 489 q 657 596 638 553 q 676 691 676 640 q 607 865 676 804 q 399 926 538 926 l 217 926 l 217 453 l 399 453 m 399 983 q 660 907 572 983 q 748 691 748 831 q 724 572 748 626 q 654 479 699 518 q 544 418 609 440 q 399 396 480 396 l 217 396 l 217 0 l 145 0 l 145 983 l 399 983 z "},"Þ":{"ha":802,"x_min":145,"x_max":748,"o":"m 399 256 q 515 274 464 256 q 602 324 567 292 q 657 399 638 356 q 676 494 676 442 q 607 668 676 607 q 399 728 538 728 l 217 728 l 217 256 l 399 256 m 399 785 q 660 710 572 785 q 748 494 748 634 q 724 375 748 429 q 654 282 699 321 q 544 220 609 242 q 399 199 480 199 l 217 199 l 217 0 l 145 0 l 145 983 l 217 983 l 217 785 l 399 785 z "},"Q":{"ha":1099,"x_min":81,"x_max":1058,"o":"m 153 492 q 182 307 153 388 q 264 168 211 225 q 389 81 316 111 q 549 51 462 51 q 710 81 638 51 q 835 168 783 111 q 916 307 888 225 q 944 492 944 388 q 916 676 944 594 q 835 815 888 758 q 710 902 783 872 q 549 933 638 933 q 389 902 462 933 q 264 815 316 872 q 182 676 211 758 q 153 492 153 594 m 1058 -217 l 999 -217 q 954 -199 972 -217 l 744 27 q 652 -1 701 9 q 549 -10 603 -10 q 359 25 445 -10 q 211 127 273 61 q 115 285 149 192 q 81 492 81 378 q 115 698 81 605 q 211 856 149 790 q 359 958 273 922 q 549 994 445 994 q 740 958 653 994 q 888 856 826 922 q 984 698 950 790 q 1018 492 1018 605 q 1003 352 1018 417 q 960 231 988 286 q 893 132 933 176 q 803 57 853 88 l 1058 -217 z "},"R":{"ha":843,"x_min":145,"x_max":823,"o":"m 387 497 q 504 513 452 497 q 591 558 556 528 q 646 628 627 587 q 665 720 665 669 q 596 876 665 825 q 397 926 528 926 l 217 926 l 217 497 l 387 497 m 823 0 l 762 0 q 742 4 750 0 q 727 18 734 8 l 412 417 q 400 430 406 424 q 387 439 394 435 q 370 443 380 442 q 345 444 360 444 l 217 444 l 217 0 l 145 0 l 145 983 l 397 983 q 650 917 566 983 q 735 724 735 851 q 715 622 735 668 q 659 540 696 575 q 571 483 623 505 q 455 453 519 460 q 485 425 472 442 l 823 0 z "},"S":{"ha":743,"x_min":62,"x_max":667,"o":"m 622 863 q 604 851 616 851 q 581 864 595 851 q 542 893 567 877 q 482 922 518 908 q 392 935 445 935 q 298 919 338 935 q 230 878 257 904 q 188 817 202 851 q 174 744 174 782 q 195 661 174 694 q 251 606 216 628 q 330 567 285 583 q 420 536 374 551 q 511 502 467 521 q 590 456 555 484 q 645 388 624 428 q 667 287 667 347 q 645 170 667 225 q 584 76 624 116 q 485 12 544 35 q 352 -11 427 -11 q 185 23 255 -11 q 62 117 115 58 l 81 148 q 101 158 90 158 q 117 150 107 158 q 140 130 126 142 q 174 103 154 117 q 219 77 193 89 q 278 56 244 65 q 353 48 311 48 q 458 66 412 48 q 535 114 503 83 q 583 186 567 144 q 600 276 600 228 q 579 362 600 328 q 523 418 558 396 q 444 456 488 441 q 353 486 400 472 q 263 519 307 501 q 184 565 219 537 q 128 635 149 593 q 107 740 107 677 q 126 835 107 790 q 181 916 144 881 q 270 973 217 951 q 391 994 323 994 q 528 969 467 994 q 639 895 589 945 l 622 863 z "},"Ş":{"ha":743,"x_min":62,"x_max":667,"o":"m 622 863 q 604 851 616 851 q 581 864 595 851 q 542 893 567 877 q 482 922 518 908 q 392 935 445 935 q 298 919 338 935 q 230 878 257 904 q 188 817 202 851 q 174 744 174 782 q 195 661 174 694 q 251 606 216 628 q 330 567 285 583 q 420 536 374 551 q 511 502 467 521 q 590 456 555 484 q 645 388 624 428 q 667 287 667 347 q 649 179 667 230 q 597 89 631 128 q 513 24 563 50 q 399 -8 463 -1 l 382 -65 q 477 -97 445 -76 q 510 -159 510 -118 q 500 -197 510 -180 q 474 -225 491 -213 q 433 -242 457 -236 q 382 -248 410 -248 q 326 -240 353 -248 q 281 -219 299 -232 l 288 -199 q 299 -192 292 -192 q 309 -195 303 -192 q 324 -203 315 -199 q 347 -211 333 -208 q 381 -215 361 -215 q 437 -200 417 -215 q 456 -159 456 -185 q 447 -130 456 -142 q 422 -111 438 -118 q 383 -99 406 -103 q 333 -91 360 -94 l 359 -11 l 352 -11 q 185 23 255 -11 q 62 117 115 58 l 81 148 q 101 158 90 158 q 117 150 107 158 q 140 130 126 142 q 174 103 154 117 q 219 77 193 89 q 278 56 244 65 q 353 48 311 48 q 458 66 412 48 q 535 114 503 83 q 583 186 567 144 q 600 276 600 228 q 579 362 600 328 q 523 418 558 396 q 444 456 488 441 q 353 486 400 472 q 263 519 307 501 q 184 565 219 537 q 128 635 149 593 q 107 740 107 677 q 126 835 107 790 q 181 916 144 881 q 270 973 217 951 q 391 994 323 994 q 528 969 467 994 q 639 895 589 945 l 622 863 z "},"T":{"ha":804,"x_min":20,"x_max":784,"o":"m 784 922 l 439 922 l 439 0 l 367 0 l 367 922 l 20 922 l 20 983 l 784 983 l 784 922 z "},"Ŧ":{"ha":828,"x_min":32,"x_max":796,"o":"m 451 922 l 451 590 l 688 590 l 688 546 l 451 546 l 451 0 l 379 0 l 379 546 l 140 546 l 140 590 l 379 590 l 379 922 l 32 922 l 32 983 l 796 983 l 796 922 l 451 922 z "},"U":{"ha":1010,"x_min":133,"x_max":877,"o":"m 505 51 q 632 75 576 51 q 726 144 688 100 q 786 247 765 188 q 806 375 806 306 l 806 983 l 877 983 l 877 375 q 851 223 877 294 q 777 100 826 153 q 660 18 729 48 q 505 -12 591 -12 q 350 18 419 -12 q 232 100 281 48 q 158 223 184 153 q 133 375 133 294 l 133 983 l 204 983 l 204 376 q 225 248 204 307 q 284 144 245 188 q 378 76 322 101 q 505 51 434 51 z "},"Ų":{"ha":1010,"x_min":133,"x_max":877,"o":"m 877 983 l 877 375 q 855 233 877 299 q 790 115 832 166 q 687 31 748 63 q 550 -10 626 -2 q 521 -30 536 -18 q 494 -56 506 -41 q 474 -89 482 -71 q 466 -127 466 -107 q 488 -179 466 -160 q 545 -197 510 -197 q 578 -193 565 -197 q 600 -185 591 -190 q 614 -177 608 -181 q 623 -174 619 -174 q 632 -179 628 -174 l 643 -203 q 594 -230 624 -219 q 533 -240 565 -240 q 447 -214 479 -240 q 415 -142 415 -187 q 422 -104 415 -122 q 440 -69 428 -85 q 467 -38 452 -52 q 499 -12 483 -24 q 347 19 415 -11 q 231 102 278 50 q 158 224 183 154 q 133 375 133 294 l 133 983 l 204 983 l 204 376 q 225 248 204 307 q 284 144 245 188 q 378 76 322 101 q 505 51 434 51 q 632 75 576 51 q 726 144 688 100 q 786 247 765 188 q 806 375 806 306 l 806 983 l 877 983 z "},"V":{"ha":910,"x_min":18,"x_max":892,"o":"m 892 983 l 487 0 l 424 0 l 18 983 l 74 983 q 90 977 84 983 q 100 964 97 972 l 435 149 q 446 116 440 133 q 456 81 451 99 q 465 116 460 99 q 476 149 470 133 l 810 964 q 820 977 813 972 q 837 983 827 983 l 892 983 z "},"W":{"ha":1413,"x_min":33,"x_max":1379,"o":"m 1379 983 l 1070 0 l 1006 0 l 716 853 q 706 889 710 870 q 697 853 702 870 l 406 0 l 342 0 l 33 983 l 92 983 q 117 964 112 983 l 365 156 q 379 93 373 128 q 386 127 383 111 q 394 156 390 142 l 672 964 q 682 977 675 972 q 699 983 689 983 l 718 983 q 734 977 728 983 q 744 964 740 972 l 1022 156 q 1030 127 1026 143 q 1038 94 1034 111 q 1044 127 1041 111 q 1051 156 1047 142 l 1299 964 q 1308 977 1301 972 q 1325 983 1315 983 l 1379 983 z "},"X":{"ha":865,"x_min":28,"x_max":836,"o":"m 836 0 l 766 0 q 751 6 756 0 q 742 17 745 12 l 432 471 q 422 450 429 460 l 118 17 q 108 6 113 11 q 94 0 103 0 l 28 0 l 383 504 l 44 983 l 114 983 q 128 978 124 983 q 136 969 133 974 l 435 539 q 445 560 439 549 l 733 968 q 742 978 737 974 q 754 983 747 983 l 822 983 l 483 508 l 836 0 z "},"Y":{"ha":826,"x_min":14,"x_max":813,"o":"m 449 405 l 449 0 l 378 0 l 378 405 l 14 983 l 76 983 q 92 978 86 983 q 103 965 99 974 l 384 514 q 401 483 393 498 q 414 453 408 468 q 426 483 419 468 q 442 514 433 498 l 724 965 q 734 978 727 973 q 750 983 740 983 l 813 983 l 449 405 z "},"Z":{"ha":830,"x_min":48,"x_max":776,"o":"m 776 958 q 767 930 776 945 l 143 59 l 772 59 l 772 0 l 48 0 l 48 26 q 50 39 48 33 q 56 51 53 45 l 681 924 l 66 924 l 66 983 l 776 983 l 776 958 z "},"a":{"ha":672,"x_min":59,"x_max":565,"o":"m 501 334 q 331 318 402 331 q 214 285 260 306 q 145 236 167 265 q 123 170 123 207 q 134 110 123 135 q 165 68 146 85 q 209 44 184 52 q 261 37 234 37 q 335 45 301 37 q 398 70 369 54 q 451 107 426 85 q 501 153 476 128 l 501 334 m 94 593 q 208 675 149 647 q 344 703 268 703 q 441 685 399 703 q 510 634 483 667 q 551 555 538 601 q 565 450 565 508 l 565 0 l 539 0 q 513 19 518 0 l 503 108 q 447 58 475 81 q 388 21 419 36 q 322 -3 358 6 q 244 -11 287 -11 q 176 -1 209 -11 q 116 31 142 10 q 75 86 90 53 q 59 167 59 120 q 84 249 59 211 q 163 314 109 286 q 300 358 216 342 q 501 378 383 375 l 501 450 q 459 598 501 546 q 337 649 418 649 q 252 635 287 649 q 192 605 217 622 q 153 574 168 588 q 127 560 138 560 q 115 564 119 560 q 106 573 110 567 l 94 593 z "},"ą":{"ha":672,"x_min":59,"x_max":650,"o":"m 501 334 q 331 318 402 331 q 214 285 260 306 q 145 236 167 265 q 123 170 123 207 q 134 110 123 135 q 165 68 146 85 q 209 44 184 52 q 261 37 234 37 q 335 45 301 37 q 398 70 369 54 q 451 107 426 85 q 501 153 476 128 l 501 334 m 650 -198 q 601 -225 631 -215 q 540 -235 572 -235 q 454 -209 486 -235 q 422 -137 422 -183 q 430 -94 422 -115 q 453 -56 439 -74 q 486 -23 467 -38 q 523 4 504 -8 q 513 19 517 8 l 503 108 q 447 58 475 81 q 388 21 419 36 q 322 -3 358 6 q 244 -11 287 -11 q 176 -1 209 -11 q 116 31 142 10 q 75 86 90 53 q 59 167 59 120 q 84 249 59 211 q 163 314 109 286 q 300 358 216 342 q 501 378 383 375 l 501 450 q 459 598 501 546 q 337 649 418 649 q 252 635 287 649 q 192 605 217 622 q 153 574 168 588 q 127 560 138 560 q 115 564 119 560 q 106 573 110 567 l 94 593 q 208 675 149 647 q 344 703 268 703 q 441 685 399 703 q 510 634 483 667 q 551 555 538 601 q 565 450 565 508 l 565 0 q 535 -19 551 -8 q 505 -47 519 -31 q 482 -82 491 -62 q 473 -122 473 -101 q 495 -174 473 -156 q 552 -192 517 -192 q 585 -189 572 -192 q 607 -181 598 -185 q 621 -173 615 -176 q 630 -169 626 -169 q 639 -174 635 -169 l 650 -198 z "},"æ":{"ha":1110,"x_min":61,"x_max":1042,"o":"m 984 401 q 969 507 984 460 q 929 586 955 554 q 868 636 903 619 q 790 653 833 653 q 700 635 740 653 q 632 584 660 617 q 586 505 603 551 q 565 401 569 458 l 984 401 m 502 358 q 332 341 403 355 q 215 303 261 326 q 147 250 169 281 q 125 182 125 219 q 136 116 125 143 q 169 71 148 88 q 218 45 190 53 q 281 37 247 37 q 367 52 326 37 q 437 97 407 67 q 485 169 467 126 q 502 267 502 213 l 502 358 m 96 593 q 207 675 149 647 q 340 703 265 703 q 477 658 427 703 q 543 535 527 613 q 583 605 559 574 q 638 657 607 635 q 708 690 669 678 q 792 702 747 702 q 890 681 844 702 q 969 620 935 660 q 1023 522 1003 581 q 1042 385 1042 463 q 1039 365 1042 370 q 1025 359 1035 359 l 564 359 q 581 222 564 281 q 628 124 597 163 q 701 64 658 84 q 797 44 744 44 q 881 55 847 44 q 940 80 916 67 q 976 105 963 94 q 997 117 990 117 q 1012 110 1006 117 l 1028 89 q 987 50 1013 68 q 930 19 961 32 q 864 -1 899 6 q 792 -9 828 -9 q 636 39 702 -9 q 538 182 570 87 q 494 92 524 128 q 427 32 465 55 q 348 -1 390 9 q 267 -11 306 -11 q 186 0 224 -11 q 121 33 149 10 q 77 92 93 56 q 61 179 61 128 q 86 263 61 224 q 165 332 111 302 q 301 381 218 362 q 502 402 385 399 l 502 450 q 461 598 502 546 q 338 651 419 651 q 253 636 288 651 q 194 606 218 622 q 154 575 169 589 q 128 560 139 560 q 116 564 121 560 q 108 573 111 567 l 96 593 z "},"b":{"ha":765,"x_min":114,"x_max":692,"o":"m 181 151 q 269 67 221 91 q 378 43 317 43 q 486 65 440 43 q 563 129 532 88 q 609 229 594 170 q 624 362 624 288 q 567 577 624 505 q 408 649 510 649 q 279 614 334 649 q 181 515 224 578 l 181 151 m 181 571 q 286 667 226 632 q 426 702 347 702 q 538 679 489 702 q 622 613 588 656 q 674 507 656 570 q 692 365 692 444 q 672 211 692 281 q 614 93 652 142 q 519 18 575 44 q 392 -9 464 -9 q 267 19 319 -9 q 178 103 215 47 l 173 17 q 154 0 171 0 l 114 0 l 114 1010 l 181 1010 l 181 571 z "},"c":{"ha":655,"x_min":72,"x_max":606,"o":"m 578 599 q 572 593 575 595 q 563 590 569 590 q 544 600 556 590 q 513 620 533 609 q 462 641 492 631 q 389 650 432 650 q 283 629 329 650 q 205 568 237 608 q 157 472 173 528 q 140 346 140 416 q 157 217 140 273 q 206 122 174 160 q 281 63 237 83 q 380 43 326 43 q 464 55 430 43 q 519 81 497 67 q 553 106 541 94 q 574 118 566 118 q 588 111 583 118 l 606 89 q 565 50 590 68 q 510 19 541 32 q 444 -2 480 6 q 369 -9 408 -9 q 249 15 303 -9 q 155 84 194 39 q 94 196 116 130 q 72 346 72 262 q 93 490 72 425 q 154 603 114 556 q 252 676 194 650 q 385 702 310 702 q 505 681 453 702 q 596 622 557 659 l 578 599 z "},"ç":{"ha":655,"x_min":72,"x_max":606,"o":"m 606 89 q 521 24 576 50 q 397 -8 466 -3 l 378 -65 q 474 -97 442 -76 q 506 -159 506 -118 q 497 -197 506 -180 q 470 -225 488 -213 q 430 -242 453 -236 q 378 -248 406 -248 q 323 -240 350 -248 q 278 -219 296 -232 l 285 -199 q 296 -192 289 -192 q 305 -195 299 -192 q 320 -203 311 -199 q 344 -211 330 -208 q 378 -215 358 -215 q 433 -200 414 -215 q 453 -159 453 -185 q 444 -130 453 -142 q 418 -111 435 -118 q 380 -99 402 -103 q 330 -91 357 -94 l 356 -9 q 241 19 293 -6 q 151 89 189 44 q 93 199 114 135 q 72 346 72 264 q 93 490 72 425 q 154 603 114 556 q 252 676 194 650 q 385 702 310 702 q 505 681 453 702 q 596 622 557 659 l 578 599 q 572 593 575 595 q 563 590 569 590 q 544 600 556 590 q 513 620 533 609 q 462 641 492 631 q 389 650 432 650 q 283 629 329 650 q 205 568 237 608 q 157 472 173 528 q 140 346 140 416 q 157 217 140 273 q 206 122 174 160 q 281 63 237 83 q 380 43 326 43 q 464 55 430 43 q 519 81 497 67 q 553 106 541 94 q 574 118 566 118 q 588 111 583 118 l 606 89 z "},"d":{"ha":765,"x_min":74,"x_max":651,"o":"m 585 542 q 498 626 546 602 q 388 651 449 651 q 281 628 326 651 q 204 566 235 606 q 157 468 173 525 q 142 344 142 412 q 198 117 142 190 q 362 44 255 44 q 486 80 430 44 q 585 179 542 115 l 585 542 m 651 1010 l 651 0 l 615 0 q 594 18 597 0 l 588 127 q 481 28 542 65 q 343 -9 419 -9 q 144 79 215 -9 q 74 344 74 167 q 93 485 74 419 q 151 599 113 551 q 245 675 190 647 q 374 703 301 703 q 496 677 444 703 q 585 601 547 651 l 585 1010 l 651 1010 z "},"ď":{"ha":765,"x_min":74,"x_max":838,"o":"m 585 542 q 498 626 546 602 q 388 651 449 651 q 281 628 326 651 q 204 566 235 606 q 157 468 173 525 q 142 344 142 412 q 198 117 142 190 q 362 44 255 44 q 486 80 430 44 q 585 179 542 115 l 585 542 m 651 1010 l 651 0 l 615 0 q 594 18 597 0 l 588 127 q 481 28 542 65 q 343 -9 419 -9 q 144 79 215 -9 q 74 344 74 167 q 93 485 74 419 q 151 599 113 551 q 245 675 190 647 q 374 703 301 703 q 496 677 444 703 q 585 601 547 651 l 585 1010 l 651 1010 m 822 1012 q 835 1007 832 1012 q 838 993 838 1001 q 836 973 838 985 q 828 941 833 961 q 814 891 823 920 q 792 819 805 861 q 783 806 789 810 q 767 802 777 802 l 744 802 l 780 1012 l 822 1012 z "},"đ":{"ha":766,"x_min":74,"x_max":758,"o":"m 585 536 q 497 619 545 595 q 388 644 449 644 q 281 622 326 644 q 204 560 235 600 q 157 464 173 520 q 142 340 142 408 q 199 115 142 186 q 362 44 256 44 q 486 80 431 44 q 585 178 542 115 l 585 536 m 758 803 l 652 803 l 652 0 l 615 0 q 595 18 598 0 l 588 127 q 481 28 542 65 q 343 -9 419 -9 q 229 13 279 -9 q 145 77 179 34 q 92 186 110 121 q 74 340 74 252 q 93 481 74 416 q 152 594 113 546 q 246 669 190 642 q 375 696 302 696 q 497 670 445 696 q 585 594 548 644 l 585 803 l 413 803 l 413 848 l 585 848 l 585 1010 l 652 1010 l 652 848 l 758 848 l 758 803 z "},"ð":{"ha":778,"x_min":73,"x_max":694,"o":"m 378 44 q 485 68 439 44 q 564 137 532 92 q 614 247 597 182 q 633 392 631 311 q 602 462 622 427 q 551 525 582 497 q 479 570 520 553 q 385 588 438 588 q 278 567 324 588 q 201 509 232 546 q 155 423 170 472 q 139 316 139 373 q 158 201 139 251 q 210 115 177 150 q 286 62 243 81 q 378 44 330 44 m 495 859 q 575 784 539 827 q 639 687 612 742 q 680 565 665 632 q 694 416 694 497 q 675 242 694 320 q 615 108 655 164 q 516 22 576 52 q 376 -8 456 -8 q 258 14 313 -8 q 161 79 203 37 q 97 181 120 121 q 73 316 73 241 q 93 442 73 383 q 152 545 113 501 q 247 614 190 589 q 374 640 303 640 q 448 630 411 640 q 520 601 485 621 q 584 551 554 581 q 636 478 614 520 q 616 593 631 541 q 577 689 601 646 q 522 765 553 731 q 453 825 491 799 l 338 724 l 326 743 q 322 757 321 750 q 330 770 322 765 l 418 847 q 330 885 376 869 q 232 912 283 901 q 217 922 224 914 q 215 943 210 929 l 223 967 q 347 936 286 957 q 462 882 407 916 l 567 976 l 580 956 q 574 928 590 940 l 495 859 z "},"e":{"ha":724,"x_min":72,"x_max":658,"o":"m 599 415 q 583 515 599 471 q 539 590 567 559 q 471 636 510 620 q 385 653 432 653 q 289 636 331 653 q 216 588 247 619 q 166 513 185 557 q 141 415 147 469 l 599 415 m 138 373 l 138 360 q 156 223 138 282 q 207 124 174 164 q 288 64 240 84 q 393 44 335 44 q 483 55 445 44 q 548 81 522 67 q 589 107 574 95 q 611 118 604 118 q 625 111 620 118 l 643 89 q 599 50 626 68 q 538 19 572 32 q 466 -1 504 6 q 388 -9 427 -9 q 259 16 317 -9 q 159 88 201 40 q 95 203 117 135 q 72 360 72 272 q 93 497 72 434 q 155 605 115 560 q 252 676 194 651 q 384 702 310 702 q 492 682 442 702 q 579 623 542 662 q 637 528 616 585 q 658 399 658 472 q 654 378 658 384 q 640 373 650 373 l 138 373 z "},"ę":{"ha":724,"x_min":72,"x_max":658,"o":"m 599 415 q 583 515 599 471 q 539 590 567 559 q 471 636 510 620 q 385 653 432 653 q 289 636 331 653 q 216 588 247 619 q 166 513 185 557 q 141 415 147 469 l 599 415 m 138 373 l 138 360 q 156 223 138 282 q 207 124 174 164 q 288 64 240 84 q 393 44 335 44 q 483 55 445 44 q 548 81 522 67 q 589 107 574 95 q 611 118 604 118 q 625 111 620 118 l 643 89 q 610 58 630 73 q 566 32 590 44 q 515 11 542 20 q 457 -3 487 2 q 428 -23 443 -11 q 400 -50 413 -35 q 378 -83 387 -65 q 370 -122 370 -101 q 392 -174 370 -156 q 449 -192 415 -192 q 482 -189 469 -192 q 504 -181 495 -185 q 518 -173 513 -176 q 527 -169 524 -169 q 536 -174 533 -169 l 547 -198 q 498 -225 528 -215 q 437 -235 469 -235 q 351 -209 383 -235 q 319 -137 319 -183 q 325 -99 319 -117 q 343 -65 332 -81 q 369 -35 355 -49 q 401 -9 384 -21 l 388 -9 q 259 16 317 -9 q 159 88 201 40 q 95 203 117 135 q 72 360 72 272 q 93 497 72 434 q 155 605 115 560 q 252 676 194 651 q 384 702 310 702 q 492 682 442 702 q 579 623 542 662 q 637 528 616 585 q 658 399 658 472 q 654 378 658 384 q 640 373 650 373 l 138 373 z "},"f":{"ha":473,"x_min":38,"x_max":449,"o":"m 155 0 l 155 619 l 58 625 q 38 642 38 627 l 38 669 l 155 669 l 155 757 q 170 861 155 816 q 213 935 185 906 q 280 980 241 965 q 366 995 319 995 q 409 991 388 995 q 449 981 431 988 l 447 949 q 441 941 445 942 q 428 939 436 939 q 406 941 419 940 q 376 943 393 943 q 313 933 342 943 q 263 901 284 923 q 231 843 242 878 q 219 755 219 807 l 219 669 l 444 669 l 444 620 l 222 620 l 222 0 l 155 0 z "},"ﬀ":{"ha":895,"x_min":38,"x_max":871,"o":"m 155 0 l 155 619 l 58 625 q 38 642 38 627 l 38 669 l 155 669 l 155 748 q 170 852 155 807 q 213 926 185 897 q 280 971 241 956 q 366 986 319 986 q 409 983 388 986 q 449 972 431 979 l 447 940 q 441 932 445 933 q 428 931 436 931 q 406 933 419 931 q 376 935 393 935 q 313 925 342 935 q 263 892 284 915 q 231 834 242 870 q 219 746 219 798 l 219 669 l 578 669 l 578 760 q 593 864 578 819 q 636 939 608 909 q 703 984 664 969 q 789 999 742 999 q 832 995 810 999 q 871 984 854 991 l 869 952 q 864 944 868 946 q 850 943 859 942 q 829 945 842 943 q 798 947 816 947 q 735 936 764 947 q 686 904 707 926 q 654 846 665 882 q 642 758 642 810 l 642 669 l 866 669 l 866 620 l 644 620 l 644 0 l 578 0 l 578 620 l 222 620 l 222 0 l 155 0 z "},"ﬁ":{"ha":748,"x_min":40,"x_max":626,"o":"m 156 0 l 156 619 l 59 625 q 40 642 40 627 l 40 669 l 156 669 l 156 728 q 175 843 156 792 q 230 930 194 894 q 317 985 266 966 q 435 1004 369 1004 q 482 1000 457 1004 q 524 990 506 997 l 521 956 q 515 950 519 951 q 503 950 511 949 q 482 952 494 951 q 451 954 469 954 q 281 898 341 954 q 221 726 221 842 l 221 669 l 626 669 l 626 0 l 560 0 l 560 620 l 223 620 l 223 0 l 156 0 z "},"ﬃ":{"ha":1170,"x_min":40,"x_max":1049,"o":"m 156 0 l 156 619 l 59 625 q 40 642 40 627 l 40 669 l 156 669 l 156 748 q 172 852 156 807 q 215 926 187 897 q 282 971 242 956 q 368 986 321 986 q 411 983 390 986 q 450 972 433 979 l 448 940 q 442 932 447 933 q 430 931 438 931 q 408 933 421 931 q 377 935 395 935 q 314 925 343 935 q 265 892 285 915 q 232 834 244 870 q 221 746 221 798 l 221 669 l 579 669 l 579 728 q 598 843 579 792 q 652 930 617 894 q 740 985 688 966 q 857 1004 791 1004 q 905 1000 880 1004 q 946 990 929 997 l 943 956 q 938 950 942 951 q 926 950 934 949 q 904 952 917 951 q 873 954 891 954 q 703 898 763 954 q 644 726 644 842 l 644 669 l 1049 669 l 1049 0 l 982 0 l 982 620 l 645 620 l 645 0 l 579 0 l 579 620 l 223 620 l 223 0 l 156 0 z "},"ﬂ":{"ha":781,"x_min":40,"x_max":660,"o":"m 156 0 l 156 619 l 59 625 q 40 642 40 627 l 40 669 l 156 669 l 156 715 q 174 828 156 776 q 227 919 192 881 q 314 978 263 957 q 433 1000 365 1000 q 525 996 480 1000 q 611 990 571 992 l 660 990 l 660 0 l 594 0 l 594 944 q 516 948 558 945 q 441 951 475 951 q 348 934 389 951 q 279 887 307 918 q 236 813 251 856 q 221 715 221 769 l 221 669 l 422 669 l 422 620 l 223 620 l 223 0 l 156 0 z "},"ﬄ":{"ha":1202,"x_min":38,"x_max":1082,"o":"m 155 0 l 155 619 l 58 625 q 38 642 38 627 l 38 669 l 155 669 l 155 748 q 170 852 155 807 q 213 926 185 897 q 280 971 241 956 q 366 986 319 986 q 409 983 388 986 q 449 972 431 979 l 447 940 q 441 932 445 933 q 428 931 436 931 q 406 933 419 931 q 376 935 393 935 q 313 925 342 935 q 263 892 284 915 q 231 834 242 870 q 219 746 219 798 l 219 669 l 578 669 l 578 715 q 596 828 578 776 q 649 919 614 881 q 735 978 683 957 q 853 1000 787 1000 q 947 996 901 1000 q 1032 990 992 992 l 1082 990 l 1082 0 l 1016 0 l 1016 944 q 937 948 978 945 q 863 951 896 951 q 769 934 810 951 q 700 887 728 918 q 657 813 672 856 q 642 715 642 769 l 642 669 l 866 669 l 866 620 l 644 620 l 644 0 l 578 0 l 578 620 l 222 620 l 222 0 l 155 0 z "},"g":{"ha":709,"x_min":53,"x_max":670,"o":"m 340 306 q 419 318 384 306 q 477 354 453 331 q 513 409 501 377 q 526 480 526 441 q 513 551 526 519 q 476 606 500 583 q 418 642 452 629 q 340 654 383 654 q 261 642 296 654 q 203 606 227 629 q 167 551 179 583 q 154 480 154 519 q 167 409 154 441 q 203 354 179 377 q 261 318 227 331 q 340 306 296 306 m 598 -47 q 581 6 598 -14 q 535 37 564 26 q 470 52 507 48 q 392 59 433 57 q 310 63 351 61 q 233 72 269 65 q 185 48 207 61 q 147 17 163 34 q 122 -21 131 -1 q 113 -65 113 -42 q 128 -122 113 -96 q 174 -167 144 -148 q 248 -197 204 -186 q 349 -208 292 -208 q 447 -197 401 -208 q 526 -163 492 -185 q 579 -112 560 -142 q 598 -47 598 -82 m 670 660 l 670 638 q 651 619 670 622 l 545 611 q 575 552 565 585 q 585 481 585 519 q 568 391 585 431 q 518 321 550 350 q 440 276 485 292 q 340 260 394 260 q 232 278 281 260 q 186 239 203 262 q 169 194 169 217 q 190 149 169 165 q 245 125 211 133 q 324 116 280 118 q 414 111 368 114 q 504 103 460 109 q 582 81 548 97 q 638 37 617 65 q 659 -37 659 9 q 638 -120 659 -81 q 575 -190 616 -160 q 477 -239 535 -221 q 348 -258 419 -258 q 220 -243 275 -258 q 128 -202 165 -228 q 72 -144 91 -177 q 53 -73 53 -110 q 90 21 53 -18 q 188 83 126 60 q 132 117 153 94 q 111 178 111 140 q 117 209 111 193 q 133 241 122 225 q 160 270 144 256 q 197 295 176 284 q 120 371 147 324 q 92 481 92 418 q 110 572 92 531 q 160 642 128 613 q 239 687 193 671 q 340 703 284 703 q 424 692 385 703 q 493 660 463 681 l 670 660 z "},"h":{"ha":764,"x_min":114,"x_max":658,"o":"m 181 574 q 290 667 228 633 q 428 702 351 702 q 528 684 485 702 q 600 632 572 666 q 643 550 628 598 q 658 442 658 502 l 658 0 l 591 0 l 591 442 q 547 594 591 539 q 411 649 502 649 q 285 615 344 649 q 181 519 226 581 l 181 0 l 114 0 l 114 1010 l 181 1010 l 181 574 z "},"ĥ":{"ha":764,"x_min":-45,"x_max":658,"o":"m 338 1071 l 289 1071 q 276 1073 283 1071 q 262 1083 269 1075 l 151 1212 q 146 1219 147 1216 l 140 1212 l 30 1083 q 15 1073 22 1075 q 2 1071 8 1071 l -45 1071 l 118 1256 l 175 1256 l 338 1071 m 181 574 q 290 667 228 633 q 428 702 351 702 q 528 684 485 702 q 600 632 572 666 q 643 550 628 598 q 658 442 658 502 l 658 0 l 591 0 l 591 442 q 547 594 591 539 q 411 649 502 649 q 285 615 344 649 q 181 519 226 581 l 181 0 l 114 0 l 114 1010 l 181 1010 l 181 574 z "},"ħ":{"ha":764,"x_min":-1,"x_max":657,"o":"m 180 567 q 290 660 228 626 q 427 695 351 695 q 527 677 484 695 q 599 625 571 659 q 642 543 628 591 q 657 435 657 495 l 657 0 l 591 0 l 591 435 q 547 587 591 532 q 410 642 502 642 q 284 608 342 642 q 180 512 226 573 l 180 0 l 114 0 l 114 819 l -1 819 l -1 863 l 114 863 l 114 1010 l 180 1010 l 180 863 l 394 863 l 394 819 l 180 819 l 180 567 z "},"i":{"ha":309,"x_min":93,"x_max":216,"o":"m 188 691 l 188 0 l 122 0 l 122 691 l 188 691 m 216 929 q 211 906 216 917 q 197 887 206 895 q 178 874 189 878 q 154 869 167 869 q 131 874 142 869 q 111 887 119 878 q 98 906 103 895 q 93 929 93 917 q 98 953 93 942 q 111 973 103 965 q 131 986 119 981 q 154 991 142 991 q 178 986 167 991 q 197 973 189 981 q 211 953 206 965 q 216 929 216 942 z "},"į":{"ha":309,"x_min":39,"x_max":267,"o":"m 154 869 q 131 874 142 869 q 111 887 119 878 q 98 906 103 895 q 93 929 93 917 q 98 953 93 942 q 111 973 103 965 q 131 986 119 981 q 154 991 142 991 q 178 986 167 991 q 197 973 189 981 q 211 953 206 965 q 216 929 216 942 q 211 906 216 917 q 197 887 206 895 q 178 874 189 878 q 154 869 167 869 m 267 -198 q 218 -225 248 -215 q 157 -235 189 -235 q 71 -209 103 -235 q 39 -137 39 -183 q 47 -96 39 -115 q 68 -59 55 -76 q 99 -27 81 -42 q 134 0 116 -12 l 122 0 l 122 691 l 188 691 l 188 0 l 183 0 q 152 -19 169 -8 q 122 -47 136 -31 q 99 -82 108 -62 q 90 -122 90 -101 q 113 -174 90 -156 q 169 -192 135 -192 q 202 -189 189 -192 q 224 -181 215 -185 q 238 -173 233 -176 q 247 -169 244 -169 q 256 -174 253 -169 l 267 -198 z "},"ı":{"ha":310,"x_min":122,"x_max":188,"o":"m 188 691 l 188 0 l 122 0 l 122 691 l 188 691 z "},"j":{"ha":309,"x_min":-45,"x_max":216,"o":"m 188 691 l 188 -88 q 177 -155 188 -124 q 146 -208 167 -185 q 95 -243 126 -231 q 22 -256 64 -256 q -14 -253 2 -256 q -45 -242 -30 -249 l -42 -208 q -36 -201 -40 -202 q -27 -201 -33 -200 q -12 -204 -21 -202 q 11 -206 -3 -206 q 94 -175 67 -206 q 122 -88 122 -144 l 122 691 l 188 691 m 216 929 q 211 906 216 917 q 197 887 206 895 q 177 874 188 878 q 153 869 166 869 q 130 874 141 869 q 110 887 119 878 q 97 906 102 895 q 92 929 92 917 q 97 953 92 942 q 110 973 102 965 q 130 986 119 981 q 153 991 141 991 q 177 986 166 991 q 197 973 188 981 q 211 953 206 965 q 216 929 216 942 z "},"ȷ":{"ha":310,"x_min":-45,"x_max":188,"o":"m 188 691 l 188 -88 q 178 -155 188 -124 q 147 -208 167 -185 q 95 -243 126 -231 q 23 -256 64 -256 q -14 -253 2 -256 q -45 -242 -29 -249 l -41 -208 q -35 -201 -39 -202 q -26 -201 -32 -200 q -12 -204 -21 -202 q 11 -206 -3 -206 q 94 -175 67 -206 q 122 -88 122 -144 l 122 691 l 188 691 z "},"k":{"ha":661,"x_min":114,"x_max":644,"o":"m 181 1010 l 181 394 l 213 394 q 231 397 222 394 q 250 410 240 400 l 527 674 q 542 686 534 682 q 563 691 551 691 l 622 691 l 317 401 q 290 378 304 387 q 309 366 301 373 q 324 349 317 358 l 644 0 l 587 0 q 569 3 577 0 q 554 16 561 6 l 264 327 q 253 338 258 333 q 242 344 248 342 q 230 348 237 347 q 212 349 222 349 l 181 349 l 181 0 l 114 0 l 114 1010 l 181 1010 z "},"ĸ":{"ha":661,"x_min":114,"x_max":644,"o":"m 181 691 l 181 394 l 213 394 q 231 397 222 394 q 250 410 240 400 l 527 674 q 542 686 534 682 q 563 691 551 691 l 622 691 l 317 401 q 290 378 304 387 q 309 366 301 373 q 324 349 317 358 l 644 0 l 587 0 q 569 3 577 0 q 554 16 561 6 l 264 327 q 253 338 258 333 q 242 344 248 342 q 230 348 237 347 q 212 349 222 349 l 181 349 l 181 0 l 114 0 l 114 691 l 181 691 z "},"ł":{"ha":392,"x_min":33,"x_max":374,"o":"m 374 678 l 374 644 q 372 631 374 636 q 361 622 369 626 l 236 564 l 236 0 l 169 0 l 169 538 l 33 475 l 33 510 q 36 523 33 518 q 46 531 38 527 l 169 590 l 169 1010 l 236 1010 l 236 616 l 374 678 z "},"ľ":{"ha":307,"x_min":120,"x_max":377,"o":"m 187 1010 l 187 0 l 120 0 l 120 1010 l 187 1010 m 360 1012 q 374 1007 371 1012 q 377 993 377 1001 q 375 973 377 985 q 367 941 372 961 q 353 891 362 920 q 331 819 344 861 q 322 806 328 810 q 306 802 316 802 l 283 802 l 319 1012 l 360 1012 z "},"m":{"ha":1118,"x_min":114,"x_max":1011,"o":"m 114 0 l 114 691 l 151 691 q 171 674 168 691 l 177 574 q 269 667 217 631 q 387 702 322 702 q 508 658 463 702 q 569 537 553 615 q 605 610 582 579 q 656 662 627 642 q 720 692 685 683 q 790 702 754 702 q 883 685 842 702 q 952 635 924 668 q 996 553 981 601 q 1011 442 1011 504 l 1011 0 l 945 0 l 945 442 q 901 596 945 543 q 776 649 858 649 q 707 636 740 649 q 649 597 674 623 q 609 532 624 571 q 594 442 594 493 l 594 0 l 527 0 l 527 442 q 487 596 527 542 q 370 649 447 649 q 266 616 314 649 q 181 524 218 583 l 181 0 l 114 0 z "},"n":{"ha":764,"x_min":114,"x_max":658,"o":"m 177 570 q 288 666 225 630 q 428 702 351 702 q 528 684 485 702 q 600 632 572 666 q 643 550 628 598 q 658 442 658 502 l 658 0 l 591 0 l 591 442 q 547 594 591 539 q 411 649 502 649 q 285 615 344 649 q 181 519 226 581 l 181 0 l 114 0 l 114 691 l 151 691 q 171 674 168 691 l 177 570 z "},"ŋ":{"ha":764,"x_min":114,"x_max":658,"o":"m 177 570 q 288 666 225 630 q 428 702 351 702 q 528 684 485 702 q 600 632 572 666 q 643 550 628 598 q 658 442 658 502 l 658 -32 q 645 -126 658 -84 q 608 -197 633 -168 q 546 -242 583 -226 q 460 -258 509 -258 q 407 -252 431 -258 q 356 -236 383 -247 l 363 -209 q 370 -197 366 -199 q 381 -194 375 -194 q 405 -201 387 -194 q 454 -207 423 -207 q 556 -165 520 -207 q 591 -39 591 -123 l 591 442 q 547 594 591 539 q 411 649 502 649 q 285 615 344 649 q 181 519 226 581 l 181 0 l 114 0 l 114 691 l 151 691 q 171 674 168 691 l 177 570 z "},"o":{"ha":775,"x_min":72,"x_max":702,"o":"m 388 702 q 520 677 462 702 q 619 605 579 651 q 681 493 660 558 q 702 346 702 427 q 681 199 702 265 q 619 88 660 134 q 520 16 579 41 q 388 -9 462 -9 q 255 16 313 -9 q 155 88 196 41 q 93 199 115 134 q 72 346 72 265 q 93 493 72 427 q 155 605 115 558 q 255 677 196 651 q 388 702 313 702 m 388 43 q 495 64 449 43 q 573 125 542 85 q 619 220 603 165 q 634 346 634 276 q 619 471 634 415 q 573 567 603 527 q 495 628 542 607 q 388 650 449 650 q 280 628 326 650 q 202 567 233 607 q 156 471 172 527 q 140 346 140 415 q 156 220 140 276 q 202 125 172 165 q 280 64 233 85 q 388 43 326 43 z "},"ø":{"ha":774,"x_min":72,"x_max":715,"o":"m 233 90 q 388 42 294 42 q 496 63 449 42 q 574 124 543 85 q 622 220 606 164 q 638 346 638 276 q 624 465 638 412 q 582 558 610 519 l 233 90 m 553 592 q 481 636 522 621 q 388 651 440 651 q 279 630 326 651 q 200 568 232 608 q 153 471 169 528 q 137 346 137 415 q 153 217 137 274 q 203 120 169 160 l 553 592 m 618 606 q 681 494 660 560 q 702 346 702 428 q 681 199 702 265 q 619 88 660 134 q 520 16 579 41 q 388 -9 462 -9 q 285 5 331 -9 q 201 46 238 19 l 144 -30 q 124 -47 136 -42 q 101 -52 113 -52 l 74 -52 l 168 74 q 97 190 122 121 q 72 346 72 258 q 93 493 72 427 q 155 605 115 558 q 255 677 196 651 q 388 702 313 702 q 498 685 449 702 q 587 637 548 669 l 647 717 q 661 733 654 728 q 681 738 667 738 l 715 738 l 618 606 z "},"œ":{"ha":1208,"x_min":73,"x_max":1139,"o":"m 1081 401 q 1067 507 1081 460 q 1028 586 1053 554 q 968 636 1003 619 q 890 653 933 653 q 800 635 840 653 q 732 584 760 617 q 686 505 703 551 q 665 401 669 458 l 1081 401 m 370 43 q 470 64 427 43 q 541 125 513 85 q 584 220 570 165 q 599 346 599 276 q 584 471 599 415 q 541 567 570 527 q 470 628 513 607 q 370 650 427 650 q 269 628 313 650 q 198 567 226 607 q 155 471 169 527 q 141 346 141 415 q 155 220 141 276 q 198 125 169 165 q 269 64 226 85 q 370 43 313 43 m 1128 89 q 1087 50 1113 68 q 1030 19 1061 32 q 964 -1 999 6 q 892 -9 928 -9 q 731 43 799 -9 q 633 197 664 95 q 536 45 604 100 q 365 -9 468 -9 q 243 16 297 -9 q 151 88 189 41 q 93 199 113 134 q 73 346 73 265 q 93 493 73 427 q 151 605 113 558 q 244 677 189 651 q 367 702 299 702 q 534 649 467 702 q 631 501 601 596 q 669 584 645 547 q 725 647 692 621 q 800 688 758 674 q 892 702 842 702 q 989 681 944 702 q 1067 620 1034 660 q 1120 522 1101 581 q 1139 385 1139 463 q 1135 365 1139 370 q 1122 359 1132 359 l 664 359 q 681 222 664 281 q 728 124 697 163 q 801 64 758 84 q 897 44 844 44 q 978 55 944 44 q 1036 81 1013 67 q 1075 107 1060 95 q 1097 118 1089 118 q 1110 111 1105 118 l 1128 89 z "},"p":{"ha":766,"x_min":114,"x_max":692,"o":"m 181 151 q 223 100 201 121 q 269 67 244 80 q 320 49 293 54 q 378 43 348 43 q 485 65 440 43 q 562 128 531 88 q 609 225 593 169 q 624 350 624 282 q 567 577 624 504 q 404 649 510 649 q 280 614 335 649 q 181 515 224 578 l 181 151 m 178 567 q 285 666 224 629 q 423 703 347 703 q 621 615 550 703 q 692 350 692 526 q 673 209 692 274 q 614 95 653 143 q 520 19 576 47 q 391 -9 464 -9 q 269 17 321 -9 q 181 92 218 42 l 181 -244 l 114 -244 l 114 691 l 151 691 q 171 674 168 691 l 178 567 z "},"þ":{"ha":766,"x_min":114,"x_max":692,"o":"m 181 151 q 223 100 201 121 q 269 67 244 80 q 320 49 293 54 q 378 43 348 43 q 485 65 440 43 q 562 128 531 88 q 609 225 593 169 q 624 350 624 282 q 567 577 624 504 q 404 649 510 649 q 280 614 335 649 q 181 515 224 578 l 181 151 m 181 571 q 287 667 226 632 q 423 702 347 702 q 621 614 550 702 q 692 350 692 526 q 673 209 692 274 q 614 95 653 143 q 520 19 576 47 q 391 -9 464 -9 q 269 18 320 -9 q 181 98 218 45 l 181 -244 l 114 -244 l 114 1010 l 181 1010 l 181 571 z "},"q":{"ha":765,"x_min":74,"x_max":651,"o":"m 585 542 q 499 625 548 600 q 388 651 449 651 q 281 628 326 651 q 204 566 235 606 q 157 468 173 525 q 142 344 142 412 q 198 117 142 190 q 362 44 255 44 q 486 80 430 44 q 585 179 542 115 l 585 542 m 651 691 l 651 -244 l 585 -244 l 585 124 q 479 27 540 63 q 343 -9 419 -9 q 144 79 215 -9 q 74 344 74 167 q 93 485 74 419 q 151 599 113 551 q 245 675 190 647 q 374 703 301 703 q 498 676 446 703 q 588 597 550 649 l 594 674 q 615 691 597 691 l 651 691 z "},"r":{"ha":491,"x_min":114,"x_max":473,"o":"m 177 524 q 214 600 193 567 q 261 656 234 633 q 320 691 288 678 q 394 703 353 703 q 436 699 415 703 q 473 685 457 695 l 467 640 q 454 628 464 628 q 429 633 446 628 q 384 638 412 638 q 313 626 344 638 q 257 590 282 614 q 214 530 233 565 q 181 447 196 494 l 181 0 l 114 0 l 114 691 l 149 691 q 166 686 161 691 q 172 669 171 681 l 177 524 z "},"s":{"ha":590,"x_min":62,"x_max":524,"o":"m 494 606 q 478 596 488 596 q 458 605 470 596 q 427 624 447 613 q 378 643 407 635 q 307 652 349 652 q 239 641 269 652 q 186 613 208 631 q 152 570 164 594 q 140 520 140 547 q 157 466 140 488 q 200 429 174 444 q 262 403 227 414 q 332 381 297 392 q 403 356 368 369 q 464 322 438 342 q 508 273 491 302 q 524 202 524 244 q 508 118 524 157 q 461 51 492 79 q 385 6 431 22 q 282 -11 340 -11 q 156 12 209 -11 q 62 73 103 35 l 77 97 q 85 105 81 102 q 97 108 90 108 q 119 97 106 108 q 153 73 132 85 q 207 49 175 60 q 285 38 238 38 q 362 50 328 38 q 417 83 395 62 q 451 132 440 103 q 463 191 463 160 q 446 249 463 226 q 402 288 429 272 q 341 315 375 303 q 270 337 306 326 q 200 361 234 348 q 138 394 165 374 q 94 443 111 415 q 78 515 78 472 q 94 586 78 552 q 139 646 110 620 q 211 687 169 672 q 306 702 253 702 q 418 684 369 702 q 508 628 467 666 l 494 606 z "},"ş":{"ha":590,"x_min":62,"x_max":524,"o":"m 494 606 q 478 596 488 596 q 458 605 470 596 q 427 624 447 613 q 378 643 407 635 q 307 652 349 652 q 239 641 269 652 q 186 613 208 631 q 152 570 164 594 q 140 520 140 547 q 157 466 140 488 q 200 429 174 444 q 262 403 227 414 q 332 381 297 392 q 403 356 368 369 q 464 322 438 342 q 508 273 491 302 q 524 202 524 244 q 509 121 524 159 q 466 55 494 83 q 395 9 437 26 q 299 -10 353 -8 l 282 -65 q 377 -97 345 -76 q 410 -159 410 -118 q 400 -197 410 -180 q 374 -225 391 -213 q 333 -242 357 -236 q 282 -248 310 -248 q 226 -240 253 -248 q 181 -219 199 -232 l 188 -199 q 199 -192 192 -192 q 209 -195 203 -192 q 224 -203 215 -199 q 247 -211 233 -208 q 281 -215 261 -215 q 337 -200 317 -215 q 356 -159 356 -185 q 347 -130 356 -142 q 322 -111 338 -118 q 283 -99 306 -103 q 233 -91 260 -94 l 259 -10 q 148 16 195 -7 q 62 73 101 38 l 77 97 q 85 105 81 102 q 97 108 90 108 q 119 97 106 108 q 153 73 132 85 q 207 49 175 60 q 285 38 238 38 q 362 50 328 38 q 417 83 395 62 q 451 132 440 103 q 463 191 463 160 q 446 249 463 226 q 402 288 429 272 q 341 315 375 303 q 270 337 306 326 q 200 361 234 348 q 138 394 165 374 q 94 443 111 415 q 78 515 78 472 q 94 586 78 552 q 139 646 110 620 q 211 687 169 672 q 306 702 253 702 q 418 684 369 702 q 508 628 467 666 l 494 606 z "},"ß":{"ha":768,"x_min":114,"x_max":714,"o":"m 421 995 q 526 977 480 995 q 603 932 572 960 q 650 869 634 903 q 666 799 666 834 q 650 724 666 756 q 609 668 633 692 q 556 624 584 643 q 502 585 527 604 q 461 546 478 566 q 445 500 445 526 q 457 458 445 475 q 487 428 468 441 q 530 406 506 416 q 580 384 554 395 q 629 358 605 372 q 672 323 653 344 q 702 273 691 302 q 714 203 714 244 q 697 117 714 156 q 648 49 679 77 q 573 5 617 20 q 476 -11 529 -11 q 355 12 406 -11 q 263 73 305 35 l 278 97 q 286 105 282 102 q 299 108 291 108 q 320 97 308 108 q 354 73 333 85 q 406 49 375 60 q 481 38 437 38 q 553 50 522 38 q 607 83 585 62 q 641 133 629 104 q 652 194 652 161 q 632 268 652 240 q 581 315 611 297 q 515 346 550 333 q 449 376 479 359 q 398 419 418 393 q 377 489 377 445 q 394 548 377 523 q 436 594 410 573 q 490 636 461 616 q 545 680 519 656 q 587 732 570 703 q 603 800 603 761 q 594 847 603 822 q 562 894 584 872 q 505 931 540 916 q 419 945 469 945 q 326 930 369 945 q 250 885 283 915 q 199 807 217 854 q 180 694 180 759 l 180 0 l 114 0 l 114 695 q 137 821 114 765 q 200 916 160 877 q 298 975 241 954 q 421 995 354 995 z "},"ſ":{"ha":365,"x_min":40,"x_max":451,"o":"m 156 757 q 172 861 156 816 q 215 935 187 906 q 282 980 242 965 q 368 995 321 995 q 411 991 390 995 q 451 981 433 988 l 448 947 q 442 941 447 942 q 428 941 437 940 q 406 943 419 942 q 378 945 394 945 q 315 935 344 945 q 266 902 287 924 q 234 843 246 879 q 223 755 223 807 l 223 0 l 156 0 l 156 619 l 59 625 q 40 642 40 627 l 40 669 l 156 669 l 156 757 z "},"t":{"ha":476,"x_min":38,"x_max":454,"o":"m 303 -11 q 193 28 233 -11 q 154 148 154 67 l 154 620 l 55 620 q 42 624 47 620 q 38 636 38 628 l 38 662 l 156 670 l 172 917 q 178 928 174 924 q 190 933 182 933 l 221 933 l 221 669 l 439 669 l 439 620 l 221 620 l 221 151 q 228 102 221 123 q 248 69 235 82 q 278 49 261 56 q 316 43 296 43 q 359 50 341 43 q 390 66 377 58 q 412 82 403 75 q 425 90 420 90 q 436 83 431 90 l 454 53 q 387 7 428 24 q 303 -11 347 -11 z "},"ť":{"ha":474,"x_min":35,"x_max":505,"o":"m 301 -11 q 191 28 231 -11 q 152 148 152 67 l 152 620 l 53 620 q 40 624 45 620 q 35 636 35 628 l 35 662 l 153 670 l 170 917 q 176 928 172 924 q 188 933 180 933 l 219 933 l 219 669 l 437 669 l 437 620 l 219 620 l 219 151 q 226 102 219 123 q 246 69 233 82 q 276 49 259 56 q 314 43 294 43 q 357 50 339 43 q 388 66 375 58 q 410 82 401 75 q 423 90 418 90 q 434 83 428 90 l 452 53 q 385 7 426 24 q 301 -11 344 -11 m 488 1012 q 502 1007 499 1012 q 505 993 505 1001 q 502 973 505 985 q 495 941 500 961 q 481 891 490 920 q 459 819 472 861 q 450 806 456 810 q 433 802 444 802 l 411 802 l 447 1012 l 488 1012 z "},"ŧ":{"ha":480,"x_min":40,"x_max":456,"o":"m 49 479 l 156 479 l 156 620 l 57 620 q 44 624 49 620 q 40 636 40 628 l 40 662 l 158 670 l 174 917 q 180 928 176 924 q 192 933 184 933 l 223 933 l 223 669 l 441 669 l 441 620 l 223 620 l 223 479 l 440 479 l 440 435 l 223 435 l 223 151 q 230 102 223 123 q 250 69 238 82 q 281 49 263 56 q 318 43 298 43 q 361 50 343 43 q 392 66 379 58 q 414 82 406 75 q 427 90 422 90 q 438 83 433 90 l 456 53 q 389 7 430 24 q 305 -11 349 -11 q 195 28 235 -11 q 156 148 156 67 l 156 435 l 49 435 l 49 479 z "},"u":{"ha":763,"x_min":106,"x_max":650,"o":"m 650 691 l 650 0 l 613 0 q 593 18 596 0 l 587 121 q 476 25 539 61 q 336 -11 413 -11 q 235 7 278 -11 q 164 59 192 25 q 121 141 135 93 q 106 249 106 189 l 106 691 l 173 691 l 173 249 q 217 97 173 152 q 353 42 262 42 q 479 76 420 42 q 583 172 538 110 l 583 691 l 650 691 z "},"ų":{"ha":763,"x_min":106,"x_max":735,"o":"m 735 -198 q 686 -225 715 -215 q 624 -235 656 -235 q 539 -209 571 -235 q 506 -137 506 -183 q 515 -95 506 -115 q 536 -58 523 -76 q 567 -25 550 -40 q 603 1 585 -10 q 593 18 595 6 l 587 121 q 476 25 539 61 q 336 -11 413 -11 q 235 7 278 -11 q 164 59 192 25 q 121 141 135 93 q 106 249 106 189 l 106 691 l 173 691 l 173 249 q 217 97 173 152 q 353 42 262 42 q 479 76 420 42 q 583 172 538 110 l 583 691 l 650 691 l 650 0 q 620 -19 636 -8 q 590 -47 603 -31 q 567 -82 576 -62 q 558 -122 558 -101 q 580 -174 558 -156 q 637 -192 602 -192 q 669 -189 656 -192 q 691 -181 683 -185 q 706 -173 700 -176 q 715 -169 711 -169 q 724 -174 720 -169 l 735 -198 z "},"v":{"ha":697,"x_min":27,"x_max":669,"o":"m 669 691 l 377 0 l 319 0 l 27 691 l 79 691 q 95 686 89 691 q 103 674 101 681 l 332 129 q 349 69 342 99 q 366 129 355 99 l 595 674 q 605 686 599 682 q 619 691 610 691 l 669 691 z "},"w":{"ha":1062,"x_min":35,"x_max":1027,"o":"m 1027 691 l 797 0 l 747 0 q 731 15 735 0 l 542 576 q 536 597 539 586 q 531 617 533 607 q 521 576 528 597 l 329 15 q 313 0 325 0 l 265 0 l 35 691 l 85 691 q 101 686 94 691 q 109 674 107 681 l 283 129 q 291 98 288 113 q 297 69 294 83 q 305 98 301 83 q 315 129 309 113 l 499 679 q 519 694 504 694 l 546 694 q 566 679 561 694 l 749 129 q 758 99 754 113 q 766 69 763 84 q 772 99 769 84 q 780 129 775 113 l 956 674 q 965 686 958 682 q 979 691 971 691 l 1027 691 z "},"x":{"ha":651,"x_min":30,"x_max":621,"o":"m 621 0 l 558 0 q 542 6 548 0 q 533 17 537 12 l 324 324 q 313 299 321 311 l 113 17 q 103 6 108 11 q 90 0 98 0 l 30 0 l 281 353 l 40 691 l 103 691 q 117 687 113 691 q 126 677 122 683 l 328 385 q 333 397 330 390 q 340 409 336 403 l 529 676 q 538 687 533 683 q 551 691 543 691 l 611 691 l 370 358 l 621 0 z "},"y":{"ha":697,"x_min":27,"x_max":672,"o":"m 672 691 l 275 -222 q 264 -238 271 -232 q 245 -244 258 -244 l 198 -244 l 319 26 l 27 691 l 82 691 q 99 686 92 691 q 107 674 105 681 l 340 137 q 347 116 344 126 q 353 94 350 105 q 360 116 356 105 q 368 137 364 126 l 598 674 q 608 686 601 682 q 622 691 614 691 l 672 691 z "},"z":{"ha":616,"x_min":45,"x_max":567,"o":"m 567 691 l 567 663 q 558 637 567 649 l 125 52 l 550 52 l 550 0 l 45 0 l 45 26 q 56 52 45 38 l 490 639 l 68 639 l 68 691 l 567 691 z "},"ª":{"ha":510,"x_min":85,"x_max":404,"o":"m 355 774 q 186 747 238 771 q 133 684 133 723 q 140 652 133 665 q 158 630 147 638 q 184 617 169 621 q 215 613 199 613 q 257 618 238 613 q 293 632 276 623 q 325 652 310 640 q 355 678 340 664 l 355 774 m 108 928 q 178 977 142 962 q 262 993 215 993 q 368 952 332 993 q 404 844 404 912 l 404 583 l 382 583 q 371 585 374 583 q 364 596 367 588 l 357 643 q 323 615 340 627 q 287 594 306 602 q 248 581 269 585 q 201 576 226 576 q 158 583 178 576 q 121 602 137 589 q 95 634 105 615 q 85 681 85 654 q 100 729 85 706 q 147 769 115 751 q 231 797 179 786 q 355 808 282 807 l 355 844 q 331 924 355 897 q 257 951 308 951 q 207 944 227 951 q 172 927 186 936 q 149 911 158 919 q 132 903 140 903 q 123 906 126 903 q 117 913 119 909 l 108 928 z "},"º":{"ha":561,"x_min":82,"x_max":479,"o":"m 281 992 q 364 978 328 992 q 426 936 401 963 q 466 870 452 908 q 479 783 479 831 q 466 697 479 735 q 426 631 452 658 q 364 589 401 603 q 281 574 328 574 q 198 589 235 574 q 135 631 160 603 q 95 697 109 658 q 82 783 82 735 q 95 870 82 831 q 135 936 109 908 q 198 978 160 963 q 281 992 235 992 m 281 615 q 391 659 354 615 q 427 783 427 704 q 391 907 427 862 q 281 952 354 952 q 171 907 208 952 q 134 783 134 862 q 171 659 134 704 q 281 615 208 615 z "},"ⁿ":{"ha":412,"x_min":66,"x_max":349,"o":"m 109 923 q 164 970 133 952 q 233 988 194 988 q 320 952 291 988 q 349 856 349 917 l 349 633 l 301 633 l 301 856 q 281 925 301 900 q 219 949 261 949 q 163 934 189 949 q 115 892 136 919 l 115 633 l 66 633 l 66 983 l 91 983 q 100 980 97 983 q 105 970 103 978 l 109 923 z "},"`":{"ha":556,"x_min":135,"x_max":349,"o":"m 199 994 q 224 989 215 994 q 240 972 232 984 l 349 806 l 310 806 q 296 809 302 806 q 285 818 290 811 l 135 994 l 199 994 z "},"´":{"ha":556,"x_min":218,"x_max":434,"o":"m 434 994 l 283 818 q 272 809 278 811 q 258 806 266 806 l 218 806 l 327 972 q 343 989 335 984 q 368 994 351 994 l 434 994 z "},"ˆ":{"ha":556,"x_min":97,"x_max":458,"o":"m 458 812 l 413 812 q 393 822 403 812 l 286 937 q 282 941 284 939 q 278 946 281 943 q 275 941 276 943 q 271 937 273 939 l 164 822 q 155 815 160 817 q 144 812 149 812 l 97 812 l 248 983 l 307 983 l 458 812 z "},"ˇ":{"ha":556,"x_min":97,"x_max":458,"o":"m 458 983 l 307 812 l 248 812 l 97 983 l 144 983 q 163 975 155 983 l 271 858 q 275 854 273 856 q 278 849 277 852 q 282 854 281 852 q 286 858 284 856 l 394 975 q 413 983 402 983 l 458 983 z "},"̕":{"ha":0,"x_min":235,"x_max":328,"o":"m 312 1012 q 325 1007 322 1012 q 328 993 328 1001 q 326 973 328 985 q 318 941 324 961 q 304 891 313 920 q 283 819 295 861 q 273 806 279 810 q 257 802 267 802 l 235 802 l 270 1012 l 312 1012 z "},"˜":{"ha":556,"x_min":101,"x_max":460,"o":"m 357 889 q 402 908 388 889 q 419 960 417 927 l 460 960 q 453 913 460 935 q 434 875 447 891 q 402 850 421 859 q 359 841 383 841 q 316 852 336 841 q 277 877 296 864 q 241 902 258 891 q 205 914 223 914 q 160 894 176 914 q 144 843 144 874 l 101 843 q 108 890 101 868 q 128 928 115 912 q 160 953 142 944 q 203 962 179 962 q 247 950 226 962 q 285 925 267 939 q 321 900 303 912 q 357 889 339 889 z "},"¨":{"ha":556,"x_min":98,"x_max":457,"o":"m 213 892 q 208 870 213 881 q 195 853 203 860 q 176 841 187 845 q 155 836 166 836 q 133 841 143 836 q 115 853 123 845 q 102 870 107 860 q 98 892 98 881 q 102 914 98 903 q 115 932 107 924 q 133 945 123 940 q 155 949 143 949 q 176 945 166 949 q 195 932 187 940 q 208 914 203 924 q 213 892 213 903 m 457 892 q 452 870 457 881 q 440 853 447 860 q 422 841 432 845 q 400 836 411 836 q 378 841 388 836 q 360 853 367 845 q 348 870 352 860 q 343 892 343 881 q 360 932 343 915 q 400 949 376 949 q 422 945 411 949 q 440 932 432 940 q 452 914 447 924 q 457 892 457 903 z "},"¯":{"ha":556,"x_min":88,"x_max":467,"o":"m 88 915 l 467 915 l 467 869 l 88 869 l 88 915 z "},"˘":{"ha":556,"x_min":111,"x_max":444,"o":"m 278 811 q 200 825 232 811 q 149 862 169 838 q 120 917 129 885 q 111 983 111 948 l 159 983 q 165 934 159 957 q 185 894 171 911 q 222 866 199 876 q 278 856 244 856 q 334 866 311 856 q 370 894 356 876 q 390 934 384 911 q 396 983 396 957 l 444 983 q 435 917 444 948 q 407 862 426 885 q 355 825 387 838 q 278 811 324 811 z "},"˚":{"ha":556,"x_min":158,"x_max":397,"o":"m 158 904 q 168 950 158 929 q 193 986 177 971 q 231 1009 210 1001 q 277 1018 253 1018 q 324 1009 302 1018 q 362 986 346 1001 q 388 950 378 971 q 397 904 397 929 q 388 859 397 879 q 362 823 378 838 q 324 799 346 808 q 277 791 302 791 q 231 799 253 791 q 193 823 210 808 q 168 859 177 838 q 158 904 158 879 m 199 904 q 220 847 199 869 q 278 825 242 825 q 335 847 313 825 q 357 904 357 869 q 335 961 357 939 q 278 983 313 983 q 220 961 242 983 q 199 904 199 939 z "},"˝":{"ha":556,"x_min":160,"x_max":542,"o":"m 353 994 l 215 818 q 204 809 210 811 q 190 806 198 806 l 160 806 l 266 972 q 282 989 274 984 q 307 994 290 994 l 353 994 m 542 994 l 381 818 q 370 809 376 811 q 356 806 364 806 l 323 806 l 449 972 q 466 989 458 983 q 490 994 474 994 l 542 994 z "},"˙":{"ha":556,"x_min":216,"x_max":340,"o":"m 340 938 q 334 914 340 925 q 320 895 329 903 q 301 882 312 887 q 277 877 290 877 q 253 882 265 877 q 234 895 242 887 q 221 914 226 903 q 216 938 216 925 q 221 961 216 950 q 234 981 226 973 q 253 994 242 990 q 277 999 265 999 q 301 994 290 999 q 320 981 312 990 q 334 961 329 973 q 340 938 340 950 z "},"¸":{"ha":556,"x_min":179,"x_max":408,"o":"m 280 -65 q 375 -97 343 -76 q 408 -159 408 -118 q 398 -197 408 -180 q 372 -225 389 -213 q 331 -242 355 -236 q 280 -248 308 -248 q 224 -240 251 -248 q 179 -219 197 -232 l 186 -199 q 197 -192 190 -192 q 207 -195 201 -192 q 222 -203 213 -199 q 245 -211 231 -208 q 279 -215 259 -215 q 335 -200 315 -215 q 354 -159 354 -185 q 345 -130 354 -142 q 320 -111 336 -118 q 281 -99 303 -103 q 231 -91 258 -94 l 263 8 l 302 8 l 280 -65 z "},"˛":{"ha":556,"x_min":171,"x_max":399,"o":"m 379 -169 q 388 -174 385 -169 l 399 -198 q 350 -225 380 -215 q 289 -235 321 -235 q 203 -209 235 -235 q 171 -137 171 -183 q 181 -92 171 -113 q 206 -52 190 -71 q 241 -18 222 -33 q 281 9 260 -3 l 315 0 q 284 -19 301 -8 q 254 -47 268 -31 q 231 -82 240 -62 q 222 -122 222 -101 q 244 -174 222 -156 q 301 -192 267 -192 q 334 -189 321 -192 q 356 -181 347 -185 q 370 -173 365 -176 q 379 -169 376 -169 z "},"Γ":{"ha":755,"x_min":145,"x_max":734,"o":"m 734 926 l 217 926 l 217 0 l 145 0 l 145 983 l 734 983 l 734 926 z "},"Δ":{"ha":910,"x_min":26,"x_max":883,"o":"m 101 58 l 803 58 l 474 853 q 463 882 468 867 q 453 916 458 898 q 443 882 448 898 q 432 853 438 867 l 101 58 m 874 67 q 881 44 878 56 q 883 22 883 33 l 883 0 l 26 0 l 26 20 q 35 65 26 42 l 420 983 l 490 983 l 874 67 z "},"Θ":{"ha":1099,"x_min":81,"x_max":1018,"o":"m 343 531 l 756 531 l 756 472 l 343 472 l 343 531 m 1018 492 q 984 285 1018 378 q 888 127 950 192 q 740 25 826 61 q 549 -10 653 -10 q 359 25 445 -10 q 211 127 273 61 q 115 285 149 192 q 81 492 81 378 q 115 698 81 605 q 211 856 149 790 q 359 958 273 922 q 549 994 445 994 q 740 958 653 994 q 888 856 826 922 q 984 698 950 790 q 1018 492 1018 605 m 944 492 q 916 676 944 594 q 835 815 888 758 q 710 902 783 872 q 549 933 638 933 q 389 902 462 933 q 264 815 316 872 q 182 676 211 758 q 153 492 153 594 q 182 307 153 388 q 264 168 211 225 q 389 81 316 111 q 549 51 462 51 q 710 81 638 51 q 835 168 783 111 q 916 307 888 225 q 944 492 944 388 z "},"Λ":{"ha":910,"x_min":17,"x_max":892,"o":"m 892 0 l 832 0 q 816 5 822 0 q 806 19 810 10 l 472 835 q 460 867 466 850 q 450 902 455 884 q 441 867 446 884 q 430 835 436 850 l 96 19 q 86 6 93 11 q 69 0 79 0 l 17 0 l 423 983 l 486 983 l 892 0 z "},"Ξ":{"ha":853,"x_min":67,"x_max":792,"o":"m 792 983 l 792 922 l 67 922 l 67 983 l 792 983 m 792 60 l 792 0 l 67 0 l 67 60 l 792 60 m 238 533 l 616 533 l 616 470 l 238 470 l 238 533 z "},"Π":{"ha":1049,"x_min":145,"x_max":903,"o":"m 903 0 l 832 0 l 832 926 l 217 926 l 217 0 l 145 0 l 145 983 l 903 983 l 903 0 z "},"Σ":{"ha":838,"x_min":51,"x_max":776,"o":"m 207 926 q 163 927 183 926 q 122 933 143 929 q 160 905 144 919 q 193 870 176 891 l 456 532 q 471 511 467 519 q 474 497 474 503 q 471 480 474 489 q 456 458 467 471 l 181 108 q 150 73 163 86 q 124 51 138 60 q 163 56 144 54 q 200 57 182 57 l 776 57 l 776 0 l 51 0 l 51 26 q 56 43 51 35 q 65 58 60 51 l 413 490 l 61 931 q 54 941 57 935 q 51 953 51 947 l 51 983 l 776 983 l 776 926 l 207 926 z "},"Φ":{"ha":1124,"x_min":60,"x_max":1063,"o":"m 596 109 q 761 141 688 110 q 886 224 835 172 q 966 347 938 276 q 994 495 994 417 q 966 644 994 574 q 886 766 938 714 q 761 850 835 819 q 596 881 688 881 l 596 109 m 528 881 q 363 850 436 881 q 237 766 289 819 q 158 644 185 714 q 130 495 130 574 q 158 347 130 417 q 237 224 185 276 q 363 141 289 172 q 528 109 436 110 l 528 881 m 596 938 q 793 901 706 937 q 940 806 880 866 q 1032 665 1000 745 q 1063 495 1063 585 q 1032 325 1063 406 q 940 185 1000 245 q 793 90 880 125 q 596 53 706 54 l 596 -81 l 528 -81 l 528 53 q 331 90 417 54 q 184 185 244 125 q 92 325 124 245 q 60 495 60 406 q 93 665 60 585 q 186 806 126 745 q 333 901 247 866 q 528 938 419 937 l 528 1065 l 596 1065 l 596 938 z "},"Ψ":{"ha":1104,"x_min":81,"x_max":1024,"o":"m 1024 983 l 1024 635 q 995 476 1024 547 q 911 354 967 405 q 775 276 856 303 q 588 246 694 248 l 588 0 l 516 0 l 516 246 q 328 276 410 248 q 192 354 247 303 q 109 476 137 405 q 81 635 81 547 l 81 983 l 126 983 q 145 975 139 983 q 152 956 152 967 l 152 635 q 175 497 152 558 q 243 394 198 436 q 357 328 289 351 q 516 303 425 305 l 516 983 l 588 983 l 588 303 q 861 394 769 307 q 952 635 952 481 l 952 956 q 958 975 952 967 q 977 983 965 983 l 1024 983 z "},"Ω":{"ha":1110,"x_min":89,"x_max":1020,"o":"m 1020 61 l 1020 25 q 1013 7 1020 14 q 994 0 1006 0 l 642 0 l 642 84 q 765 137 708 98 q 861 234 821 176 q 925 366 902 292 q 948 524 948 440 q 915 701 948 624 q 828 828 883 777 q 703 905 774 879 q 555 931 632 931 q 407 905 478 931 q 281 828 335 879 q 194 701 227 777 q 162 524 162 624 q 185 366 162 440 q 248 234 208 292 q 345 137 289 176 q 468 84 401 98 l 468 0 l 115 0 q 96 7 103 0 q 89 25 89 14 l 89 61 l 335 61 q 373 59 353 61 q 413 54 393 58 q 287 115 346 73 q 185 218 228 157 q 116 356 141 278 q 91 524 91 434 q 128 722 91 635 q 230 869 166 809 q 377 961 293 929 q 555 993 461 993 q 733 961 649 993 q 880 869 817 929 q 981 722 944 809 q 1019 524 1019 635 q 994 356 1019 434 q 925 218 969 278 q 823 115 881 157 q 697 54 764 73 q 736 59 717 58 q 774 61 756 61 l 1020 61 z "},"α":{"ha":803,"x_min":72,"x_max":790,"o":"m 600 485 q 571 547 590 517 q 526 600 553 577 q 464 637 499 623 q 385 651 429 651 q 290 631 334 651 q 212 572 245 611 q 159 474 178 533 q 140 338 140 415 q 158 209 140 264 q 205 118 175 154 q 273 63 234 81 q 355 44 312 44 q 434 61 396 44 q 502 109 472 77 q 552 190 532 142 q 579 301 573 238 l 600 485 m 790 46 l 790 19 q 776 2 790 10 q 735 -5 763 -5 q 680 4 706 -5 q 632 31 653 13 q 597 78 611 49 q 580 149 583 108 q 534 80 560 109 q 477 30 508 50 q 412 1 447 10 q 342 -9 378 -9 q 237 14 286 -9 q 151 82 188 38 q 93 190 115 126 q 72 336 72 254 q 96 491 72 423 q 160 606 119 559 q 257 678 201 653 q 374 703 312 703 q 456 691 419 703 q 523 659 493 679 q 574 612 552 639 q 611 556 597 585 l 626 674 q 647 691 631 691 l 683 691 l 643 306 q 638 239 640 272 q 635 181 635 206 q 645 118 635 144 q 671 76 654 92 q 711 53 688 60 q 761 46 734 46 l 790 46 z "},"β":{"ha":757,"x_min":113,"x_max":689,"o":"m 180 151 q 217 105 197 125 q 260 71 237 85 q 312 50 283 58 q 375 43 340 43 q 479 62 433 43 q 557 113 525 81 q 606 190 589 146 q 622 285 622 234 q 602 385 622 341 q 547 458 583 428 q 460 503 510 488 q 350 518 410 518 l 308 518 l 308 570 l 343 570 q 425 581 386 570 q 495 614 465 592 q 543 673 525 637 q 560 758 560 708 q 548 834 560 800 q 511 893 535 869 q 453 930 488 917 q 376 943 419 943 q 290 925 326 943 q 229 869 253 908 q 192 769 204 830 q 180 621 180 708 l 180 151 m 113 622 q 180 901 113 809 q 376 992 246 992 q 483 974 437 992 q 560 925 529 956 q 608 852 592 894 q 624 764 624 810 q 611 684 624 720 q 575 621 598 649 q 519 575 551 594 q 449 547 487 556 q 549 514 505 537 q 625 457 594 491 q 673 379 656 424 q 689 282 689 335 q 668 168 689 222 q 608 76 647 115 q 514 14 569 37 q 390 -9 458 -9 q 180 92 253 -9 l 180 -272 l 113 -272 l 113 622 z "},"γ":{"ha":728,"x_min":36,"x_max":693,"o":"m 693 691 q 641 501 669 588 q 578 335 613 413 q 502 185 543 257 q 410 42 460 113 l 410 -244 l 344 -244 l 344 47 q 276 308 309 197 q 209 495 243 420 q 140 607 176 569 q 63 644 104 644 l 36 644 l 36 669 q 38 678 36 674 q 43 686 39 683 q 56 692 48 690 q 77 694 64 694 q 174 660 131 694 q 254 554 217 626 q 323 368 291 481 q 388 94 356 254 q 526 355 471 214 q 616 663 581 496 q 626 685 619 679 q 641 691 633 691 l 693 691 z "},"δ":{"ha":752,"x_min":69,"x_max":683,"o":"m 378 43 q 474 61 431 43 q 550 111 518 78 q 599 192 581 144 q 616 299 616 240 q 597 412 616 363 q 545 500 577 461 q 474 568 514 538 q 392 623 433 597 q 293 581 340 607 q 212 517 247 555 q 158 429 178 479 q 138 314 138 378 q 152 211 138 260 q 197 125 167 162 q 272 65 227 88 q 378 43 317 43 m 591 931 q 584 916 590 919 q 569 913 579 913 q 545 917 563 913 q 500 925 526 921 q 443 933 474 929 q 383 937 413 937 q 313 930 342 937 q 266 911 284 923 q 241 883 249 899 q 233 849 233 867 q 252 794 233 819 q 303 747 272 769 q 375 700 335 724 q 458 650 415 677 q 540 591 500 623 q 612 517 581 558 q 663 423 644 475 q 683 303 683 370 q 660 174 683 232 q 597 76 638 117 q 501 14 557 35 q 378 -8 444 -8 q 245 17 303 -8 q 148 86 188 42 q 89 189 109 130 q 69 313 69 247 q 141 523 69 438 q 349 649 213 607 q 281 691 313 669 q 224 735 249 712 q 185 786 199 758 q 170 848 170 813 q 181 901 170 876 q 218 947 192 927 q 284 978 243 967 q 385 990 325 990 q 432 988 406 990 q 486 984 458 987 q 542 976 514 981 q 595 967 570 972 l 591 931 z "},"ε":{"ha":624,"x_min":72,"x_max":571,"o":"m 571 89 q 531 50 555 68 q 476 19 506 32 q 411 -1 446 6 q 338 -8 376 -8 q 232 6 281 -8 q 148 47 183 21 q 92 111 113 74 q 72 193 72 148 q 114 302 72 256 q 233 367 155 348 q 167 395 194 377 q 123 434 140 413 q 99 479 106 456 q 91 525 91 503 q 106 590 91 558 q 152 647 122 622 q 230 687 183 672 q 340 702 277 702 q 467 681 414 702 q 558 626 521 660 l 542 601 q 535 594 538 596 q 526 592 532 592 q 507 601 520 592 q 473 621 494 610 q 419 641 451 632 q 341 650 387 650 q 258 639 293 650 q 200 610 223 628 q 165 568 176 592 q 154 520 154 545 q 168 468 154 492 q 207 427 181 444 q 269 399 233 409 q 350 389 305 389 l 463 389 l 463 343 l 350 343 q 259 333 299 343 q 193 303 219 322 q 152 257 166 284 q 139 199 139 231 q 153 136 139 165 q 194 87 168 108 q 258 55 221 66 q 340 43 295 43 q 427 55 392 43 q 484 81 461 67 q 519 106 506 94 q 539 118 531 118 q 553 111 548 118 l 571 89 z "},"ζ":{"ha":524,"x_min":71,"x_max":549,"o":"m 540 955 q 539 947 540 951 q 531 934 538 942 q 512 912 525 926 q 478 878 499 899 q 358 760 419 823 q 248 628 297 698 q 167 481 198 558 q 135 321 135 404 q 151 226 135 265 q 194 161 166 188 q 260 118 222 135 q 345 88 299 101 q 454 48 414 68 q 515 7 494 28 q 542 -35 536 -14 q 549 -78 549 -57 q 534 -162 549 -124 q 498 -236 519 -199 l 447 -214 q 474 -157 461 -188 q 487 -91 487 -126 q 482 -60 487 -76 q 460 -29 477 -44 q 410 1 443 -14 q 321 31 377 17 q 216 69 263 47 q 138 122 170 90 q 88 200 106 154 q 71 309 71 245 q 101 474 71 395 q 185 629 131 553 q 311 781 238 706 q 468 936 383 857 q 345 930 412 932 q 211 928 279 928 l 138 928 q 117 935 124 928 q 111 950 111 942 l 111 983 l 534 983 l 540 955 z "},"η":{"ha":794,"x_min":13,"x_max":688,"o":"m 13 674 q 23 690 13 683 q 54 697 32 697 q 154 667 115 697 q 202 569 193 637 q 315 666 251 630 q 458 702 380 702 q 558 684 515 702 q 630 632 601 666 q 673 550 658 598 q 688 442 688 502 l 688 -244 l 622 -244 l 622 442 q 577 594 622 539 q 441 649 533 649 q 315 615 373 649 q 210 519 256 580 l 210 0 l 144 0 l 144 526 q 118 618 144 589 q 38 647 92 647 l 13 647 l 13 674 z "},"θ":{"ha":820,"x_min":95,"x_max":725,"o":"m 160 473 q 225 151 163 259 q 410 43 288 43 q 595 151 532 43 q 661 473 658 259 l 160 473 m 661 520 q 594 835 657 728 q 410 942 531 942 q 227 835 290 942 q 160 520 164 728 l 661 520 m 410 993 q 543 960 485 993 q 642 864 602 928 q 704 706 683 800 q 725 491 725 613 q 704 276 725 369 q 642 119 683 183 q 543 23 602 56 q 410 -9 485 -9 q 277 23 336 -9 q 178 119 219 56 q 116 276 138 183 q 95 491 95 369 q 116 706 95 613 q 178 864 138 800 q 277 960 219 928 q 410 993 336 993 z "},"ι":{"ha":344,"x_min":108,"x_max":338,"o":"m 108 691 l 175 691 l 175 168 q 203 74 175 106 q 290 42 231 42 l 338 42 l 338 20 q 267 -8 338 -8 q 149 38 190 -8 q 108 165 108 83 l 108 691 z "},"λ":{"ha":730,"x_min":47,"x_max":734,"o":"m 734 44 l 734 17 q 724 -1 734 4 q 688 -6 714 -6 q 641 -2 664 -6 q 598 16 618 3 q 560 51 578 28 q 530 110 543 74 l 363 536 q 352 578 355 558 q 340 539 348 560 l 126 17 q 117 6 124 11 q 101 0 110 0 l 47 0 l 319 648 l 237 864 q 219 899 229 885 q 196 923 210 914 q 164 937 183 933 q 119 942 145 942 l 74 942 l 74 967 q 76 976 74 972 q 84 985 78 981 q 100 990 90 988 q 128 992 111 992 q 230 969 189 992 q 292 891 272 947 l 588 131 q 630 64 606 83 q 692 44 653 44 l 734 44 z "},"μ":{"ha":818,"x_min":113,"x_max":809,"o":"m 809 44 l 809 17 q 795 1 809 8 q 753 -6 781 -6 q 698 2 724 -6 q 651 28 672 10 q 616 73 630 46 q 599 138 602 101 q 491 34 553 72 q 356 -4 430 -4 q 241 23 287 -4 q 172 99 196 49 q 175 39 174 69 q 176 -17 176 8 l 176 -244 l 143 -244 q 121 -237 129 -244 q 113 -215 113 -229 l 113 691 l 180 691 l 180 260 q 191 172 180 211 q 224 106 202 133 q 280 65 247 79 q 360 51 314 51 q 491 89 433 51 q 591 197 549 128 l 591 691 l 657 691 l 657 165 q 666 111 657 134 q 691 73 675 88 q 730 51 707 58 q 780 44 753 44 l 809 44 z "},"ν":{"ha":699,"x_min":27,"x_max":663,"o":"m 663 691 q 608 490 638 583 q 541 314 578 397 q 459 153 503 230 q 360 0 414 76 l 319 0 l 27 691 l 79 691 q 95 686 89 691 q 103 674 101 681 l 332 129 q 349 69 343 98 q 492 342 435 192 q 586 666 549 493 q 595 685 588 680 q 610 691 602 691 l 663 691 z "},"ξ":{"ha":530,"x_min":69,"x_max":529,"o":"m 503 956 q 495 935 503 942 q 476 928 486 928 l 419 928 q 320 911 365 928 q 241 866 274 894 q 190 799 208 837 q 172 718 172 760 q 187 651 172 681 q 231 600 202 621 q 303 567 260 578 q 402 555 346 555 l 454 555 l 454 501 l 381 501 q 272 486 318 501 q 195 444 226 472 q 150 380 165 417 q 135 297 135 342 q 152 214 135 249 q 202 155 170 180 q 277 110 233 129 q 374 74 321 91 q 454 41 424 57 q 501 7 485 24 q 524 -31 518 -11 q 529 -73 529 -50 q 515 -159 529 -120 q 478 -235 500 -199 l 426 -212 q 454 -156 441 -187 q 467 -87 467 -125 q 463 -57 467 -71 q 446 -30 459 -42 q 407 -5 433 -17 q 340 20 382 8 q 239 56 288 35 q 152 108 190 77 q 92 184 115 140 q 69 292 69 228 q 80 368 69 331 q 114 438 91 406 q 173 494 137 469 q 260 533 209 519 q 147 603 184 556 q 110 714 110 651 q 124 785 110 751 q 162 847 138 818 q 219 897 186 875 q 292 933 253 919 q 240 932 268 932 q 178 931 213 931 l 98 931 q 72 956 72 931 l 72 983 l 503 983 l 503 956 z "},"π":{"ha":828,"x_min":57,"x_max":776,"o":"m 776 649 q 752 627 776 627 l 633 627 q 631 550 632 586 q 630 482 631 515 q 629 419 629 449 q 628 359 628 389 q 635 195 628 257 q 655 100 642 133 q 690 57 669 67 q 741 47 712 47 l 761 47 l 761 20 q 708 -3 761 -3 q 646 8 672 -3 q 601 48 619 19 q 574 123 583 76 q 565 242 565 170 q 572 401 565 303 q 579 627 578 498 l 276 627 q 258 327 274 449 q 216 133 241 206 q 159 27 190 59 q 97 -4 128 -4 q 76 -1 85 -4 q 66 10 66 2 l 66 56 l 79 56 q 120 86 97 56 q 165 185 144 117 q 201 362 185 253 q 218 627 216 471 l 57 627 l 57 654 q 64 672 57 663 q 85 681 71 681 l 776 681 l 776 649 z "},"ρ":{"ha":769,"x_min":105,"x_max":697,"o":"m 171 165 q 266 73 212 103 q 383 43 320 43 q 490 65 444 43 q 566 128 535 88 q 613 225 597 169 q 628 350 628 282 q 611 483 628 427 q 563 577 594 540 q 489 632 532 614 q 395 649 447 649 q 307 632 348 649 q 236 583 266 615 q 188 506 206 551 q 171 402 171 460 l 171 165 m 105 402 q 126 527 105 472 q 185 622 147 583 q 277 681 224 660 q 395 702 331 702 q 514 680 459 702 q 610 614 569 658 q 674 503 651 569 q 697 350 697 438 q 677 209 697 274 q 619 95 657 143 q 525 19 581 47 q 396 -9 469 -9 q 269 20 326 -9 q 171 102 211 50 l 171 -244 l 105 -244 l 105 402 z "},"σ":{"ha":801,"x_min":73,"x_max":781,"o":"m 431 634 q 297 613 352 634 q 207 554 242 592 q 157 462 172 516 q 141 340 141 408 q 158 213 141 268 q 206 120 174 158 q 284 63 238 82 q 389 43 331 43 q 496 64 450 43 q 573 123 542 84 q 619 219 603 163 q 635 347 635 275 q 624 455 635 406 q 591 541 613 503 q 536 602 569 578 q 460 634 503 626 l 431 634 m 781 686 l 781 658 q 775 642 781 650 q 755 634 768 634 l 557 634 q 665 525 628 599 q 702 344 702 451 q 681 201 702 265 q 620 89 660 136 q 523 17 581 42 q 390 -9 465 -9 q 260 15 318 -9 q 160 83 201 38 q 95 193 118 128 q 73 342 73 258 q 95 484 73 420 q 161 592 117 547 q 272 662 205 638 q 431 686 340 686 l 781 686 z "},"ς":{"ha":631,"x_min":71,"x_max":594,"o":"m 577 599 q 570 593 574 595 q 562 590 567 590 q 543 600 555 590 q 511 620 531 609 q 461 641 491 631 q 388 650 431 650 q 282 629 328 650 q 203 571 235 608 q 155 483 172 534 q 139 373 139 433 q 160 248 139 298 q 220 166 182 199 q 309 112 258 133 q 419 72 360 91 q 500 39 469 56 q 547 6 531 23 q 569 -31 564 -12 q 575 -74 575 -51 q 560 -160 575 -121 q 524 -236 546 -199 l 472 -214 q 500 -157 488 -188 q 513 -89 513 -126 q 509 -58 513 -72 q 492 -31 505 -44 q 453 -5 478 -17 q 386 19 428 8 q 262 64 319 39 q 162 127 204 88 q 95 225 119 167 q 71 369 71 283 q 92 500 71 440 q 153 606 113 561 q 251 676 193 651 q 384 702 309 702 q 503 681 451 702 q 594 622 556 659 l 577 599 z "},"τ":{"ha":631,"x_min":26,"x_max":597,"o":"m 597 654 q 572 628 597 628 l 320 628 l 320 173 q 348 79 320 111 q 435 47 376 47 l 483 47 l 483 25 q 466 4 483 12 q 413 -3 448 -3 q 294 42 335 -3 q 254 170 254 88 l 254 628 l 26 628 l 26 658 q 32 674 26 668 q 50 681 38 681 l 597 681 l 597 654 z "},"υ":{"ha":756,"x_min":106,"x_max":664,"o":"m 624 691 q 640 610 632 648 q 652 534 647 572 q 661 458 658 497 q 664 374 664 419 q 640 201 664 274 q 576 81 616 128 q 483 11 535 34 q 372 -11 430 -11 q 261 7 310 -11 q 177 58 212 24 q 125 140 143 92 q 106 249 106 188 l 106 691 l 173 691 l 173 249 q 188 162 173 201 q 228 97 202 124 q 292 56 255 70 q 375 42 329 42 q 456 59 416 42 q 528 116 497 76 q 580 218 560 155 q 599 374 599 282 q 587 520 599 446 q 560 666 575 594 q 565 685 558 680 q 579 691 572 691 l 624 691 z "},"φ":{"ha":963,"x_min":70,"x_max":892,"o":"m 510 42 q 649 67 590 42 q 747 136 708 92 q 806 240 786 180 q 825 370 825 300 q 809 480 825 429 q 766 569 794 531 q 702 630 739 608 q 623 651 665 651 q 538 617 567 651 q 510 508 510 582 l 510 42 m 447 508 q 492 654 447 606 q 623 702 536 702 q 731 676 682 702 q 816 606 781 651 q 872 500 852 561 q 892 370 892 440 q 866 219 892 288 q 792 99 841 149 q 673 20 744 49 q 510 -9 601 -8 l 510 -244 l 447 -244 l 447 -9 q 285 20 356 -8 q 167 97 215 49 q 95 209 119 144 q 70 346 70 273 q 86 462 70 408 q 132 562 102 517 q 204 642 162 607 q 299 699 247 676 l 315 672 q 317 654 320 663 q 307 642 313 644 q 233 591 265 622 q 180 522 201 560 q 148 439 158 483 q 137 346 137 394 q 156 230 137 285 q 213 133 174 175 q 310 67 251 92 q 447 42 368 42 l 447 508 z "},"χ":{"ha":640,"x_min":-1,"x_max":658,"o":"m 658 -201 l 658 -227 q 651 -246 658 -241 q 623 -251 644 -251 q 580 -246 601 -251 q 539 -229 558 -242 q 502 -194 520 -217 q 468 -135 484 -172 l 317 200 q 307 165 313 182 q 296 134 301 148 l 112 -226 q 103 -237 109 -231 q 87 -242 97 -242 l 41 -242 l 287 248 l 142 568 q 123 603 133 588 q 99 627 113 618 q 66 641 85 637 q 21 646 47 646 l -1 646 l -1 671 q 0 681 -1 676 q 3 689 0 685 q 14 694 6 692 q 34 697 21 697 q 135 673 97 697 q 198 595 174 649 l 338 284 q 347 319 342 302 q 359 351 353 337 l 522 674 q 531 685 525 680 q 547 691 537 691 l 592 691 l 367 238 l 527 -114 q 549 -154 538 -137 q 573 -181 560 -170 q 601 -196 585 -191 q 635 -201 616 -201 l 658 -201 z "},"ψ":{"ha":1016,"x_min":103,"x_max":925,"o":"m 885 691 q 901 610 894 648 q 914 534 909 572 q 922 458 919 497 q 925 374 925 419 q 910 250 925 305 q 868 153 895 194 q 806 81 842 111 q 727 32 769 51 q 637 2 684 13 q 542 -10 590 -8 l 542 -244 l 476 -244 l 476 -10 q 323 15 392 -8 q 206 78 255 38 q 130 177 157 119 q 103 310 103 235 l 103 691 l 148 691 q 164 682 158 691 q 169 664 169 673 l 169 310 q 191 204 169 251 q 253 122 213 156 q 350 67 294 87 q 476 42 407 47 l 476 983 l 542 983 l 542 42 q 657 64 600 46 q 758 120 713 82 q 831 221 803 159 q 859 374 859 283 q 855 454 859 416 q 845 528 851 492 q 833 598 840 564 q 819 666 826 632 q 824 685 818 680 q 838 691 831 691 l 885 691 z "},"ω":{"ha":1010,"x_min":74,"x_max":936,"o":"m 833 691 q 873 608 854 650 q 906 521 892 566 q 928 428 920 476 q 936 328 936 381 q 916 180 936 243 q 862 74 896 116 q 783 10 828 31 q 690 -11 739 -11 q 578 24 626 -11 q 505 126 529 59 q 432 24 481 59 q 321 -11 384 -11 q 227 10 272 -11 q 149 74 183 31 q 94 180 115 116 q 74 328 74 243 q 83 428 74 381 q 105 521 91 476 q 138 608 119 566 q 178 691 157 650 l 224 691 q 232 689 227 691 q 239 684 236 688 q 243 674 242 680 q 240 660 244 669 q 202 585 220 625 q 169 502 183 545 q 148 416 156 460 q 140 328 140 372 q 159 188 140 243 q 206 100 178 133 q 267 55 234 68 q 327 42 300 42 q 389 56 362 42 q 434 98 416 71 q 463 163 453 125 q 472 247 472 201 l 472 459 l 538 459 l 538 247 l 539 247 q 549 163 539 201 q 577 98 558 125 q 622 56 595 71 q 683 42 649 42 q 744 55 711 42 q 805 100 776 68 q 852 188 833 133 q 871 328 871 243 q 863 416 871 372 q 841 502 855 460 q 809 585 827 545 q 770 660 791 625 q 767 674 767 669 q 771 684 768 680 q 779 689 774 688 q 788 691 783 691 l 833 691 z "},"΄":{"ha":556,"x_min":256,"x_max":376,"o":"m 256 801 l 312 1022 l 354 1022 q 371 1013 366 1022 q 371 991 376 1004 l 299 801 l 256 801 z "},"΅":{"ha":556,"x_min":99,"x_max":515,"o":"m 256 803 l 311 1023 l 353 1023 q 370 1015 365 1023 q 370 992 376 1006 l 298 803 l 256 803 m 515 878 q 500 843 515 858 q 464 828 484 828 q 428 843 443 828 q 413 878 413 858 q 428 915 413 899 q 464 931 443 931 q 483 926 474 931 q 500 915 492 922 q 511 898 507 908 q 515 878 515 889 m 202 878 q 198 859 202 868 q 186 843 194 850 q 170 833 179 837 q 150 828 160 828 q 114 843 129 828 q 99 878 99 858 q 114 915 99 899 q 150 931 129 931 q 170 926 160 931 q 186 915 179 922 q 198 898 194 908 q 202 878 202 889 z "},"ʹ":{"ha":274,"x_min":73,"x_max":190,"o":"m 185 1044 q 189 963 190 1003 q 178 882 188 922 q 150 805 169 842 q 103 735 132 768 l 84 748 q 81 767 73 756 q 109 813 97 790 q 128 862 122 837 q 134 913 134 887 q 123 965 133 938 l 123 1022 q 127 1037 123 1031 q 144 1044 132 1044 l 185 1044 z "},"͵":{"ha":274,"x_min":73,"x_max":190,"o":"m 185 190 q 189 108 190 149 q 178 28 188 67 q 150 -49 169 -12 q 103 -119 132 -86 l 84 -106 q 81 -87 73 -98 q 109 -41 97 -65 q 128 8 122 -17 q 134 58 134 33 q 123 111 133 84 l 123 168 q 127 183 123 176 q 144 190 132 190 l 185 190 z "},"Б":{"ha":845,"x_min":145,"x_max":773,"o":"m 445 57 q 638 114 574 57 q 702 273 702 172 q 639 429 702 376 q 447 481 576 481 l 217 481 l 217 57 l 445 57 m 447 538 q 590 520 528 538 q 692 469 651 503 q 753 388 733 435 q 773 279 773 340 q 751 163 773 215 q 688 75 729 111 q 585 19 646 39 q 445 0 524 0 l 145 0 l 145 983 l 742 983 l 742 926 l 217 926 l 217 538 l 447 538 z "},"Г":{"ha":741,"x_min":145,"x_max":720,"o":"m 720 926 l 217 926 l 217 0 l 145 0 l 145 983 l 720 983 l 720 926 z "},"Ґ":{"ha":741,"x_min":145,"x_max":720,"o":"m 720 926 l 217 926 l 217 0 l 145 0 l 145 983 l 664 983 l 664 1209 l 720 1209 l 720 926 z "},"Д":{"ha":1054,"x_min":10,"x_max":1020,"o":"m 778 57 l 778 926 l 383 926 q 356 574 373 722 q 315 323 338 426 q 261 156 291 219 q 197 57 231 92 l 778 57 m 1020 57 l 1020 -224 q 1014 -240 1020 -234 q 996 -247 1007 -247 l 955 -247 l 955 0 l 76 0 l 76 -224 q 69 -240 76 -234 q 51 -247 63 -247 l 10 -247 l 10 57 l 102 57 q 151 92 127 67 q 197 163 175 117 q 237 278 218 208 q 272 447 256 347 q 298 678 287 546 q 315 983 309 811 l 849 983 l 849 57 l 1020 57 z "},"Ж":{"ha":1394,"x_min":25,"x_max":1369,"o":"m 1369 0 l 1322 0 q 1293 7 1306 0 q 1274 26 1281 15 l 965 420 q 920 460 945 447 q 856 474 896 474 l 731 474 l 731 0 l 663 0 l 663 474 l 538 474 q 473 460 497 474 q 428 420 448 447 l 120 26 q 100 7 113 15 q 72 0 88 0 l 25 0 l 360 438 q 403 483 379 467 q 458 508 426 500 q 408 531 428 515 q 369 572 388 547 l 42 983 l 97 983 q 119 976 108 983 q 136 959 129 970 l 439 581 q 464 555 451 565 q 491 539 477 544 q 519 531 504 533 q 551 529 533 529 l 663 529 l 663 983 l 731 983 l 731 529 l 842 529 q 875 531 860 529 q 903 539 890 533 q 929 555 917 544 q 954 581 942 565 l 1257 959 q 1274 976 1264 970 q 1297 983 1285 983 l 1351 983 l 1024 572 q 985 531 1006 547 q 936 508 965 515 q 991 483 967 500 q 1033 438 1014 466 l 1369 0 z "},"З":{"ha":789,"x_min":45,"x_max":706,"o":"m 88 893 q 209 967 142 942 q 366 992 276 992 q 494 974 437 992 q 591 923 551 956 q 652 845 631 890 q 674 749 674 801 q 661 673 674 708 q 627 610 649 638 q 575 562 605 583 q 510 529 545 542 q 592 492 556 515 q 653 436 628 468 q 692 367 678 405 q 706 287 706 329 q 683 171 706 225 q 616 76 660 117 q 508 13 572 36 q 362 -10 444 -10 q 263 -1 308 -10 q 178 25 217 8 q 107 65 140 42 q 45 119 74 89 l 65 149 q 84 160 73 160 q 101 151 91 160 q 127 131 112 143 q 164 105 142 119 q 214 78 185 90 q 279 58 242 66 q 363 49 316 49 q 480 67 428 49 q 566 115 531 84 q 619 189 601 147 q 638 283 638 232 q 621 367 638 328 q 573 435 605 406 q 495 481 541 465 q 390 498 449 498 l 260 498 l 260 558 l 392 558 q 474 570 435 558 q 542 607 513 583 q 589 665 572 631 q 606 744 606 699 q 590 820 606 785 q 542 880 573 855 q 467 919 512 906 q 368 933 423 933 q 293 927 326 933 q 235 912 260 921 q 191 892 210 903 q 160 872 173 881 q 138 856 147 863 q 122 850 128 850 q 104 862 111 850 l 88 893 z "},"И":{"ha":1049,"x_min":145,"x_max":903,"o":"m 903 983 l 903 0 l 832 0 l 832 807 q 833 852 832 829 q 837 901 834 876 q 817 861 827 879 q 798 828 808 844 l 231 22 q 216 7 225 13 q 197 0 208 0 l 145 0 l 145 983 l 217 983 l 217 176 q 216 131 217 153 q 213 83 215 108 q 231 122 222 104 q 251 155 241 140 l 819 960 q 833 976 824 969 q 851 983 841 983 l 903 983 z "},"К":{"ha":889,"x_min":145,"x_max":869,"o":"m 869 0 l 808 0 q 785 6 794 0 q 767 26 776 13 l 444 425 q 425 447 434 438 q 404 462 415 456 q 378 471 392 468 q 344 474 363 474 l 217 474 l 217 0 l 145 0 l 145 983 l 217 983 l 217 529 l 330 529 q 361 531 347 529 q 389 539 376 533 q 413 553 401 544 q 438 578 425 563 l 746 960 q 763 976 753 970 q 785 983 772 983 l 842 983 l 508 567 q 469 529 490 543 q 423 508 449 515 q 475 484 454 501 q 517 440 497 468 l 869 0 z "},"Л":{"ha":977,"x_min":-7,"x_max":832,"o":"m 832 0 l 760 0 l 760 926 l 365 926 q 341 585 356 731 q 305 336 326 440 q 257 165 283 232 q 198 60 230 99 q 128 7 165 22 q 49 -8 90 -8 q 10 -4 26 -8 q -7 8 -7 0 l -7 52 l 35 52 q 97 66 67 52 q 153 118 126 81 q 203 222 180 156 q 244 391 226 288 q 276 640 263 494 q 298 983 290 785 l 832 983 l 832 0 z "},"Љ":{"ha":1442,"x_min":-7,"x_max":1388,"o":"m 1060 57 q 1253 114 1190 57 q 1317 273 1317 172 q 1254 429 1317 376 q 1062 481 1191 481 l 832 481 l 832 57 l 1060 57 m 1062 538 q 1205 520 1144 538 q 1307 469 1267 503 q 1368 388 1348 435 q 1388 279 1388 340 q 1366 163 1388 215 q 1303 75 1344 111 q 1200 19 1261 39 q 1060 0 1139 0 l 760 0 l 760 926 l 365 926 q 341 585 356 731 q 305 336 326 440 q 257 165 283 232 q 198 60 230 99 q 128 7 165 22 q 49 -8 90 -8 q 10 -4 26 -8 q -7 8 -7 0 l -7 52 l 35 52 q 97 66 67 52 q 153 118 126 81 q 203 222 180 156 q 244 391 226 288 q 276 640 263 494 q 298 983 290 785 l 832 983 l 832 538 l 1062 538 z "},"Њ":{"ha":1515,"x_min":145,"x_max":1460,"o":"m 1133 57 q 1325 114 1261 57 q 1390 273 1390 172 q 1326 429 1390 376 q 1133 481 1263 481 l 903 481 l 903 57 l 1133 57 m 1133 538 q 1277 520 1215 538 q 1379 469 1338 503 q 1440 388 1419 435 q 1460 279 1460 340 q 1438 163 1460 215 q 1375 75 1417 111 q 1272 19 1333 39 q 1133 0 1211 0 l 832 0 l 832 471 l 217 471 l 217 0 l 145 0 l 145 983 l 217 983 l 217 524 l 832 524 l 832 983 l 903 983 l 903 538 l 1133 538 z "},"Ѳ":{"ha":1099,"x_min":81,"x_max":1018,"o":"m 153 476 q 186 297 156 376 q 268 164 216 219 q 392 80 320 109 q 549 51 463 51 q 708 80 636 51 q 831 164 779 109 q 913 297 883 219 q 944 476 942 376 l 153 476 m 943 531 q 907 700 938 625 q 825 826 877 774 q 703 905 774 878 q 549 933 633 933 q 396 905 466 933 q 274 826 326 878 q 191 700 222 774 q 155 531 160 625 l 943 531 m 549 994 q 740 958 653 994 q 888 856 826 922 q 984 698 950 790 q 1018 492 1018 605 q 984 285 1018 378 q 888 127 950 192 q 740 25 826 61 q 549 -10 653 -10 q 359 25 445 -10 q 211 127 273 61 q 115 285 149 192 q 81 492 81 378 q 115 698 81 605 q 211 856 149 790 q 359 958 273 922 q 549 994 445 994 z "},"П":{"ha":1005,"x_min":145,"x_max":859,"o":"m 859 0 l 788 0 l 788 926 l 217 926 l 217 0 l 145 0 l 145 983 l 859 983 l 859 0 z "},"У":{"ha":837,"x_min":23,"x_max":822,"o":"m 822 983 l 419 117 q 384 59 403 83 q 344 20 366 35 q 298 -2 323 5 q 242 -8 272 -8 q 203 -4 220 -8 q 187 8 187 0 l 187 52 l 229 52 q 303 74 271 52 q 360 147 336 96 l 419 275 l 23 983 l 89 983 q 105 978 99 983 q 115 965 111 974 l 422 408 q 452 335 441 372 q 464 372 457 353 q 480 408 471 390 l 736 965 q 746 978 740 973 q 763 983 753 983 l 822 983 z "},"Ѵ":{"ha":944,"x_min":17,"x_max":925,"o":"m 730 876 q 788 958 749 931 q 874 985 826 985 q 911 981 897 985 q 925 969 925 977 l 925 926 l 888 926 q 833 907 858 926 q 794 851 808 887 l 486 0 l 422 0 l 17 983 l 74 983 q 90 977 83 983 q 99 964 96 972 l 433 149 q 445 116 440 133 q 455 80 451 99 q 475 149 463 117 l 730 876 z "},"Ф":{"ha":1050,"x_min":67,"x_max":983,"o":"m 559 178 q 705 206 640 178 q 815 279 769 233 q 886 388 861 326 q 911 520 911 450 q 886 651 911 590 q 815 760 861 713 q 705 834 769 806 q 559 862 640 861 l 559 178 m 491 862 q 345 834 410 861 q 234 760 280 806 q 163 651 188 713 q 138 520 138 590 q 163 388 138 450 q 234 279 188 326 q 345 206 280 233 q 491 178 410 178 l 491 862 m 559 917 q 735 884 657 916 q 869 798 814 852 q 953 672 924 744 q 983 520 983 600 q 969 416 983 466 q 931 321 956 365 q 869 241 906 277 q 785 178 832 204 q 681 137 738 151 q 559 122 624 122 l 559 0 l 491 0 l 491 122 q 314 154 393 122 q 181 240 235 186 q 96 367 126 294 q 67 520 67 439 q 97 672 67 600 q 183 798 127 744 q 316 884 238 852 q 491 917 394 916 l 491 1032 l 559 1032 l 559 917 z "},"Ц":{"ha":1059,"x_min":145,"x_max":1022,"o":"m 1022 57 l 1022 -224 q 1015 -240 1022 -234 q 997 -247 1008 -247 l 956 -247 l 956 0 l 145 0 l 145 983 l 217 983 l 217 57 l 788 57 l 788 983 l 859 983 l 859 57 l 1022 57 z "},"Џ":{"ha":1005,"x_min":145,"x_max":859,"o":"m 859 983 l 859 0 l 535 0 l 535 -224 q 528 -240 535 -234 q 510 -247 522 -247 l 469 -247 l 469 0 l 145 0 l 145 983 l 217 983 l 217 57 l 788 57 l 788 983 l 859 983 z "},"Ч":{"ha":894,"x_min":75,"x_max":748,"o":"m 748 983 l 748 0 l 676 0 l 676 467 q 524 429 599 444 q 383 412 449 415 q 259 420 316 409 q 162 462 203 432 q 98 542 121 492 q 75 666 75 592 l 75 983 l 147 983 l 147 666 q 184 536 147 583 q 291 475 222 490 q 458 473 360 460 q 676 520 556 485 l 676 983 l 748 983 z "},"Ш":{"ha":1481,"x_min":145,"x_max":1335,"o":"m 1335 983 l 1335 0 l 145 0 l 145 983 l 217 983 l 217 57 l 702 57 l 702 983 l 774 983 l 774 57 l 1264 57 l 1264 983 l 1335 983 z "},"Щ":{"ha":1535,"x_min":145,"x_max":1497,"o":"m 1497 57 l 1497 -224 q 1491 -240 1497 -234 q 1473 -247 1484 -247 l 1432 -247 l 1432 0 l 145 0 l 145 983 l 217 983 l 217 57 l 702 57 l 702 983 l 774 983 l 774 57 l 1264 57 l 1264 983 l 1335 983 l 1335 57 l 1497 57 z "},"Ъ":{"ha":991,"x_min":20,"x_max":937,"o":"m 609 57 q 802 114 738 57 q 866 273 866 172 q 803 429 866 376 q 610 481 740 481 l 381 481 l 381 57 l 609 57 m 610 538 q 754 520 692 538 q 856 469 815 503 q 917 388 897 435 q 937 279 937 340 q 915 163 937 215 q 851 75 893 111 q 749 19 810 39 q 609 0 688 0 l 309 0 l 309 924 l 20 924 l 20 983 l 381 983 l 381 538 l 610 538 z "},"Ы":{"ha":1216,"x_min":145,"x_max":1070,"o":"m 445 57 q 638 114 574 57 q 702 273 702 172 q 639 429 702 376 q 447 481 576 481 l 217 481 l 217 57 l 445 57 m 447 538 q 590 520 528 538 q 692 469 651 503 q 753 388 733 435 q 773 279 773 340 q 751 163 773 215 q 688 75 729 111 q 585 19 646 39 q 445 0 524 0 l 145 0 l 145 983 l 217 983 l 217 538 l 447 538 m 1070 0 l 999 0 l 999 983 l 1070 983 l 1070 0 z "},"Ь":{"ha":827,"x_min":145,"x_max":773,"o":"m 445 57 q 638 114 574 57 q 702 273 702 172 q 639 429 702 376 q 447 481 576 481 l 217 481 l 217 57 l 445 57 m 447 538 q 590 520 528 538 q 692 469 651 503 q 753 388 733 435 q 773 279 773 340 q 751 163 773 215 q 688 75 729 111 q 585 19 646 39 q 445 0 524 0 l 145 0 l 145 983 l 217 983 l 217 538 l 447 538 z "},"Э":{"ha":950,"x_min":56,"x_max":869,"o":"m 74 874 q 215 963 138 931 q 394 994 293 994 q 587 957 499 994 q 737 855 674 921 q 835 696 800 788 q 869 492 869 603 q 835 285 869 378 q 741 126 801 192 q 595 25 680 60 q 408 -11 510 -11 q 295 -1 347 -11 q 202 27 244 9 q 123 72 159 46 q 56 131 87 98 l 84 160 q 96 165 89 165 q 103 164 100 165 q 110 159 106 162 q 169 112 139 132 q 233 78 199 92 q 309 57 268 64 q 403 50 351 50 q 556 79 485 50 q 680 163 627 108 q 764 297 733 217 q 797 476 794 376 l 251 476 l 251 531 l 795 531 q 758 699 790 624 q 674 825 726 774 q 550 905 621 877 q 394 933 478 933 q 275 917 324 933 q 192 884 226 902 q 140 850 159 865 q 113 835 121 835 q 96 843 101 835 l 74 874 z "},"Є":{"ha":951,"x_min":81,"x_max":894,"o":"m 854 165 q 866 160 861 165 l 894 131 q 827 72 863 98 q 749 27 792 46 q 655 -1 706 9 q 543 -11 604 -11 q 356 25 441 -11 q 210 126 271 60 q 115 285 149 192 q 81 492 81 378 q 116 696 81 603 q 213 855 151 788 q 363 957 276 921 q 556 994 451 994 q 735 963 657 994 q 876 874 813 931 l 855 843 q 838 835 849 835 q 810 850 829 835 q 758 884 792 865 q 675 917 725 902 q 556 933 626 933 q 400 905 472 933 q 276 825 329 877 q 192 699 224 774 q 155 531 160 624 l 699 531 l 699 476 l 153 476 q 187 297 156 376 q 270 163 218 217 q 394 79 323 108 q 547 50 465 50 q 641 57 599 50 q 717 78 682 64 q 781 112 751 92 q 840 159 811 132 q 847 164 844 162 q 854 165 851 165 z "},"Ю":{"ha":1413,"x_min":145,"x_max":1329,"o":"m 901 51 q 1045 81 980 51 q 1158 168 1111 111 q 1231 306 1205 224 q 1256 492 1256 388 q 1231 676 1256 594 q 1158 816 1205 758 q 1045 903 1111 873 q 901 934 980 934 q 756 903 822 934 q 643 816 690 873 q 571 676 597 758 q 545 492 545 594 q 571 306 545 388 q 643 168 597 224 q 756 81 690 111 q 901 51 822 51 m 473 522 q 510 716 477 628 q 599 865 542 803 q 732 960 655 926 q 901 994 808 994 q 1075 958 996 994 q 1210 856 1153 922 q 1298 698 1267 790 q 1329 492 1329 605 q 1298 285 1329 378 q 1210 127 1267 193 q 1075 26 1153 62 q 901 -9 996 -9 q 731 24 808 -9 q 598 119 654 58 q 509 269 542 181 q 473 465 476 356 l 217 465 l 217 0 l 145 0 l 145 983 l 217 983 l 217 522 l 473 522 z "},"Я":{"ha":900,"x_min":6,"x_max":755,"o":"m 683 501 l 683 926 l 453 926 q 260 871 324 926 q 196 715 196 816 q 259 556 196 611 q 452 501 322 501 l 683 501 m 755 0 l 683 0 l 683 444 l 508 444 q 471 441 488 444 q 438 430 454 438 q 404 407 421 422 q 369 368 388 392 l 106 26 q 87 7 99 15 q 59 0 75 0 l 6 0 l 295 376 q 340 424 317 406 q 388 454 363 443 q 274 482 323 461 q 192 537 224 503 q 142 615 159 570 q 126 715 126 660 q 147 827 126 777 q 210 911 169 876 q 313 964 252 946 q 453 983 374 983 l 755 983 l 755 0 z "},"Ђ":{"ha":1006,"x_min":18,"x_max":956,"o":"m 630 538 q 773 520 712 538 q 875 469 835 503 q 936 388 916 435 q 956 279 956 340 q 935 163 956 215 q 872 75 913 111 q 769 19 830 39 q 629 0 708 0 l 555 0 l 555 57 l 629 57 q 822 114 758 57 q 886 273 886 172 q 823 429 886 376 q 630 481 760 481 l 383 481 l 383 0 l 312 0 l 312 924 l 18 924 l 18 983 l 728 983 l 728 924 l 383 924 l 383 538 l 630 538 z "},"Ћ":{"ha":1019,"x_min":18,"x_max":944,"o":"m 383 534 q 531 571 460 556 q 665 588 603 585 q 779 579 728 590 q 867 538 831 567 q 924 458 904 508 q 944 334 944 408 l 944 0 l 873 0 l 873 334 q 840 464 873 417 q 743 526 806 510 q 589 528 680 541 q 383 481 498 515 l 383 0 l 312 0 l 312 924 l 18 924 l 18 983 l 728 983 l 728 924 l 383 924 l 383 534 z "},"Ѣ":{"ha":990,"x_min":44,"x_max":935,"o":"m 608 57 q 801 114 737 57 q 865 273 865 172 q 801 429 865 376 q 609 481 738 481 l 379 481 l 379 57 l 608 57 m 609 538 q 752 520 691 538 q 855 469 814 503 q 915 388 895 435 q 935 279 935 340 q 914 163 935 215 q 850 75 892 111 q 747 19 808 39 q 608 0 686 0 l 308 0 l 308 757 l 44 757 l 44 812 l 308 812 l 308 983 l 379 983 l 379 812 l 703 812 l 703 757 l 379 757 l 379 538 l 609 538 z "},"б":{"ha":803,"x_min":94,"x_max":730,"o":"m 410 40 q 519 61 472 40 q 598 119 566 81 q 645 209 629 156 q 662 328 662 263 q 647 447 662 394 q 601 539 631 501 q 525 597 570 576 q 420 617 480 617 q 317 600 364 617 q 237 548 271 582 q 185 466 203 515 q 166 357 166 418 q 182 226 166 285 q 229 127 198 168 q 305 63 260 85 q 410 40 351 40 m 456 903 q 323 865 378 895 q 230 782 267 834 q 174 655 192 729 q 153 485 155 581 q 195 562 168 528 q 260 619 223 596 q 341 655 297 642 q 434 667 385 667 q 559 643 503 667 q 652 574 614 619 q 710 467 690 530 q 730 328 730 405 q 708 190 730 252 q 644 83 685 128 q 543 15 602 39 q 410 -9 483 -9 q 289 13 346 -9 q 188 87 231 35 q 120 226 145 139 q 94 442 94 313 q 115 648 94 556 q 179 807 135 740 q 290 914 222 874 q 451 963 357 953 l 699 989 l 703 956 q 699 935 704 943 q 682 926 694 928 l 456 903 z "},"в":{"ha":679,"x_min":114,"x_max":610,"o":"m 358 47 q 438 58 402 47 q 497 88 473 68 q 535 135 522 107 q 548 197 548 163 q 538 253 548 228 q 505 298 527 279 q 446 326 482 316 q 360 336 410 336 l 178 336 l 178 47 l 358 47 m 178 645 l 178 381 l 342 381 q 411 391 379 381 q 466 419 443 401 q 502 464 489 438 q 515 522 515 490 q 506 568 515 546 q 477 607 497 590 q 423 635 456 624 q 342 645 390 645 l 178 645 m 344 691 q 450 678 406 691 q 521 643 494 665 q 560 592 548 622 q 573 531 573 563 q 566 483 573 508 q 542 434 559 458 q 498 392 526 410 q 427 364 469 373 q 565 308 521 353 q 610 196 610 263 q 591 113 610 149 q 540 51 573 76 q 461 13 507 26 q 359 0 415 0 l 114 0 l 114 691 l 344 691 z "},"г":{"ha":561,"x_min":114,"x_max":538,"o":"m 538 640 l 181 640 l 181 0 l 114 0 l 114 691 l 538 691 l 538 640 z "},"ґ":{"ha":561,"x_min":114,"x_max":538,"o":"m 538 869 l 538 640 l 181 640 l 181 0 l 114 0 l 114 691 l 478 691 l 478 869 l 538 869 z "},"д":{"ha":832,"x_min":20,"x_max":800,"o":"m 609 49 l 609 638 l 330 638 q 307 399 322 500 q 270 228 291 299 q 224 115 249 158 q 174 49 199 72 l 609 49 m 800 51 l 800 -224 q 779 -247 800 -247 l 741 -247 l 741 0 l 79 0 l 79 -227 q 75 -241 79 -235 q 61 -247 70 -247 l 20 -247 l 20 49 l 47 49 q 97 60 72 49 q 145 97 122 70 q 189 170 168 124 q 226 287 210 216 q 256 458 243 358 q 274 691 268 557 l 674 691 l 674 51 l 800 51 z "},"ж":{"ha":1045,"x_min":25,"x_max":1020,"o":"m 1020 0 l 974 0 q 945 6 956 0 q 928 24 935 11 l 754 269 q 706 313 734 298 q 642 328 677 328 l 555 328 l 555 -1 l 490 -1 l 490 328 l 403 328 q 340 313 368 328 q 291 269 311 298 l 116 24 q 100 6 110 11 q 71 0 89 0 l 25 0 l 231 288 q 274 333 251 316 q 330 358 297 350 q 284 381 303 365 q 249 419 265 397 l 46 691 l 97 691 q 131 672 119 691 l 314 426 q 357 388 331 401 q 413 374 383 374 l 490 374 l 490 692 l 555 692 l 555 374 l 632 374 q 688 388 661 374 q 731 426 714 401 l 915 672 q 948 691 926 691 l 999 691 l 796 419 q 761 381 780 397 q 715 358 742 365 q 771 333 748 350 q 814 288 794 316 l 1020 0 z "},"з":{"ha":620,"x_min":53,"x_max":548,"o":"m 66 626 q 157 681 103 660 q 285 702 212 702 q 392 687 347 702 q 469 647 438 672 q 514 591 499 622 q 529 528 529 560 q 521 482 529 506 q 495 436 513 458 q 449 397 478 415 q 378 369 420 379 q 505 305 462 352 q 548 193 548 258 q 528 111 548 148 q 472 47 508 74 q 390 6 437 20 q 288 -9 342 -9 q 215 -2 250 -9 q 149 19 179 6 q 93 50 118 32 q 53 89 69 68 l 70 111 q 84 118 76 118 q 106 106 92 118 q 143 81 119 94 q 200 55 166 67 q 284 43 235 43 q 367 55 330 43 q 430 86 403 66 q 470 135 456 107 q 485 198 485 164 q 471 257 485 230 q 431 302 458 283 q 365 332 404 322 q 274 343 325 343 l 196 343 l 196 389 l 274 389 q 355 399 318 389 q 416 427 391 409 q 456 468 442 444 q 469 521 469 492 q 458 569 469 546 q 424 610 447 592 q 366 639 401 628 q 283 650 331 650 q 205 641 238 650 q 151 621 172 632 q 116 601 129 610 q 97 592 103 592 q 88 594 92 592 q 81 601 85 596 l 66 626 z "},"и":{"ha":787,"x_min":114,"x_max":673,"o":"m 673 691 l 673 0 l 607 0 l 607 557 q 608 578 607 567 q 610 600 608 589 q 600 582 605 590 q 591 568 596 574 q 572 542 590 567 q 524 478 553 517 q 457 390 494 440 q 382 290 420 341 q 177 17 292 169 q 166 5 173 10 q 152 0 160 0 l 114 0 l 114 691 l 181 691 l 181 134 q 180 113 181 124 q 178 91 179 102 q 187 109 182 101 q 196 123 192 117 q 215 149 197 124 q 263 212 233 173 q 329 301 292 251 q 405 401 366 350 q 610 674 495 522 q 620 686 614 681 q 635 691 627 691 l 673 691 z "},"к":{"ha":675,"x_min":114,"x_max":650,"o":"m 543 672 q 558 685 549 680 q 578 691 567 691 l 628 691 l 426 419 q 391 381 410 397 q 344 357 372 365 q 401 333 377 350 q 444 288 424 316 l 650 0 l 603 0 q 575 6 585 0 q 557 24 565 12 l 382 269 q 334 313 362 298 q 270 328 306 328 l 181 328 l 181 -1 l 114 -1 l 114 691 l 181 691 l 181 374 l 260 374 q 316 388 290 374 q 359 426 342 401 l 543 672 z "},"л":{"ha":791,"x_min":-3,"x_max":677,"o":"m 677 0 l 610 0 l 610 638 l 331 638 q 308 400 324 501 q 269 227 292 299 q 219 110 247 156 q 161 38 192 64 q 100 1 131 11 q 38 -8 69 -8 q 9 -6 22 -8 q -3 3 -3 -3 l -3 45 l 27 45 q 78 55 52 45 q 130 92 104 65 q 179 164 156 118 q 222 282 203 210 q 255 454 241 353 q 276 691 269 555 l 677 691 l 677 0 z "},"љ":{"ha":1153,"x_min":-3,"x_max":1101,"o":"m 858 49 q 940 61 905 49 q 997 93 974 72 q 1031 141 1019 113 q 1042 203 1042 169 q 1032 260 1042 233 q 1001 308 1023 288 q 943 340 979 328 q 854 351 907 351 l 677 351 l 677 49 l 858 49 m 854 401 q 973 384 925 401 q 1049 340 1020 367 q 1089 277 1077 313 q 1101 204 1101 242 q 1086 123 1101 160 q 1040 58 1070 85 q 964 15 1009 31 q 858 0 918 0 l 610 0 l 610 638 l 331 638 q 308 400 324 501 q 269 227 292 299 q 219 110 247 156 q 161 38 192 64 q 100 1 131 11 q 38 -8 69 -8 q 9 -6 22 -8 q -3 3 -3 -3 l -3 45 l 27 45 q 78 55 52 45 q 130 92 104 65 q 179 164 156 118 q 222 282 203 210 q 255 454 241 353 q 276 691 269 555 l 677 691 l 677 401 l 854 401 z "},"м":{"ha":962,"x_min":114,"x_max":847,"o":"m 847 694 l 847 0 l 788 0 l 788 557 q 790 582 788 569 q 793 608 791 596 l 508 131 q 500 121 505 125 q 488 117 495 117 l 481 117 q 469 121 474 117 q 460 131 464 125 l 168 609 q 172 583 171 597 q 173 557 173 569 l 173 0 l 114 0 l 114 694 l 163 694 q 176 691 169 694 q 188 679 183 688 l 468 228 q 485 192 477 212 q 501 228 491 210 l 774 679 q 786 692 779 689 q 800 694 792 694 l 847 694 z "},"н":{"ha":772,"x_min":114,"x_max":658,"o":"m 658 691 l 658 0 l 591 0 l 591 347 l 181 347 l 181 0 l 114 0 l 114 691 l 181 691 l 181 397 l 591 397 l 591 691 l 658 691 z "},"њ":{"ha":1135,"x_min":114,"x_max":1082,"o":"m 838 49 q 920 61 885 49 q 977 93 955 72 q 1011 141 1000 113 q 1022 203 1022 169 q 1013 260 1022 233 q 982 308 1003 288 q 924 340 960 328 q 835 351 888 351 l 658 351 l 658 49 l 838 49 m 835 401 q 953 384 906 401 q 1029 340 1001 367 q 1070 277 1058 313 q 1082 204 1082 242 q 1066 123 1082 160 q 1020 58 1051 85 q 944 15 990 31 q 838 0 899 0 l 591 0 l 591 347 l 181 347 l 181 0 l 114 0 l 114 691 l 181 691 l 181 397 l 591 397 l 591 691 l 658 691 l 658 401 l 835 401 z "},"ѳ":{"ha":775,"x_min":72,"x_max":702,"o":"m 138 324 q 157 206 140 258 q 206 118 174 154 q 283 61 238 81 q 388 42 328 42 q 492 61 447 42 q 569 118 538 81 q 617 206 600 154 q 637 324 635 258 l 138 324 m 637 369 q 617 486 634 434 q 569 575 600 538 q 492 632 538 612 q 388 651 447 651 q 283 632 328 651 q 206 575 238 612 q 157 486 174 538 q 138 369 140 434 l 637 369 m 388 702 q 520 677 462 702 q 619 605 579 651 q 681 493 660 558 q 702 346 702 427 q 681 199 702 265 q 619 88 660 134 q 520 16 579 41 q 388 -9 462 -9 q 255 16 313 -9 q 155 88 196 41 q 93 199 115 134 q 72 346 72 265 q 93 493 72 427 q 155 605 115 558 q 255 677 196 651 q 388 702 313 702 z "},"п":{"ha":772,"x_min":114,"x_max":658,"o":"m 658 0 l 591 0 l 591 640 l 181 640 l 181 0 l 114 0 l 114 691 l 658 691 l 658 0 z "},"т":{"ha":689,"x_min":22,"x_max":667,"o":"m 667 640 l 378 640 l 378 0 l 311 0 l 311 640 l 22 640 l 22 691 l 667 691 l 667 640 z "},"ѵ":{"ha":729,"x_min":26,"x_max":700,"o":"m 536 597 q 561 649 547 629 q 591 680 575 669 q 624 694 607 690 q 660 697 642 697 q 691 693 683 697 q 700 686 700 690 l 700 649 l 681 649 q 628 635 648 649 q 595 587 608 620 l 370 0 l 312 0 l 26 691 l 78 691 q 94 686 88 691 q 103 674 101 681 l 325 129 q 335 98 331 113 q 342 67 339 83 q 350 98 346 83 q 359 129 353 113 l 536 597 z "},"ф":{"ha":935,"x_min":71,"x_max":864,"o":"m 499 42 q 631 67 574 44 q 724 129 687 90 q 780 224 761 169 q 798 346 798 278 q 780 468 798 413 q 724 563 761 524 q 631 626 687 603 q 499 651 574 649 l 499 644 l 497 612 l 497 82 l 499 57 l 499 42 m 436 651 q 304 626 360 649 q 211 563 248 603 q 155 468 174 524 q 137 346 137 413 q 155 224 137 278 q 211 129 174 169 q 304 67 248 90 q 436 42 360 44 l 436 57 l 438 80 l 438 612 l 436 631 l 436 651 m 499 702 q 655 673 587 699 q 770 600 724 647 q 840 490 816 554 q 864 346 864 425 q 840 202 864 267 q 770 92 816 138 q 655 20 724 46 q 499 -9 587 -6 l 499 -247 l 436 -247 l 436 -9 q 279 20 347 -6 q 165 92 211 46 q 95 202 119 138 q 71 346 71 267 q 95 490 71 425 q 165 600 119 554 q 279 673 211 647 q 436 702 347 699 l 436 983 l 499 983 l 499 702 z "},"ц":{"ha":816,"x_min":114,"x_max":784,"o":"m 784 51 l 784 -224 q 778 -241 784 -235 q 763 -247 773 -247 l 724 -247 l 724 0 l 114 0 l 114 691 l 181 691 l 181 51 l 591 51 l 591 691 l 658 691 l 658 51 l 784 51 z "},"џ":{"ha":772,"x_min":114,"x_max":658,"o":"m 658 691 l 658 0 l 415 0 l 415 -224 q 394 -247 415 -247 l 356 -247 l 356 0 l 114 0 l 114 691 l 181 691 l 181 51 l 591 51 l 591 691 l 658 691 z "},"ч":{"ha":694,"x_min":67,"x_max":580,"o":"m 580 691 l 580 0 l 514 0 l 514 322 q 400 295 456 306 q 294 284 344 285 q 203 291 244 283 q 131 322 161 300 q 84 378 101 343 q 67 465 67 413 l 67 691 l 133 691 l 133 474 q 162 382 133 414 q 241 340 190 350 q 361 338 292 329 q 514 369 431 347 l 514 691 l 580 691 z "},"ш":{"ha":1127,"x_min":114,"x_max":1013,"o":"m 1013 691 l 1013 0 l 114 0 l 114 691 l 181 691 l 181 51 l 531 51 l 531 691 l 597 691 l 597 51 l 947 51 l 947 691 l 1013 691 z "},"щ":{"ha":1172,"x_min":114,"x_max":1140,"o":"m 1140 51 l 1140 -224 q 1119 -247 1140 -247 l 1081 -247 l 1081 0 l 114 0 l 114 691 l 181 691 l 181 51 l 531 51 l 531 691 l 597 691 l 597 51 l 947 51 l 947 691 l 1013 691 l 1013 51 l 1140 51 z "},"ъ":{"ha":795,"x_min":22,"x_max":744,"o":"m 499 49 q 581 61 547 49 q 639 93 616 72 q 673 141 662 113 q 684 203 684 169 q 675 260 684 233 q 643 308 665 288 q 585 340 622 328 q 497 351 549 351 l 318 351 l 318 49 l 499 49 m 496 401 q 615 384 567 401 q 691 340 663 367 q 732 277 719 313 q 744 204 744 242 q 728 123 744 160 q 682 58 713 85 q 605 15 651 31 q 499 0 560 0 l 255 0 l 255 639 l 22 639 l 22 691 l 318 691 l 318 401 l 496 401 z "},"ы":{"ha":968,"x_min":114,"x_max":854,"o":"m 358 49 q 440 61 406 49 q 498 93 475 72 q 532 141 521 113 q 543 203 543 169 q 534 260 543 233 q 502 308 524 288 q 444 340 481 328 q 356 351 408 351 l 178 351 l 178 49 l 358 49 m 356 401 q 474 384 426 401 q 550 340 522 367 q 591 277 578 313 q 603 204 603 242 q 587 123 603 160 q 541 58 572 85 q 464 15 510 31 q 359 0 419 0 l 114 0 l 114 691 l 178 691 l 178 401 l 356 401 m 854 691 l 854 0 l 788 0 l 788 691 l 854 691 z "},"ь":{"ha":655,"x_min":114,"x_max":603,"o":"m 358 49 q 440 61 406 49 q 498 93 475 72 q 532 141 521 113 q 543 203 543 169 q 534 260 543 233 q 502 308 524 288 q 444 340 481 328 q 356 351 408 351 l 178 351 l 178 49 l 358 49 m 356 401 q 474 384 426 401 q 550 340 522 367 q 591 277 578 313 q 603 204 603 242 q 587 123 603 160 q 541 58 572 85 q 464 15 510 31 q 359 0 419 0 l 114 0 l 114 691 l 178 691 l 178 401 l 356 401 z "},"э":{"ha":662,"x_min":56,"x_max":590,"o":"m 66 622 q 157 681 105 659 q 276 702 209 702 q 409 676 351 702 q 508 603 467 650 q 569 490 548 556 q 590 346 590 425 q 568 196 590 262 q 507 84 546 130 q 413 15 467 39 q 292 -9 358 -9 q 218 -2 253 -9 q 151 19 182 6 q 97 50 121 32 q 56 89 72 68 l 73 110 q 87 117 78 117 q 107 105 94 117 q 142 80 120 94 q 198 55 165 66 q 282 43 232 43 q 378 62 335 43 q 454 117 422 81 q 503 207 485 153 q 524 329 522 260 l 153 329 l 153 377 l 523 377 q 501 491 519 440 q 451 577 483 542 q 374 631 419 613 q 273 650 329 650 q 200 641 230 650 q 149 621 169 632 q 117 601 129 610 q 98 592 105 592 q 89 594 92 592 q 83 601 86 597 l 66 622 z "},"є":{"ha":662,"x_min":72,"x_max":606,"o":"m 579 601 q 573 594 576 597 q 564 592 569 592 q 545 601 557 592 q 513 621 533 610 q 462 641 492 632 q 389 650 432 650 q 288 631 333 650 q 211 576 243 612 q 161 491 179 541 q 139 377 142 440 l 508 377 l 508 329 l 138 329 q 158 207 140 260 q 208 117 176 153 q 283 62 240 81 q 380 43 327 43 q 464 55 430 43 q 519 80 497 66 q 554 105 542 94 q 575 117 567 117 q 589 110 583 117 l 606 89 q 565 50 590 68 q 510 19 541 32 q 444 -2 480 6 q 369 -9 408 -9 q 249 15 303 -9 q 155 84 194 39 q 94 196 116 130 q 72 346 72 262 q 93 490 72 425 q 154 603 114 556 q 252 676 194 650 q 385 702 310 702 q 505 681 453 702 q 596 622 557 659 l 579 601 z "},"ю":{"ha":1053,"x_min":114,"x_max":980,"o":"m 683 43 q 783 64 740 43 q 855 125 826 85 q 898 220 883 165 q 912 346 912 276 q 898 471 912 415 q 855 567 883 527 q 783 628 826 607 q 683 650 740 650 q 582 628 625 650 q 510 567 539 607 q 467 471 481 527 q 453 346 453 415 q 467 220 453 276 q 510 125 481 165 q 582 64 539 85 q 683 43 625 43 m 388 372 q 412 508 390 447 q 471 613 433 569 q 562 679 508 656 q 683 702 615 702 q 808 677 753 702 q 901 605 863 651 q 960 493 940 558 q 980 346 980 427 q 959 199 980 265 q 901 88 939 134 q 807 16 863 41 q 683 -9 752 -9 q 561 14 615 -9 q 469 81 507 38 q 411 185 432 124 q 388 322 390 246 l 181 322 l 181 0 l 114 0 l 114 691 l 181 691 l 181 372 l 388 372 z "},"я":{"ha":660,"x_min":22,"x_max":547,"o":"m 482 354 l 482 645 l 334 645 q 252 631 285 645 q 199 596 219 617 q 170 548 178 574 q 161 496 161 522 q 175 436 161 463 q 214 392 188 410 q 276 364 240 374 q 359 354 313 354 l 482 354 m 547 691 l 547 0 l 482 0 l 482 310 l 399 310 q 369 308 381 310 q 348 301 357 306 q 331 289 338 297 q 315 271 323 282 l 113 24 q 95 6 106 12 q 67 0 85 0 l 22 0 l 256 283 q 306 324 274 313 q 209 344 249 328 q 144 384 169 360 q 107 438 119 408 q 96 502 96 468 q 108 569 96 535 q 149 630 121 603 q 222 674 177 657 q 332 691 267 691 l 547 691 z "},"ђ":{"ha":748,"x_min":-28,"x_max":667,"o":"m 180 520 q 290 614 228 579 q 427 649 351 649 q 531 629 486 649 q 606 572 576 609 q 651 481 636 534 q 667 361 667 428 q 653 199 667 277 q 614 48 640 122 q 551 -95 589 -25 q 466 -235 514 -166 l 413 -212 q 491 -82 456 -148 q 549 55 525 -16 q 587 201 574 125 q 600 361 600 276 q 551 534 600 472 q 410 596 502 596 q 284 561 342 596 q 180 465 226 526 l 180 0 l 114 0 l 114 781 l -28 781 l -28 833 l 114 833 l 114 1010 l 180 1010 l 180 833 l 453 833 l 453 781 l 180 781 l 180 520 z "},"ѣ":{"ha":772,"x_min":23,"x_max":724,"o":"m 481 49 q 563 61 528 49 q 620 93 597 72 q 653 141 642 113 q 665 203 665 169 q 655 260 665 233 q 624 308 646 288 q 566 340 602 328 q 477 351 530 351 l 285 351 l 285 49 l 481 49 m 477 401 q 595 384 548 401 q 672 340 643 367 q 712 277 700 313 q 724 204 724 242 q 709 123 724 160 q 663 58 693 85 q 586 15 632 31 q 481 0 541 0 l 222 0 l 222 638 l 23 638 l 23 691 l 222 691 l 222 903 l 285 903 l 285 691 l 521 691 l 521 638 l 285 638 l 285 401 l 477 401 z "},"!":{"ha":353,"x_min":111,"x_max":240,"o":"m 210 983 l 210 585 q 209 526 210 554 q 207 470 208 499 q 204 409 206 441 q 200 338 202 377 l 155 338 q 151 409 153 377 q 148 470 149 441 q 146 526 147 499 q 145 585 145 554 l 145 983 l 210 983 m 111 53 q 116 78 111 67 q 130 99 121 90 q 150 113 138 108 q 175 118 161 118 q 200 113 188 118 q 220 99 212 108 q 234 78 229 90 q 240 53 240 67 q 234 28 240 40 q 220 8 229 17 q 200 -6 212 -1 q 175 -10 188 -10 q 130 8 148 -10 q 111 53 111 26 z "},"?":{"ha":600,"x_min":65,"x_max":531,"o":"m 65 897 q 108 933 84 916 q 159 964 131 951 q 221 986 188 978 q 293 994 254 994 q 384 979 341 994 q 460 938 428 965 q 511 871 492 910 q 531 783 531 832 q 514 692 531 731 q 473 625 498 654 q 419 575 448 597 q 364 534 390 553 q 320 495 338 515 q 301 452 303 476 l 294 338 l 249 338 l 244 457 q 259 508 243 486 q 300 551 275 531 q 354 592 325 571 q 409 639 383 613 q 451 699 434 665 q 468 781 468 733 q 453 848 468 818 q 414 898 439 877 q 356 929 389 918 q 288 940 324 940 q 209 927 242 940 q 152 900 175 915 q 116 873 129 885 q 98 861 103 861 q 83 869 88 861 l 65 897 m 206 53 q 210 78 206 67 q 224 99 215 90 q 244 113 233 108 q 269 118 256 118 q 294 113 283 118 q 315 99 306 108 q 329 78 324 90 q 334 53 334 67 q 329 28 334 40 q 315 8 324 17 q 294 -6 306 -1 q 269 -10 283 -10 q 224 8 242 -10 q 206 53 206 26 z "},"‽":{"ha":636,"x_min":77,"x_max":569,"o":"m 278 118 q 303 113 291 118 q 323 99 315 108 q 337 78 332 90 q 342 53 342 67 q 337 28 342 40 q 323 8 332 17 q 303 -6 315 -1 q 278 -10 291 -10 q 232 8 251 -10 q 214 53 214 26 q 219 78 214 67 q 232 99 224 90 q 252 113 241 108 q 278 118 264 118 m 243 958 q 335 972 285 972 q 429 958 386 972 q 503 919 472 944 q 552 856 535 893 q 569 772 569 818 q 558 702 569 732 q 526 648 546 672 q 482 606 507 624 q 431 573 457 588 q 380 544 405 558 q 334 516 354 531 q 301 486 314 502 q 286 450 288 470 l 301 317 l 260 317 q 228 426 244 371 q 196 538 212 481 l 77 974 l 139 990 l 241 592 q 250 557 244 581 q 260 505 255 533 q 298 546 274 528 q 350 582 322 565 q 405 617 377 599 q 456 657 433 635 q 493 706 479 678 q 508 769 508 733 q 495 828 508 801 q 460 875 483 856 q 404 906 437 895 q 331 917 372 917 q 290 914 305 917 q 270 911 275 911 q 252 923 255 911 l 243 958 z "},",":{"ha":304,"x_min":92,"x_max":215,"o":"m 100 -165 q 95 -160 97 -162 q 94 -153 94 -157 q 100 -142 94 -149 q 117 -122 106 -135 q 139 -90 128 -108 q 160 -49 151 -72 q 172 1 169 -26 q 151 -3 162 -3 q 109 15 125 -3 q 92 59 92 32 q 109 101 92 83 q 153 118 126 118 q 199 98 183 118 q 215 44 215 77 q 208 -14 215 15 q 187 -72 201 -44 q 153 -127 173 -101 q 110 -176 134 -153 l 100 -165 z "},";":{"ha":349,"x_min":110,"x_max":238,"o":"m 121 -165 q 116 -160 117 -162 q 115 -153 115 -157 q 121 -142 115 -149 q 138 -122 127 -135 q 160 -90 149 -108 q 181 -49 172 -72 q 193 1 190 -26 q 172 -3 183 -3 q 130 15 146 -3 q 113 59 113 32 q 130 101 113 83 q 174 118 147 118 q 220 98 203 118 q 236 44 236 77 q 229 -14 236 15 q 208 -72 222 -44 q 174 -127 194 -101 q 131 -176 155 -153 l 121 -165 m 110 607 q 115 632 110 620 q 128 652 119 644 q 148 666 137 661 q 174 672 160 672 q 199 666 187 672 q 219 652 210 661 q 233 632 228 644 q 238 607 238 620 q 233 582 238 593 q 219 561 228 570 q 199 548 210 553 q 174 543 187 543 q 128 561 147 543 q 110 607 110 580 z "},":":{"ha":333,"x_min":102,"x_max":231,"o":"m 102 53 q 107 78 102 67 q 120 99 112 90 q 141 113 129 108 q 166 118 152 118 q 191 113 179 118 q 211 99 203 108 q 225 78 220 90 q 231 53 231 67 q 225 28 231 40 q 211 8 220 17 q 191 -6 203 -1 q 166 -10 179 -10 q 120 8 139 -10 q 102 53 102 26 m 102 607 q 107 632 102 620 q 120 652 112 644 q 141 666 129 661 q 166 672 152 672 q 191 666 179 672 q 211 652 203 661 q 225 632 220 644 q 231 607 231 620 q 225 582 231 593 q 211 561 220 570 q 191 548 203 553 q 166 543 179 543 q 120 561 139 543 q 102 607 102 580 z "},".":{"ha":324,"x_min":98,"x_max":226,"o":"m 98 53 q 103 78 98 67 q 116 99 108 90 q 136 113 125 108 q 162 118 148 118 q 187 113 175 118 q 207 99 199 108 q 221 78 216 90 q 226 53 226 67 q 221 28 226 40 q 207 8 216 17 q 187 -6 199 -1 q 162 -10 175 -10 q 116 8 135 -10 q 98 53 98 26 z "},"…":{"ha":1006,"x_min":98,"x_max":908,"o":"m 98 53 q 103 78 98 67 q 116 99 108 90 q 136 113 125 108 q 162 118 148 118 q 187 113 175 118 q 207 99 199 108 q 221 78 216 90 q 226 53 226 67 q 221 28 226 40 q 207 8 216 17 q 187 -6 199 -1 q 162 -10 175 -10 q 116 8 135 -10 q 98 53 98 26 m 779 53 q 784 78 779 67 q 798 99 789 90 q 818 113 806 108 q 843 118 829 118 q 868 113 856 118 q 889 99 880 108 q 902 78 897 90 q 908 53 908 67 q 902 28 908 40 q 889 8 897 17 q 868 -6 880 -1 q 843 -10 856 -10 q 798 8 816 -10 q 779 53 779 26 m 438 53 q 443 78 438 67 q 457 99 448 90 q 477 113 465 108 q 502 118 488 118 q 527 113 515 118 q 548 99 539 108 q 561 78 556 90 q 567 53 567 67 q 561 28 567 40 q 548 8 556 17 q 527 -6 539 -1 q 502 -10 515 -10 q 457 8 475 -10 q 438 53 438 26 z "},"‘":{"ha":285,"x_min":88,"x_max":200,"o":"m 129 678 q 96 768 105 720 q 93 865 88 817 q 120 957 99 913 q 175 1034 140 1001 l 194 1022 q 199 1012 200 1017 q 195 1003 199 1006 q 161 938 173 974 q 147 864 149 901 q 152 790 144 826 q 178 722 160 753 q 172 695 189 703 l 129 678 z "},"’":{"ha":285,"x_min":90,"x_max":202,"o":"m 161 1049 q 193 959 185 1007 q 196 863 202 910 q 169 770 190 815 q 115 693 149 726 l 96 706 q 91 715 90 710 q 94 724 91 721 q 129 790 117 753 q 143 863 141 826 q 137 938 145 901 q 112 1005 129 974 q 118 1032 101 1024 l 161 1049 z "},"“":{"ha":473,"x_min":88,"x_max":387,"o":"m 129 678 q 96 768 105 720 q 93 865 88 817 q 120 957 99 913 q 175 1034 140 1001 l 194 1022 q 199 1012 200 1017 q 195 1003 199 1006 q 161 938 173 974 q 147 864 149 901 q 152 790 144 826 q 178 722 160 753 q 172 695 189 703 l 129 678 m 316 678 q 283 768 292 720 q 280 865 274 817 q 307 957 286 913 q 362 1034 327 1001 l 381 1022 q 386 1012 387 1017 q 382 1003 385 1006 q 348 938 360 974 q 334 864 336 901 q 339 790 331 826 q 365 722 347 753 q 358 695 376 703 l 316 678 z "},"”":{"ha":472,"x_min":90,"x_max":390,"o":"m 161 1049 q 193 959 185 1007 q 196 863 202 910 q 169 770 190 815 q 115 693 149 726 l 96 706 q 91 715 90 710 q 94 724 91 721 q 129 790 117 753 q 143 863 141 826 q 137 938 145 901 q 112 1005 129 974 q 118 1032 101 1024 l 161 1049 m 349 1049 q 381 959 372 1007 q 384 863 390 910 q 357 770 378 815 q 302 693 336 726 l 283 706 q 278 715 278 710 q 282 724 278 721 q 316 790 304 753 q 331 863 328 826 q 325 938 333 901 q 299 1005 317 974 q 306 1032 288 1024 l 349 1049 z "},"‚":{"ha":295,"x_min":88,"x_max":200,"o":"m 159 146 q 191 55 183 103 q 194 -41 200 7 q 167 -133 188 -89 q 113 -210 147 -177 l 94 -198 q 89 -188 88 -194 q 92 -179 89 -183 q 127 -114 115 -150 q 141 -40 139 -78 q 135 34 143 -3 q 110 101 127 71 q 116 128 99 121 l 159 146 z "},"„":{"ha":482,"x_min":88,"x_max":387,"o":"m 159 146 q 191 55 183 103 q 194 -41 200 7 q 167 -133 188 -89 q 113 -210 147 -177 l 94 -198 q 89 -188 88 -194 q 92 -179 89 -183 q 127 -114 115 -150 q 141 -40 139 -78 q 135 34 143 -3 q 110 101 127 71 q 116 128 99 121 l 159 146 m 346 146 q 378 55 369 103 q 381 -41 387 7 q 354 -133 375 -89 q 299 -210 333 -177 l 281 -198 q 275 -188 275 -194 q 279 -179 276 -183 q 314 -114 301 -150 q 328 -40 326 -78 q 322 34 330 -3 q 297 101 314 71 q 303 128 285 121 l 346 146 z "},"‹":{"ha":374,"x_min":78,"x_max":286,"o":"m 273 137 q 266 103 286 114 l 245 93 l 78 356 l 78 365 l 245 628 l 266 617 q 273 584 286 607 l 146 381 q 130 360 137 366 q 146 341 136 356 l 273 137 z "},"›":{"ha":375,"x_min":89,"x_max":297,"o":"m 297 365 l 297 356 l 130 93 l 109 103 q 102 137 89 114 l 229 341 q 245 360 239 356 q 229 381 238 366 l 102 584 q 109 617 89 607 l 130 628 l 297 365 z "},"«":{"ha":551,"x_min":78,"x_max":463,"o":"m 273 137 q 266 103 286 114 l 245 93 l 78 356 l 78 365 l 245 628 l 266 617 q 273 584 286 607 l 146 381 q 130 360 137 366 q 146 341 136 356 l 273 137 m 450 137 q 443 103 463 114 l 422 93 l 255 356 l 255 365 l 422 628 l 443 617 q 450 584 463 607 l 323 381 q 307 360 314 366 q 323 341 313 356 l 450 137 z "},"»":{"ha":552,"x_min":89,"x_max":474,"o":"m 297 365 l 297 356 l 130 93 l 109 103 q 102 137 89 114 l 229 341 q 245 360 239 356 q 229 381 238 366 l 102 584 q 109 617 89 607 l 130 628 l 297 365 m 474 365 l 474 356 l 307 93 l 286 103 q 279 137 266 114 l 406 341 q 422 360 416 356 q 406 381 415 366 l 279 584 q 286 617 266 607 l 307 628 l 474 365 z "},"/":{"ha":603,"x_min":53,"x_max":551,"o":"m 119 -31 q 103 -52 114 -45 q 80 -58 92 -58 l 53 -58 l 485 985 q 522 1010 495 1010 l 551 1010 l 119 -31 z "},"|":{"ha":331,"x_min":140,"x_max":192,"o":"m 140 1053 l 192 1053 l 192 -247 l 140 -247 l 140 1053 z "},"¦":{"ha":335,"x_min":142,"x_max":194,"o":"m 142 1053 l 194 1053 l 194 513 l 142 513 l 142 1053 m 142 295 l 194 295 l 194 -244 l 142 -244 l 142 295 z "},"\\":{"ha":603,"x_min":53,"x_max":551,"o":"m 53 1010 l 81 1010 q 119 985 108 1010 l 551 -58 l 524 -58 q 501 -52 512 -58 q 484 -31 490 -45 l 53 1010 z "},"-":{"ha":514,"x_min":96,"x_max":419,"o":"m 96 440 l 419 440 l 419 384 l 96 384 l 96 440 z "},"–":{"ha":806,"x_min":129,"x_max":676,"o":"m 129 426 l 676 426 l 676 377 l 129 377 l 129 426 z "},"—":{"ha":1094,"x_min":97,"x_max":997,"o":"m 97 426 l 997 426 l 997 377 l 97 377 l 97 426 z "},"_":{"ha":626,"x_min":39,"x_max":586,"o":"m 586 -142 l 586 -190 l 39 -190 l 39 -142 l 586 -142 z "},"•":{"ha":806,"x_min":199,"x_max":606,"o":"m 199 414 q 215 494 199 456 q 259 559 231 531 q 323 603 287 588 q 401 619 360 619 q 481 603 444 619 q 547 559 519 588 q 590 494 574 531 q 606 414 606 456 q 590 336 606 372 q 547 272 574 299 q 481 228 519 244 q 401 212 444 212 q 323 228 360 212 q 259 272 287 244 q 215 336 231 299 q 199 414 199 372 z "},"·":{"ha":336,"x_min":98,"x_max":238,"o":"m 98 411 q 103 439 98 426 q 118 462 109 452 q 140 477 128 472 q 167 483 153 483 q 194 477 181 483 q 217 462 208 472 q 233 439 227 452 q 238 411 238 426 q 233 384 238 397 q 217 362 227 372 q 194 347 208 353 q 167 342 181 342 q 140 347 153 342 q 118 362 128 353 q 103 384 109 372 q 98 411 98 397 z "},"(":{"ha":358,"x_min":76,"x_max":309,"o":"m 135 438 q 177 139 135 282 q 302 -136 219 -3 q 306 -155 309 -148 q 297 -166 303 -162 l 268 -184 q 178 -25 215 -102 q 119 127 142 51 q 86 280 97 203 q 76 438 76 356 q 86 595 76 519 q 119 748 97 672 q 178 901 142 824 q 268 1060 215 978 l 297 1042 q 306 1031 303 1038 q 302 1012 309 1024 q 177 736 219 879 q 135 438 135 594 z "},")":{"ha":358,"x_min":49,"x_max":282,"o":"m 224 438 q 182 736 224 594 q 56 1012 140 879 q 52 1031 49 1024 q 61 1042 56 1038 l 90 1060 q 180 901 144 978 q 239 748 217 824 q 272 595 262 672 q 282 438 282 519 q 272 280 282 356 q 239 127 262 203 q 180 -25 217 51 q 90 -184 144 -102 l 61 -166 q 52 -155 56 -162 q 56 -136 49 -148 q 182 139 140 -3 q 224 438 224 282 z "},"[":{"ha":413,"x_min":140,"x_max":361,"o":"m 197 1008 l 197 -138 l 340 -138 q 355 -144 349 -138 q 361 -158 361 -149 l 361 -183 l 140 -183 l 140 1053 l 361 1053 l 361 1028 q 355 1014 361 1019 q 340 1008 349 1008 l 197 1008 z "},"]":{"ha":413,"x_min":51,"x_max":272,"o":"m 272 -183 l 51 -183 l 51 -158 q 57 -144 51 -149 q 72 -138 63 -138 l 215 -138 l 215 1008 l 72 1008 q 57 1014 63 1008 q 51 1028 51 1019 l 51 1053 l 272 1053 l 272 -183 z "},"{":{"ha":410,"x_min":57,"x_max":356,"o":"m 316 1008 q 261 998 286 1008 q 219 968 237 988 q 191 921 201 949 q 181 859 181 893 q 188 782 181 819 q 201 708 194 744 q 215 635 209 672 q 222 562 222 599 q 213 515 222 536 q 190 477 204 493 q 157 450 176 461 q 119 435 139 440 q 157 420 139 431 q 190 393 176 409 q 213 356 204 377 q 222 308 222 334 q 215 235 222 272 q 201 162 209 199 q 188 88 194 125 q 181 11 181 50 q 191 -51 181 -23 q 219 -98 201 -78 q 261 -128 237 -117 q 316 -138 286 -138 l 339 -138 q 351 -142 345 -138 q 356 -154 356 -147 l 356 -183 l 318 -183 q 236 -168 272 -183 q 174 -127 199 -153 q 136 -64 149 -100 q 123 15 123 -28 q 130 90 123 53 q 144 163 136 126 q 158 235 151 199 q 165 309 165 271 q 157 351 165 332 q 135 384 149 370 q 101 406 121 399 q 57 414 81 414 l 57 456 q 101 464 81 456 q 135 486 121 472 q 157 519 149 500 q 165 561 165 538 q 158 635 165 599 q 144 708 151 672 q 130 780 136 744 q 123 856 123 817 q 136 934 123 898 q 174 997 149 970 q 236 1039 199 1024 q 318 1053 272 1053 l 356 1053 l 356 1024 q 351 1013 356 1017 q 339 1008 345 1008 l 316 1008 z "},"}":{"ha":410,"x_min":53,"x_max":353,"o":"m 353 414 q 309 406 328 414 q 275 384 289 399 q 253 351 260 370 q 245 309 245 332 q 252 235 245 271 q 266 163 258 199 q 280 90 274 126 q 287 15 287 53 q 274 -64 287 -28 q 235 -127 260 -100 q 174 -168 210 -153 q 92 -183 138 -183 l 53 -183 l 53 -154 q 59 -142 53 -147 q 71 -138 65 -138 l 94 -138 q 148 -128 124 -138 q 191 -98 173 -117 q 218 -51 208 -78 q 228 11 228 -23 q 222 88 228 50 q 208 162 216 125 q 194 235 201 199 q 188 308 188 272 q 197 356 188 334 q 220 393 206 377 q 252 420 234 409 q 291 435 271 431 q 252 450 271 440 q 220 477 234 461 q 197 515 206 493 q 188 562 188 536 q 194 635 188 599 q 208 708 201 672 q 222 782 216 744 q 228 859 228 819 q 218 921 228 893 q 191 968 208 949 q 148 998 173 988 q 94 1008 124 1008 l 71 1008 q 59 1013 65 1008 q 53 1024 53 1017 l 53 1053 l 92 1053 q 174 1039 138 1053 q 235 997 210 1024 q 274 934 260 970 q 287 856 287 898 q 280 780 287 817 q 266 708 274 744 q 252 635 258 672 q 245 561 245 599 q 253 519 245 538 q 275 486 260 500 q 309 464 289 472 q 353 456 328 456 l 353 414 z "},"*":{"ha":590,"x_min":103,"x_max":486,"o":"m 486 740 l 469 708 l 337 785 q 319 797 326 791 q 304 815 313 803 l 303 814 q 310 792 308 801 q 313 772 313 783 l 313 623 l 276 623 l 276 771 q 278 792 276 783 q 285 813 280 801 l 285 813 q 270 797 278 803 q 253 785 263 791 l 122 709 l 105 740 l 235 816 q 255 824 245 822 q 277 829 264 827 q 254 835 263 832 q 235 844 245 838 l 103 920 l 122 951 l 253 875 q 271 861 265 868 q 288 842 278 854 q 279 866 282 856 q 276 888 276 876 l 276 1037 l 313 1037 l 313 889 q 311 867 313 876 q 303 844 309 857 q 319 862 312 856 q 337 875 326 869 l 467 951 l 485 919 l 355 844 q 335 834 344 838 q 315 829 326 831 q 336 825 327 827 q 355 816 344 822 l 486 740 z "},"†":{"ha":806,"x_min":113,"x_max":693,"o":"m 428 619 l 428 276 l 438 -242 q 403 -251 422 -251 q 367 -242 383 -251 l 376 276 l 376 619 l 113 619 l 113 642 q 120 663 113 653 q 144 673 128 673 q 259 666 199 672 q 376 659 319 661 l 367 994 q 403 1003 383 1003 q 438 994 422 1003 l 428 659 q 546 666 485 661 q 660 673 606 672 q 685 663 676 673 q 693 642 693 653 l 693 619 l 428 619 z "},"‡":{"ha":806,"x_min":113,"x_max":693,"o":"m 428 132 l 693 132 l 693 110 q 685 89 693 98 q 660 79 676 79 q 546 86 606 81 q 428 93 485 91 l 438 -242 q 403 -251 422 -251 q 367 -242 383 -251 l 376 93 q 259 86 319 91 q 144 79 199 81 q 120 89 128 79 q 113 110 113 98 l 113 132 l 376 132 l 376 619 l 113 619 l 113 642 q 120 663 113 653 q 144 673 128 673 q 259 666 199 672 q 376 659 319 661 l 367 994 q 403 1003 383 1003 q 438 994 422 1003 l 428 659 q 546 666 485 661 q 660 673 606 672 q 685 663 676 673 q 693 642 693 653 l 693 619 l 428 619 l 428 132 z "},"§":{"ha":674,"x_min":81,"x_max":592,"o":"m 140 505 q 153 454 140 476 q 190 413 167 431 q 244 379 213 394 q 308 349 274 364 q 375 320 341 335 q 441 288 410 305 q 512 343 490 310 q 533 418 533 376 q 521 474 533 449 q 487 517 508 498 q 438 552 466 536 q 379 582 410 567 q 316 609 348 596 q 253 639 283 623 q 165 580 191 613 q 140 505 140 547 m 545 897 q 530 888 540 888 q 510 896 522 888 q 478 915 498 905 q 430 934 458 926 q 359 943 401 943 q 289 932 320 943 q 235 903 257 922 q 200 860 213 885 q 188 809 188 836 q 206 753 188 777 q 251 711 223 730 q 316 676 280 692 q 390 643 352 660 q 464 607 428 626 q 528 564 500 588 q 574 507 557 540 q 592 432 592 475 q 563 332 592 375 q 476 265 534 290 q 537 205 514 239 q 560 122 560 170 q 544 38 560 77 q 497 -29 528 -1 q 421 -74 466 -58 q 318 -91 376 -91 q 192 -68 245 -91 q 98 -7 140 -44 l 114 17 q 122 25 117 22 q 133 28 126 28 q 156 17 142 28 q 190 -7 169 6 q 244 -31 212 -20 q 323 -42 276 -42 q 399 -31 366 -42 q 456 2 433 -19 q 490 51 478 23 q 502 112 502 79 q 484 174 502 147 q 436 220 466 200 q 368 258 406 241 q 291 291 331 274 q 214 326 252 308 q 147 368 176 344 q 99 423 117 392 q 81 496 81 453 q 112 592 81 549 q 216 660 144 635 q 181 688 197 673 q 154 720 165 703 q 136 759 142 738 q 129 806 129 781 q 145 877 129 844 q 191 937 161 911 q 263 978 220 963 q 358 994 305 994 q 470 975 421 994 q 560 920 519 957 l 545 897 z "},"¶":{"ha":912,"x_min":53,"x_max":863,"o":"m 863 926 l 707 926 l 707 -132 l 647 -132 l 647 926 l 419 926 l 419 -132 l 360 -132 l 360 485 q 232 505 289 485 q 135 558 175 524 q 74 639 95 592 q 53 738 53 685 q 74 839 53 794 q 135 916 95 884 q 232 965 175 948 q 360 983 289 983 l 863 983 l 863 926 z "},"^":{"ha":806,"x_min":120,"x_max":685,"o":"m 685 497 l 638 497 q 625 501 631 497 q 615 513 619 506 l 422 874 q 410 898 415 887 q 402 921 406 909 q 394 898 399 909 q 384 874 390 887 l 193 513 q 184 502 190 507 q 169 497 178 497 l 120 497 l 381 983 l 422 983 l 685 497 z "},"~":{"ha":806,"x_min":99,"x_max":710,"o":"m 543 394 q 590 403 569 394 q 626 429 611 413 q 648 469 640 446 q 656 519 656 492 l 710 519 q 699 448 710 481 q 667 391 688 415 q 616 353 647 367 q 547 339 585 339 q 474 352 511 339 q 400 383 437 366 q 330 413 364 399 q 266 426 296 426 q 219 417 240 426 q 184 391 199 408 q 161 351 169 374 q 153 301 153 328 l 99 301 q 110 372 99 340 q 142 429 122 405 q 193 467 163 453 q 263 481 224 481 q 336 468 299 481 q 409 438 373 454 q 479 407 445 421 q 543 394 513 394 z "},"'":{"ha":272,"x_min":107,"x_max":165,"o":"m 165 983 l 165 780 l 158 674 q 152 655 157 662 q 135 649 147 649 q 120 655 126 649 q 113 674 115 662 l 107 780 l 107 983 l 165 983 z "},"\"":{"ha":473,"x_min":107,"x_max":366,"o":"m 165 983 l 165 780 l 158 674 q 152 655 157 662 q 135 649 147 649 q 120 655 126 649 q 113 674 115 662 l 107 780 l 107 983 l 165 983 m 366 983 l 366 780 l 360 674 q 353 655 358 662 q 337 649 349 649 q 322 655 327 649 q 315 674 316 662 l 308 780 l 308 983 l 366 983 z "},"&":{"ha":970,"x_min":74,"x_max":948,"o":"m 341 513 q 258 467 295 494 q 195 406 221 440 q 156 335 169 373 q 142 256 142 297 q 162 163 142 202 q 215 96 183 123 q 288 56 248 69 q 367 43 328 43 q 459 54 416 43 q 540 85 503 65 q 610 132 578 105 q 667 192 642 160 l 349 505 l 341 513 m 948 0 l 886 0 q 866 3 874 0 q 847 15 858 6 l 705 155 q 637 89 674 119 q 556 36 599 58 q 462 1 512 14 q 357 -11 412 -11 q 254 6 305 -11 q 164 57 203 24 q 99 140 124 91 q 74 251 74 189 q 92 347 74 301 q 142 430 110 392 q 216 498 173 468 q 309 547 259 528 q 235 655 259 603 q 210 767 210 707 q 228 857 210 815 q 278 928 246 898 q 357 976 311 959 q 458 994 402 994 q 547 978 505 994 q 619 935 588 962 q 668 872 650 908 q 688 797 687 836 l 651 790 q 638 792 644 788 q 628 806 632 796 q 614 848 625 824 q 581 892 602 872 q 530 927 560 913 q 458 942 499 942 q 383 929 417 942 q 324 893 349 916 q 286 838 300 869 q 273 767 273 806 q 302 658 273 710 q 392 547 331 606 l 703 242 q 752 345 734 292 q 776 450 770 399 q 781 464 777 459 q 794 469 785 469 l 832 469 q 808 335 831 404 q 742 203 785 266 l 948 0 z "},"@":{"ha":1151,"x_min":83,"x_max":1077,"o":"m 754 587 q 720 594 738 592 q 678 597 702 597 q 565 571 616 597 q 478 505 514 546 q 423 413 442 464 q 403 310 403 362 q 410 258 403 282 q 431 217 417 234 q 465 189 444 199 q 513 179 485 179 q 565 188 538 179 q 616 218 592 196 q 663 277 641 240 q 699 372 684 314 l 754 587 m 751 376 q 735 272 735 312 q 749 211 736 233 q 782 182 761 189 q 828 174 803 174 q 903 195 867 174 q 967 255 940 216 q 1011 348 995 293 q 1028 471 1028 403 q 994 650 1028 574 q 902 778 960 727 q 767 853 844 828 q 603 878 690 878 q 423 842 508 878 q 274 739 338 805 q 172 582 210 673 q 134 381 134 490 q 173 165 134 258 q 280 9 213 72 q 437 -86 347 -54 q 628 -119 527 -119 q 816 -95 731 -119 q 971 -26 901 -72 q 986 -23 979 -21 q 997 -33 993 -25 l 1007 -58 q 836 -137 929 -110 q 628 -165 742 -165 q 415 -129 514 -165 q 242 -23 315 -92 q 126 149 168 47 q 83 381 83 251 q 124 597 83 497 q 236 769 165 696 q 401 883 307 842 q 603 924 496 924 q 782 895 697 924 q 933 809 867 867 q 1038 667 999 752 q 1077 471 1077 583 q 1057 333 1077 395 q 1002 225 1037 270 q 919 156 967 181 q 819 131 872 131 q 727 163 758 131 q 694 256 696 195 q 607 162 656 191 q 501 133 558 133 q 433 147 462 133 q 386 184 405 160 q 358 240 367 208 q 349 308 349 272 q 371 427 349 367 q 437 534 394 486 q 544 611 481 581 q 688 641 607 641 q 757 635 724 641 q 815 617 789 628 l 751 376 z "},"©":{"ha":1168,"x_min":83,"x_max":1085,"o":"m 786 296 q 798 293 793 297 l 822 269 q 725 203 781 228 q 589 179 669 179 q 467 202 522 179 q 371 265 411 224 q 309 364 331 306 q 287 492 287 422 q 310 619 287 562 q 375 718 333 677 q 474 783 416 760 q 600 806 531 806 q 666 800 636 806 q 722 785 697 795 q 770 761 748 775 q 814 728 793 747 l 798 705 q 783 697 793 697 q 766 706 777 697 q 734 726 754 715 q 682 746 713 737 q 603 755 650 755 q 498 736 545 755 q 417 684 451 718 q 365 601 383 650 q 347 492 347 553 q 365 381 347 430 q 416 299 383 333 q 494 248 449 265 q 592 230 539 230 q 658 235 630 230 q 708 249 685 240 q 748 270 730 258 q 786 296 767 282 m 83 492 q 101 625 83 560 q 151 744 119 689 q 230 846 184 800 q 331 924 276 892 q 451 975 387 957 q 584 993 515 993 q 717 975 653 993 q 837 924 781 957 q 938 846 892 892 q 1017 744 984 800 q 1067 625 1049 689 q 1085 492 1085 560 q 1067 358 1085 422 q 1017 239 1049 294 q 938 138 984 183 q 837 59 892 92 q 717 8 781 26 q 584 -10 653 -10 q 451 8 515 -10 q 331 59 387 26 q 230 138 276 92 q 151 239 184 183 q 101 358 119 294 q 83 492 83 422 m 124 492 q 160 311 124 395 q 258 164 196 226 q 405 65 321 101 q 584 28 488 28 q 707 45 648 28 q 817 91 766 61 q 911 164 869 122 q 983 257 953 206 q 1030 368 1013 308 q 1046 492 1046 427 q 1010 673 1046 588 q 911 820 974 757 q 764 920 848 883 q 584 956 680 956 q 405 920 488 956 q 258 820 321 883 q 160 673 196 757 q 124 492 124 588 z "},"℗":{"ha":1168,"x_min":83,"x_max":1085,"o":"m 581 474 q 663 485 629 474 q 718 515 697 496 q 748 561 739 534 q 758 619 758 588 q 748 675 758 650 q 719 717 739 700 q 667 744 699 735 q 590 753 635 753 l 478 753 l 478 474 l 581 474 m 590 799 q 690 786 647 799 q 760 749 732 773 q 802 692 788 726 q 816 619 816 659 q 802 545 816 580 q 759 485 788 511 q 687 445 731 460 q 584 431 643 431 l 478 431 l 478 185 l 419 185 l 419 799 l 590 799 m 584 28 q 707 45 648 28 q 817 91 766 61 q 911 164 869 122 q 983 257 953 206 q 1030 368 1013 308 q 1046 492 1046 427 q 1010 673 1046 588 q 911 820 974 757 q 764 920 848 883 q 584 956 680 956 q 405 920 488 956 q 258 820 321 883 q 160 673 196 757 q 124 492 124 588 q 160 311 124 395 q 258 164 196 226 q 405 65 321 101 q 584 28 488 28 m 584 993 q 717 975 653 993 q 837 924 781 957 q 938 846 892 892 q 1017 744 984 800 q 1067 625 1049 689 q 1085 492 1085 560 q 1067 358 1085 422 q 1017 239 1049 294 q 938 138 984 183 q 837 59 892 92 q 717 8 781 26 q 584 -10 653 -10 q 451 8 515 -10 q 331 59 387 26 q 230 138 276 92 q 151 239 184 183 q 101 358 119 294 q 83 492 83 422 q 101 625 83 560 q 151 744 119 689 q 230 846 184 800 q 331 924 276 892 q 451 975 387 957 q 584 993 515 993 z "},"®":{"ha":1168,"x_min":83,"x_max":1085,"o":"m 560 501 q 685 534 644 501 q 726 631 726 568 q 689 724 726 695 q 569 753 652 753 l 457 753 l 457 501 l 560 501 m 569 799 q 731 759 676 799 q 785 638 785 719 q 740 524 785 568 q 615 468 696 479 q 642 440 629 460 l 840 185 l 785 185 q 772 187 777 185 q 763 196 767 189 l 575 440 q 561 452 569 447 q 533 456 553 456 l 457 456 l 457 185 l 398 185 l 398 799 l 569 799 m 584 28 q 707 45 648 28 q 817 91 766 61 q 911 164 869 122 q 983 257 953 206 q 1030 368 1013 308 q 1046 492 1046 427 q 1010 673 1046 588 q 911 820 974 757 q 764 920 848 883 q 584 956 680 956 q 405 920 488 956 q 258 820 321 883 q 160 673 196 757 q 124 492 124 588 q 160 311 124 395 q 258 164 196 226 q 405 65 321 101 q 584 28 488 28 m 584 993 q 717 975 653 993 q 837 924 781 957 q 938 846 892 892 q 1017 744 984 800 q 1067 625 1049 689 q 1085 492 1085 560 q 1067 358 1085 422 q 1017 239 1049 294 q 938 138 984 183 q 837 59 892 92 q 717 8 781 26 q 584 -10 653 -10 q 451 8 515 -10 q 331 59 387 26 q 230 138 276 92 q 151 239 184 183 q 101 358 119 294 q 83 492 83 422 q 101 625 83 560 q 151 744 119 689 q 230 846 184 800 q 331 924 276 892 q 451 975 387 957 q 584 993 515 993 z "},"™":{"ha":1032,"x_min":67,"x_max":910,"o":"m 67 983 l 394 983 l 394 942 l 256 942 l 256 583 l 206 583 l 206 942 l 67 942 l 67 983 m 910 983 l 910 583 l 867 583 l 867 891 l 870 922 l 718 658 q 701 647 713 647 l 693 647 q 676 658 681 647 l 521 921 l 524 891 l 524 583 l 481 583 l 481 983 l 520 983 q 530 981 527 983 q 538 974 533 980 l 689 722 q 693 711 692 716 q 697 701 695 706 q 701 711 699 706 q 706 722 703 716 l 853 974 q 860 981 857 980 q 870 983 863 983 l 910 983 z "},"℠":{"ha":1013,"x_min":106,"x_max":890,"o":"m 342 928 q 331 922 338 922 q 320 926 326 922 q 304 937 314 931 q 280 948 294 943 q 244 953 265 953 q 187 933 207 953 q 167 886 167 914 q 181 850 167 863 q 217 828 195 837 q 264 811 238 819 q 310 791 289 803 q 346 759 332 779 q 360 707 360 740 q 352 659 360 681 q 326 619 343 636 q 284 592 309 602 q 228 583 260 583 q 159 597 190 583 q 106 635 128 611 l 118 656 q 129 663 122 663 q 141 657 134 663 q 160 642 149 650 q 189 627 172 634 q 230 621 206 621 q 295 644 273 621 q 317 701 317 668 q 303 740 317 726 q 267 762 289 753 q 220 778 246 771 q 174 797 195 785 q 138 829 152 809 q 124 884 124 849 q 132 924 124 905 q 155 958 140 944 q 193 982 171 973 q 244 991 215 991 q 351 950 310 991 l 342 928 m 890 983 l 890 583 l 847 583 l 847 891 l 850 922 l 699 658 q 681 647 693 647 l 674 647 q 656 658 661 647 l 501 922 l 505 891 l 505 583 l 461 583 l 461 983 l 500 983 q 511 981 508 983 q 518 974 514 980 l 669 722 q 677 700 674 710 q 686 722 681 712 l 833 974 q 840 981 837 980 q 851 983 844 983 l 890 983 z "},"°":{"ha":574,"x_min":78,"x_max":497,"o":"m 78 788 q 94 868 78 831 q 139 934 110 906 q 205 978 167 963 q 287 994 243 994 q 369 978 331 994 q 436 934 408 963 q 480 868 464 906 q 497 788 497 831 q 480 707 497 744 q 436 641 464 669 q 369 597 408 613 q 287 581 331 581 q 205 597 243 581 q 139 641 167 613 q 94 707 110 669 q 78 788 78 744 m 128 788 q 140 725 128 754 q 174 674 153 696 q 224 640 195 653 q 287 628 253 628 q 349 640 320 628 q 400 674 378 653 q 434 725 422 696 q 447 788 447 754 q 434 850 447 821 q 400 901 422 879 q 349 935 378 923 q 287 948 320 948 q 224 935 253 948 q 174 901 195 923 q 140 850 153 879 q 128 788 128 821 z "},"¤":{"ha":806,"x_min":110,"x_max":695,"o":"m 215 466 q 230 393 215 427 q 270 334 244 359 q 330 293 295 308 q 403 278 364 278 q 476 293 442 278 q 536 334 510 308 q 577 393 562 359 q 592 466 592 427 q 577 539 592 505 q 536 599 562 574 q 476 640 510 625 q 403 655 442 655 q 330 640 364 655 q 270 599 295 625 q 230 539 244 574 q 215 466 215 505 m 660 174 l 554 281 q 485 242 523 256 q 403 228 447 228 q 322 242 360 228 q 253 281 284 256 l 145 174 l 111 208 l 218 315 q 179 384 193 347 q 165 466 165 422 q 178 547 165 509 q 217 616 192 585 l 110 723 l 144 758 l 251 651 q 321 691 283 676 q 403 705 359 705 q 484 691 446 705 q 553 652 522 676 l 660 758 l 694 724 l 588 617 q 627 548 613 586 q 642 466 642 510 q 627 385 642 423 q 588 316 613 347 l 695 209 l 660 174 z "},"€":{"ha":806,"x_min":13,"x_max":780,"o":"m 13 599 l 127 599 q 169 764 138 691 q 249 888 201 837 q 360 965 297 938 q 500 992 424 992 q 582 984 544 992 q 652 961 619 976 q 712 923 684 946 q 766 871 740 901 l 745 847 q 739 841 742 843 q 730 838 735 838 q 717 845 724 838 q 697 863 709 853 q 668 886 685 874 q 628 910 651 899 q 573 927 604 920 q 502 935 542 935 q 388 913 440 935 q 297 849 336 891 q 231 744 257 806 q 195 599 206 681 l 613 599 l 613 578 q 608 565 613 571 q 592 559 603 559 l 191 559 q 189 492 189 526 q 189 464 189 477 q 190 436 190 450 l 550 436 l 550 415 q 544 401 550 407 q 528 395 538 395 l 194 395 q 228 244 203 309 q 292 135 253 178 q 383 69 331 91 q 498 47 435 47 q 574 55 541 47 q 632 76 607 63 q 675 104 657 89 q 705 132 692 119 q 727 153 718 144 q 742 161 735 161 q 754 155 749 161 l 780 131 q 726 73 755 99 q 661 28 697 47 q 585 0 626 10 q 494 -10 543 -10 q 351 17 415 -10 q 241 96 288 44 q 165 223 194 148 q 126 395 135 299 l 13 395 l 13 436 l 122 436 q 121 464 122 450 q 121 492 121 477 q 123 559 121 526 l 13 559 l 13 599 z "},"$":{"ha":806,"x_min":94,"x_max":706,"o":"m 412 45 q 510 68 467 49 q 583 118 553 87 q 628 189 613 149 q 644 276 644 230 q 626 354 644 322 q 580 408 609 386 q 513 445 551 431 q 433 474 475 460 l 412 45 m 412 935 q 320 916 359 933 q 254 874 281 900 q 215 815 228 848 q 201 744 201 781 q 217 671 201 701 q 258 618 232 640 q 319 581 285 597 q 392 552 353 565 l 412 935 m 436 538 q 534 505 485 522 q 621 459 583 487 q 683 390 659 431 q 706 287 706 349 q 686 174 706 227 q 628 82 667 122 q 535 17 590 42 q 409 -10 480 -7 l 401 -157 q 395 -172 401 -166 q 381 -178 390 -178 l 356 -178 l 364 -10 q 209 28 275 -6 q 94 117 144 62 l 113 144 q 132 155 121 155 q 147 147 138 155 q 169 128 156 140 q 201 103 183 117 q 243 77 219 90 q 297 56 267 65 q 367 45 328 47 l 390 488 q 297 520 342 502 q 217 566 252 538 q 160 635 182 594 q 139 739 139 676 q 157 832 139 788 q 211 912 176 877 q 297 969 246 947 q 415 992 349 990 l 421 1108 q 426 1124 421 1118 q 441 1131 432 1131 l 466 1131 l 459 991 q 582 960 529 986 q 678 890 635 934 l 663 867 q 644 855 656 855 q 623 866 636 855 q 587 892 609 878 q 533 919 565 906 q 456 935 501 932 l 436 538 z "},"¢":{"ha":806,"x_min":115,"x_max":695,"o":"m 446 651 q 332 626 382 649 q 249 565 283 604 q 198 470 215 526 q 180 346 180 415 q 197 224 180 278 q 244 132 213 170 q 318 71 274 93 q 416 44 362 49 l 446 651 m 695 89 q 655 52 679 69 q 601 22 631 35 q 534 1 570 9 q 458 -8 498 -7 l 451 -154 q 445 -169 450 -163 q 430 -176 440 -176 l 405 -176 l 413 -8 q 292 22 347 -4 q 197 93 237 48 q 136 202 158 138 q 115 346 115 266 q 137 489 115 424 q 202 601 159 554 q 307 674 244 648 q 449 702 369 701 l 456 844 q 461 860 456 853 q 476 867 467 867 l 501 867 l 493 701 q 601 675 553 695 q 684 622 648 654 l 667 599 q 661 593 664 596 q 652 591 658 591 q 634 599 646 591 q 604 617 623 607 q 557 636 585 627 q 490 649 529 646 l 460 42 q 548 56 513 44 q 607 81 583 67 q 643 106 630 94 q 665 117 657 117 q 678 110 672 117 l 695 89 z "},"£":{"ha":806,"x_min":42,"x_max":763,"o":"m 42 461 q 49 478 42 472 q 67 485 56 485 l 182 485 l 182 690 q 200 810 182 754 q 254 906 218 865 q 343 970 290 947 q 468 993 397 993 q 561 980 521 993 q 632 945 601 967 q 683 893 662 923 q 720 830 705 863 l 694 815 q 674 811 683 810 q 658 823 665 813 q 628 865 644 844 q 591 901 613 885 q 540 927 569 917 q 468 936 510 936 q 373 918 414 936 q 305 868 333 900 q 263 790 277 835 q 249 690 249 744 l 249 485 l 582 485 l 582 458 q 576 445 582 451 q 561 439 570 439 l 249 439 l 249 228 q 224 124 249 166 q 156 52 199 82 q 186 56 171 55 q 217 58 201 58 l 763 58 l 763 30 q 755 10 763 19 q 733 0 747 0 l 59 0 l 59 45 q 105 68 83 54 q 144 102 127 82 q 172 149 162 122 q 182 213 182 176 l 182 439 l 42 439 l 42 461 z "},"¥":{"ha":806,"x_min":63,"x_max":743,"o":"m 450 428 l 690 428 l 690 388 l 436 388 l 436 306 l 690 306 l 690 265 l 436 265 l 436 0 l 369 0 l 369 265 l 115 265 l 115 306 l 369 306 l 369 388 l 115 388 l 115 428 l 356 428 l 63 983 l 118 983 q 144 965 137 983 l 385 503 q 395 477 391 490 q 403 453 400 465 q 411 477 407 465 q 421 503 415 490 l 661 965 q 671 978 665 973 q 688 983 678 983 l 743 983 l 450 428 z "},"℅":{"ha":1117,"x_min":55,"x_max":1064,"o":"m 862 970 q 872 979 866 976 q 888 983 878 983 l 934 983 l 228 13 q 204 0 219 0 l 157 0 l 862 970 m 440 589 q 448 585 444 589 l 469 563 q 395 509 438 528 q 290 490 352 490 q 194 508 238 490 q 120 560 151 526 q 72 640 89 593 q 55 743 55 686 q 73 846 55 799 q 122 927 90 893 q 199 979 154 960 q 297 997 243 997 q 389 981 349 997 q 460 935 429 965 l 443 911 q 431 905 440 905 q 417 912 426 905 q 392 928 408 919 q 353 944 376 937 q 297 951 330 951 q 221 937 256 951 q 162 896 187 923 q 123 830 137 869 q 109 743 109 792 q 123 655 109 694 q 162 590 138 617 q 220 549 187 563 q 293 535 254 535 q 336 538 317 535 q 372 547 356 541 q 402 563 388 553 q 430 585 416 572 q 440 589 435 589 m 1064 242 q 1047 139 1064 185 q 997 59 1029 92 q 921 7 965 26 q 823 -11 877 -11 q 725 7 769 -11 q 649 59 681 26 q 599 139 617 92 q 582 242 582 185 q 599 345 582 298 q 649 425 617 392 q 725 477 681 459 q 823 496 769 496 q 921 477 877 496 q 997 425 965 459 q 1047 345 1029 392 q 1064 242 1064 298 m 1009 242 q 996 329 1009 290 q 958 394 983 367 q 900 436 934 422 q 823 450 865 450 q 747 436 781 450 q 688 394 712 422 q 650 329 663 367 q 636 242 636 290 q 650 155 636 193 q 688 89 663 116 q 747 48 712 63 q 823 34 781 34 q 900 48 865 34 q 958 89 934 63 q 996 155 983 116 q 1009 242 1009 193 z "},"№":{"ha":1576,"x_min":157,"x_max":1490,"o":"m 1278 949 q 1214 937 1243 949 q 1164 902 1185 925 q 1132 847 1143 879 q 1120 773 1120 814 q 1132 699 1120 732 q 1164 644 1143 667 q 1214 609 1185 622 q 1278 597 1243 597 q 1343 609 1314 597 q 1393 644 1372 622 q 1425 699 1414 667 q 1436 773 1436 732 q 1425 847 1436 814 q 1393 902 1414 879 q 1343 937 1372 925 q 1278 949 1314 949 m 1278 552 q 1193 568 1231 552 q 1127 613 1154 584 q 1084 683 1099 642 q 1069 772 1069 723 q 1084 862 1069 822 q 1127 932 1099 903 q 1193 977 1154 961 q 1278 994 1231 994 q 1365 977 1326 994 q 1431 932 1403 961 q 1474 862 1459 903 q 1490 772 1490 822 q 1474 683 1490 723 q 1431 613 1459 642 q 1365 568 1403 584 q 1278 552 1326 552 m 853 983 l 915 983 l 915 0 l 882 0 q 867 3 873 0 q 856 14 861 6 l 217 867 q 219 827 219 846 l 219 0 l 157 0 l 157 983 l 192 983 q 207 980 202 983 q 219 969 213 978 l 856 119 q 853 158 853 140 l 853 983 m 1068 438 l 1489 438 l 1489 390 l 1068 390 l 1068 438 z "},"#":{"ha":806,"x_min":56,"x_max":749,"o":"m 531 626 l 324 626 l 267 356 l 474 356 l 531 626 m 749 676 l 745 649 q 736 632 744 638 q 715 626 729 626 l 587 626 l 530 356 l 686 356 q 703 350 697 356 q 706 328 708 344 l 703 308 l 522 308 l 457 0 l 429 0 q 411 8 417 0 q 408 31 404 17 l 467 308 l 260 308 l 201 28 q 189 6 198 13 q 168 0 180 0 l 139 0 l 204 308 l 78 308 q 61 314 66 308 q 57 336 56 320 l 60 356 l 212 356 l 269 626 l 92 626 l 97 653 q 128 676 99 676 l 276 676 l 336 956 q 347 976 338 969 q 368 983 356 983 l 397 983 l 332 676 l 539 676 l 603 983 l 633 983 q 651 975 644 983 q 654 953 657 967 l 594 676 l 749 676 z "},"₀":{"ha":464,"x_min":51,"x_max":413,"o":"m 413 91 q 399 -22 413 26 q 360 -101 385 -69 q 302 -147 335 -132 q 231 -162 269 -162 q 161 -147 194 -162 q 103 -101 128 -132 q 65 -22 79 -69 q 51 91 51 26 q 65 204 51 156 q 103 283 79 252 q 161 330 128 315 q 231 345 194 345 q 302 330 269 345 q 360 283 335 315 q 399 204 385 252 q 413 91 413 156 m 362 91 q 351 190 362 149 q 323 256 341 231 q 282 292 306 281 q 231 303 258 303 q 180 292 204 303 q 139 256 156 281 q 111 190 121 231 q 101 91 101 149 q 111 -8 101 33 q 140 -73 122 -48 q 181 -110 158 -99 q 231 -121 205 -121 q 282 -110 258 -121 q 323 -73 306 -99 q 351 -8 341 -48 q 362 91 362 33 z "},"₁":{"ha":464,"x_min":94,"x_max":383,"o":"m 383 -123 l 383 -157 l 120 -157 l 120 -123 l 230 -123 l 230 252 l 233 278 l 133 190 q 119 186 126 185 q 109 192 113 188 l 94 214 l 240 342 l 281 342 l 281 -123 l 383 -123 z "},"₂":{"ha":464,"x_min":64,"x_max":393,"o":"m 376 -111 q 393 -128 393 -111 l 393 -157 l 64 -157 l 64 -140 q 66 -129 64 -135 q 74 -119 68 -124 l 237 46 q 273 85 256 65 q 303 124 290 104 q 323 165 316 144 q 331 208 331 185 q 323 250 331 232 q 301 280 315 268 q 269 298 288 292 q 232 303 251 303 q 162 280 189 303 q 125 216 135 256 q 116 205 122 208 q 100 203 111 202 l 74 208 q 126 310 83 274 q 234 345 169 345 q 292 336 265 345 q 339 310 319 327 q 370 268 358 293 q 381 209 381 242 q 373 157 381 181 q 349 111 364 133 q 315 69 335 90 q 275 28 296 49 l 131 -118 q 158 -113 144 -115 q 185 -111 172 -111 l 376 -111 z "},"₃":{"ha":464,"x_min":60,"x_max":391,"o":"m 76 208 q 129 310 86 274 q 235 345 172 345 q 291 336 265 345 q 337 311 317 328 q 367 272 356 295 q 378 219 378 249 q 354 143 378 173 q 288 100 329 113 q 365 59 338 88 q 391 -17 391 29 q 378 -77 391 -50 q 343 -123 365 -103 q 291 -152 320 -142 q 228 -162 261 -162 q 158 -152 186 -162 q 111 -124 130 -142 q 80 -83 92 -106 q 60 -35 68 -60 l 81 -26 q 98 -24 90 -22 q 110 -34 107 -25 q 118 -53 113 -40 q 135 -83 123 -67 q 169 -109 148 -98 q 226 -121 191 -121 q 275 -111 254 -121 q 311 -87 297 -102 q 332 -55 325 -73 q 340 -19 340 -37 q 333 22 340 3 q 310 52 326 40 q 268 72 294 65 q 206 79 242 79 l 206 113 q 299 141 269 115 q 330 210 330 167 q 322 251 330 234 q 301 280 315 269 q 270 297 288 292 q 233 303 252 303 q 162 279 189 303 q 126 217 135 255 q 117 205 122 208 q 102 203 112 202 l 76 208 z "},"₄":{"ha":464,"x_min":38,"x_max":417,"o":"m 286 15 l 286 247 q 287 266 286 256 q 289 285 288 276 l 87 15 l 286 15 m 417 15 l 417 -10 q 404 -22 417 -22 l 328 -22 l 328 -157 l 286 -157 l 286 -22 l 60 -22 q 42 -10 44 -22 l 38 12 l 282 340 l 328 340 l 328 15 l 417 15 z "},"₅":{"ha":464,"x_min":72,"x_max":381,"o":"m 146 146 q 185 153 166 151 q 222 156 203 156 q 291 145 261 156 q 341 115 322 134 q 371 68 361 95 q 381 8 381 41 q 368 -63 381 -31 q 330 -117 354 -94 q 274 -151 306 -139 q 206 -162 242 -162 q 129 -148 163 -162 q 72 -115 94 -133 l 87 -93 q 101 -86 92 -86 q 115 -91 106 -86 q 136 -103 124 -97 q 167 -115 149 -110 q 208 -120 185 -120 q 256 -112 233 -120 q 294 -89 278 -104 q 321 -50 311 -73 q 331 4 331 -26 q 302 84 331 53 q 213 115 273 115 q 173 111 194 115 q 128 101 151 108 l 97 110 l 138 340 l 367 340 l 367 318 q 360 301 367 308 q 338 294 353 294 l 172 294 l 146 146 z "},"₆":{"ha":464,"x_min":71,"x_max":399,"o":"m 233 -124 q 282 -115 260 -124 q 320 -91 304 -106 q 344 -55 335 -76 q 352 -9 352 -34 q 322 74 352 44 q 241 104 291 104 q 190 94 212 104 q 152 69 167 85 q 128 34 136 53 q 120 -7 120 14 q 128 -53 120 -32 q 151 -91 136 -75 q 186 -115 165 -106 q 233 -124 207 -124 m 193 159 q 168 127 180 142 q 146 98 156 113 q 194 130 166 118 q 254 142 222 142 q 310 132 284 142 q 357 103 337 122 q 388 58 376 85 q 399 -4 399 31 q 387 -67 399 -38 q 353 -118 375 -97 q 300 -151 331 -139 q 231 -162 269 -162 q 166 -151 195 -162 q 115 -118 136 -140 q 82 -65 94 -96 q 71 4 71 -35 q 85 72 71 35 q 133 152 100 108 l 263 328 q 290 340 272 340 l 333 340 l 193 159 z "},"₇":{"ha":464,"x_min":67,"x_max":402,"o":"m 402 340 l 402 314 q 401 302 402 308 q 397 292 399 297 l 181 -138 q 172 -151 178 -145 q 155 -157 167 -157 l 117 -157 l 334 265 q 342 280 338 273 q 351 292 347 287 l 80 292 q 71 297 75 292 q 67 306 67 301 l 67 340 l 402 340 z "},"₈":{"ha":464,"x_min":67,"x_max":397,"o":"m 233 -124 q 280 -116 258 -124 q 316 -95 301 -109 q 339 -64 331 -82 q 347 -22 347 -45 q 336 27 347 8 q 309 59 326 47 q 272 76 292 71 q 233 81 252 81 q 193 76 213 81 q 156 59 172 71 q 128 27 139 47 q 118 -22 118 8 q 149 -96 118 -68 q 233 -124 180 -124 m 132 216 q 138 178 132 196 q 157 148 144 161 q 188 128 169 135 q 233 120 207 120 q 277 128 258 120 q 308 148 296 135 q 327 178 321 161 q 333 216 333 196 q 326 251 333 235 q 307 280 319 268 q 275 300 294 292 q 233 307 256 307 q 190 300 208 307 q 158 280 171 292 q 139 251 145 268 q 132 216 132 235 m 296 101 q 370 59 343 90 q 397 -24 397 28 q 384 -81 397 -56 q 351 -125 372 -107 q 299 -153 329 -143 q 233 -162 269 -162 q 166 -153 196 -162 q 114 -125 135 -143 q 80 -81 92 -107 q 67 -24 67 -56 q 94 59 67 28 q 169 101 122 90 q 106 145 128 115 q 85 217 85 175 q 95 267 85 244 q 125 308 106 291 q 172 335 144 325 q 233 345 199 345 q 293 335 266 345 q 339 308 320 325 q 369 267 358 291 q 379 217 379 244 q 358 145 379 175 q 296 101 338 115 z "},"₉":{"ha":464,"x_min":69,"x_max":385,"o":"m 118 198 q 147 118 118 146 q 224 90 176 90 q 273 99 251 90 q 309 123 294 108 q 332 156 324 138 q 340 195 340 175 q 332 240 340 219 q 309 275 324 260 q 275 298 294 290 q 231 306 255 306 q 149 276 181 306 q 118 198 118 247 m 271 36 q 291 63 281 50 q 308 87 300 75 q 264 61 289 70 q 212 53 239 53 q 156 63 182 53 q 111 92 130 73 q 81 136 92 110 q 69 194 69 163 q 82 252 69 225 q 115 300 94 280 q 166 333 136 321 q 231 345 195 345 q 294 334 265 345 q 343 302 322 323 q 374 253 363 282 q 385 190 385 225 q 381 149 385 168 q 369 110 377 129 q 349 72 360 92 q 322 31 337 53 l 201 -146 q 176 -157 193 -157 l 131 -157 l 271 36 z "},"₊":{"ha":464,"x_min":67,"x_max":397,"o":"m 397 61 l 251 61 l 251 -92 l 212 -92 l 212 61 l 67 61 l 67 99 l 212 99 l 212 251 l 251 251 l 251 99 l 397 99 l 397 61 z "},"₋":{"ha":464,"x_min":84,"x_max":380,"o":"m 84 99 l 380 99 l 380 61 l 84 61 l 84 99 z "},"₌":{"ha":464,"x_min":85,"x_max":379,"o":"m 85 44 l 379 44 l 379 6 l 85 6 l 85 44 m 85 157 l 379 157 l 379 119 l 85 119 l 85 157 z "},"₍":{"ha":232,"x_min":56,"x_max":183,"o":"m 100 90 q 178 -193 100 -63 q 181 -206 183 -201 q 174 -214 178 -211 l 152 -227 q 78 -69 100 -146 q 56 90 56 7 q 78 249 56 173 q 152 407 100 326 l 174 394 q 181 386 178 390 q 178 373 183 382 q 100 90 100 243 z "},"₎":{"ha":232,"x_min":49,"x_max":176,"o":"m 133 90 q 112 237 133 166 q 53 373 92 308 q 51 386 49 382 q 58 394 53 390 l 80 407 q 124 327 106 366 q 154 249 142 288 q 170 171 165 210 q 176 90 176 132 q 170 9 176 49 q 154 -69 165 -31 q 124 -148 142 -108 q 80 -227 106 -187 l 58 -214 q 51 -206 53 -211 q 53 -193 49 -201 q 112 -57 92 -128 q 133 90 133 14 z "},"⁄":{"ha":194,"x_min":-213,"x_max":410,"o":"m -147 22 q -164 5 -155 9 q -185 0 -174 0 l -213 0 l 342 958 q 358 976 349 970 q 381 983 367 983 l 410 983 l -147 22 z "},"⅔":{"ha":1015,"x_min":76,"x_max":942,"o":"m 288 22 q 271 5 281 9 q 250 0 262 0 l 222 0 l 778 958 q 793 976 785 970 q 816 983 802 983 l 845 983 l 288 22 m 389 533 q 406 516 406 533 l 406 487 l 76 487 l 76 503 q 78 515 76 509 q 86 525 81 520 l 249 690 q 286 728 269 709 q 316 768 303 748 q 336 808 328 788 q 343 851 343 829 q 335 894 343 876 q 314 924 327 912 q 282 941 300 935 q 244 947 264 947 q 174 923 201 947 q 138 860 147 899 q 129 849 134 852 q 113 847 124 846 l 86 851 q 139 953 96 918 q 247 989 182 989 q 304 980 277 989 q 351 954 331 971 q 382 911 371 937 q 394 853 394 886 q 385 801 394 825 q 362 755 376 777 q 328 713 347 733 q 288 672 308 692 l 144 526 q 170 531 157 529 q 198 533 184 533 l 389 533 m 627 365 q 680 467 637 431 q 785 502 722 502 q 842 493 815 502 q 888 468 868 485 q 918 429 907 452 q 929 376 929 406 q 905 300 929 330 q 838 257 880 269 q 915 216 889 245 q 942 140 942 186 q 929 80 942 107 q 893 34 916 53 q 841 5 871 15 q 778 -6 812 -6 q 709 5 737 -6 q 661 33 681 15 q 631 74 642 51 q 611 122 619 97 l 632 131 q 649 133 640 135 q 661 123 658 132 q 668 103 663 117 q 686 74 674 90 q 720 48 699 59 q 776 36 742 36 q 826 45 805 36 q 861 69 847 55 q 883 102 876 84 q 890 138 890 120 q 883 178 890 160 q 860 209 876 197 q 819 229 844 222 q 756 236 793 236 l 756 270 q 850 298 819 272 q 881 367 881 324 q 873 408 881 391 q 852 437 865 426 q 820 454 838 449 q 783 460 803 460 q 713 436 740 460 q 676 374 686 412 q 668 362 673 365 q 653 360 663 359 l 627 365 z "},"⅖":{"ha":1004,"x_min":76,"x_max":923,"o":"m 288 22 q 270 5 280 9 q 249 0 261 0 l 222 0 l 777 958 q 793 976 784 970 q 815 983 801 983 l 844 983 l 288 22 m 389 533 q 406 516 406 533 l 406 487 l 76 487 l 76 503 q 78 515 76 509 q 86 525 81 520 l 249 690 q 286 728 269 709 q 316 768 303 748 q 336 808 328 788 q 343 851 343 829 q 335 894 343 876 q 314 924 327 912 q 282 941 300 935 q 244 947 264 947 q 174 923 201 947 q 138 860 147 899 q 129 849 134 852 q 113 847 124 846 l 86 851 q 139 953 96 918 q 247 989 182 989 q 304 980 277 989 q 351 954 331 971 q 382 911 371 937 q 394 853 394 886 q 385 801 394 825 q 362 755 376 777 q 328 713 347 733 q 288 672 308 692 l 144 526 q 170 531 157 529 q 198 533 184 533 l 389 533 m 688 303 q 726 310 708 308 q 763 313 745 313 q 833 302 803 313 q 883 272 863 291 q 913 225 903 252 q 923 165 923 198 q 909 94 923 126 q 872 40 896 63 q 816 6 848 18 q 748 -6 784 -6 q 670 9 705 -6 q 614 42 636 24 l 628 64 q 642 71 634 71 q 657 66 648 71 q 678 54 665 60 q 709 42 691 47 q 750 37 726 37 q 797 45 775 37 q 836 68 819 53 q 863 107 853 84 q 872 161 872 131 q 843 241 872 210 q 754 272 815 272 q 714 268 735 272 q 670 258 693 265 l 639 267 l 679 497 l 909 497 l 909 475 q 902 458 909 465 q 880 451 895 451 l 714 451 l 688 303 z "},"+":{"ha":806,"x_min":77,"x_max":729,"o":"m 729 440 l 430 440 l 430 126 l 376 126 l 376 440 l 77 440 l 77 491 l 376 491 l 376 804 l 430 804 l 430 491 l 729 491 l 729 440 z "},"−":{"ha":806,"x_min":115,"x_max":690,"o":"m 115 491 l 690 491 l 690 440 l 115 440 l 115 491 z "},"×":{"ha":806,"x_min":108,"x_max":698,"o":"m 663 171 l 403 429 l 144 169 l 108 206 l 367 465 l 111 721 l 148 758 l 403 502 l 658 757 l 694 719 l 440 465 l 698 207 l 663 171 z "},"÷":{"ha":806,"x_min":76,"x_max":728,"o":"m 76 491 l 728 491 l 728 440 l 76 440 l 76 491 m 338 712 q 356 758 338 739 q 401 777 374 777 q 427 772 415 777 q 448 758 439 767 q 461 737 456 749 q 467 712 467 725 q 448 666 467 685 q 401 648 428 648 q 356 666 374 648 q 338 712 338 685 m 338 217 q 356 264 338 244 q 401 283 374 283 q 427 277 415 283 q 448 264 439 272 q 461 243 456 255 q 467 217 467 231 q 448 172 467 190 q 401 153 428 153 q 356 172 374 153 q 338 217 338 190 z "},"=":{"ha":806,"x_min":115,"x_max":690,"o":"m 115 386 l 690 386 l 690 335 l 115 335 l 115 386 m 115 603 l 690 603 l 690 552 l 115 552 l 115 603 z "},"≠":{"ha":806,"x_min":116,"x_max":691,"o":"m 474 552 l 402 386 l 691 386 l 691 335 l 380 335 l 298 147 l 248 147 l 330 335 l 116 335 l 116 386 l 353 386 l 425 552 l 116 552 l 116 603 l 447 603 l 528 789 l 578 789 l 497 603 l 691 603 l 691 552 l 474 552 z "},"≈":{"ha":806,"x_min":138,"x_max":668,"o":"m 542 563 q 577 567 560 563 q 609 578 594 571 q 636 594 624 585 q 655 613 647 603 l 668 573 q 613 527 647 543 q 539 510 578 510 q 468 523 503 510 q 399 551 433 535 q 331 578 365 566 q 265 591 297 591 q 198 575 228 591 q 153 540 167 560 l 138 578 q 193 626 158 610 q 269 643 227 643 q 341 631 306 643 q 410 603 376 618 q 477 575 444 588 q 542 563 510 563 m 542 343 q 577 347 560 343 q 609 359 594 351 q 636 375 624 366 q 655 394 647 384 l 668 353 q 613 308 647 324 q 539 292 578 292 q 468 304 503 292 q 399 332 433 317 q 331 360 365 347 q 265 372 297 372 q 198 357 228 372 q 153 321 167 341 l 138 360 q 193 407 158 391 q 269 424 227 424 q 341 411 306 424 q 410 383 376 399 q 477 356 444 368 q 542 343 510 343 z "},"<":{"ha":806,"x_min":121,"x_max":642,"o":"m 239 484 q 216 474 228 478 q 190 467 203 470 q 239 449 216 460 l 623 253 q 638 243 633 249 q 642 229 642 237 l 642 184 l 121 452 l 121 481 l 642 748 l 642 703 q 638 690 642 695 q 623 678 633 684 l 239 484 z "},">":{"ha":806,"x_min":164,"x_max":685,"o":"m 685 481 l 685 452 l 164 184 l 164 229 q 168 243 164 237 q 182 253 172 249 l 567 449 q 590 458 578 454 q 616 466 602 463 q 567 484 590 472 l 182 678 q 164 703 164 688 l 164 748 l 685 481 z "},"±":{"ha":806,"x_min":76,"x_max":728,"o":"m 76 106 l 728 106 l 728 56 l 76 56 l 76 106 m 728 519 l 728 468 l 429 468 l 429 189 l 375 189 l 375 468 l 76 468 l 76 519 l 375 519 l 375 801 l 429 801 l 429 519 l 728 519 z "},"≤":{"ha":806,"x_min":139,"x_max":660,"o":"m 139 106 l 660 106 l 660 56 l 139 56 l 139 106 m 257 509 q 232 500 245 504 q 204 492 219 496 q 257 475 234 486 l 639 286 q 655 275 651 281 q 660 261 660 269 l 660 217 l 139 478 l 139 506 l 660 766 l 660 723 q 655 709 660 715 q 639 697 651 703 l 257 509 z "},"≥":{"ha":806,"x_min":146,"x_max":667,"o":"m 146 106 l 667 106 l 667 56 l 146 56 l 146 106 m 667 506 l 667 478 l 146 217 l 146 261 q 150 275 146 269 q 167 286 155 281 l 549 475 q 601 492 572 486 q 574 500 587 496 q 549 509 560 504 l 167 697 q 150 709 154 703 q 146 723 146 715 l 146 766 l 667 506 z "},"¬":{"ha":806,"x_min":116,"x_max":692,"o":"m 692 235 l 635 235 l 635 440 l 116 440 l 116 491 l 692 491 l 692 235 z "},"℮":{"ha":1157,"x_min":85,"x_max":1085,"o":"m 1000 567 q 971 716 1000 646 q 888 838 942 785 q 760 920 835 890 q 593 950 685 950 q 427 919 503 950 q 296 835 351 888 q 210 709 241 781 q 178 553 178 637 l 1000 553 l 1000 567 m 178 443 q 191 344 178 394 q 231 250 205 295 q 295 165 257 204 q 382 98 333 126 q 491 52 431 69 q 619 36 550 36 q 833 83 741 36 q 992 215 926 129 l 1029 188 q 856 43 961 96 q 606 -10 751 -10 q 457 9 526 -10 q 329 60 387 27 q 225 140 271 94 q 149 242 180 186 q 101 360 117 297 q 85 490 85 424 q 122 689 85 597 q 226 848 159 781 q 386 955 293 916 q 590 993 478 993 q 794 956 703 993 q 949 853 885 919 q 1049 700 1014 788 q 1085 511 1084 613 l 178 511 l 178 443 z "},"ℓ":{"ha":687,"x_min":49,"x_max":657,"o":"m 513 942 q 418 905 465 942 q 333 802 372 867 q 266 650 294 738 q 226 461 238 562 q 378 530 310 490 q 497 615 447 569 q 573 715 546 662 q 600 826 600 768 q 576 913 600 884 q 513 942 553 942 m 49 413 q 107 425 78 418 q 162 440 135 432 q 187 588 169 517 q 229 720 204 658 q 286 832 254 782 q 356 919 319 883 q 435 975 394 955 q 522 994 477 994 q 583 981 558 994 q 625 944 609 967 q 649 892 642 922 q 657 831 657 863 q 626 699 657 761 q 539 583 596 637 q 402 486 482 530 q 222 410 322 442 q 219 340 219 375 q 227 200 219 257 q 249 109 234 144 q 285 58 263 74 q 335 43 306 43 q 441 90 389 43 q 532 237 492 138 l 585 223 q 546 135 571 178 q 488 60 522 93 q 413 8 454 28 q 324 -12 372 -12 q 252 5 283 -12 q 200 64 221 23 q 167 170 178 104 q 156 331 156 235 q 157 361 156 347 q 158 390 157 376 q 109 377 133 383 q 58 366 84 372 l 49 413 z "},"∞":{"ha":1033,"x_min":93,"x_max":940,"o":"m 738 250 q 795 261 768 250 q 841 292 822 272 q 873 342 861 312 q 884 410 884 372 q 873 478 884 449 q 841 528 861 508 q 795 559 822 549 q 738 570 768 570 q 682 557 708 570 q 633 522 656 544 q 589 470 610 499 q 547 410 568 442 q 589 350 568 379 q 633 299 610 321 q 682 263 656 276 q 738 250 708 250 m 294 250 q 351 263 325 250 q 400 299 377 276 q 444 350 423 321 q 485 410 465 379 q 444 470 465 442 q 400 522 423 499 q 351 557 377 544 q 294 570 325 570 q 238 559 264 570 q 191 528 211 549 q 159 478 171 508 q 148 410 148 449 q 159 342 148 372 q 191 292 171 312 q 238 261 211 272 q 294 250 264 250 m 740 624 q 816 609 780 624 q 880 567 852 594 q 923 499 907 539 q 940 410 940 460 q 923 321 940 361 q 880 253 907 281 q 816 211 852 226 q 740 196 780 196 q 670 210 702 196 q 612 247 639 224 q 561 300 585 270 q 517 363 538 331 q 472 300 495 331 q 421 247 448 270 q 362 210 394 224 q 292 196 331 196 q 217 211 253 196 q 153 253 181 226 q 109 321 126 281 q 93 410 93 361 q 109 499 93 460 q 153 567 126 539 q 217 609 181 594 q 292 624 253 624 q 362 610 331 624 q 421 573 394 597 q 472 520 448 550 q 517 457 495 490 q 561 520 538 490 q 612 573 585 550 q 670 610 639 597 q 740 624 702 624 z "},"∂":{"ha":790,"x_min":73,"x_max":717,"o":"m 333 44 q 439 69 390 44 q 527 140 488 94 q 593 252 566 186 q 635 402 621 319 q 613 472 628 438 q 573 533 598 506 q 513 577 548 560 q 430 594 478 594 q 308 568 362 594 q 218 499 255 543 q 161 395 181 455 q 141 265 141 335 q 155 172 141 213 q 194 103 169 131 q 255 59 219 74 q 333 44 290 44 m 266 931 q 314 960 291 948 q 361 980 338 972 q 409 991 384 988 q 461 995 433 995 q 569 970 522 995 q 650 898 617 945 q 700 782 683 851 q 717 626 717 714 q 693 375 717 491 q 619 174 668 259 q 496 40 569 88 q 325 -8 422 -8 q 223 10 269 -8 q 143 65 176 29 q 91 150 110 100 q 73 264 73 201 q 98 413 73 343 q 169 535 124 483 q 280 617 215 587 q 422 647 344 647 q 493 637 459 647 q 558 608 528 628 q 611 558 588 588 q 650 488 635 528 q 653 528 652 508 q 655 566 655 548 q 656 600 656 585 q 656 627 656 616 q 604 860 656 778 q 453 941 552 941 q 393 934 419 941 q 348 918 367 926 q 316 902 328 910 q 296 895 303 895 q 287 898 291 895 q 280 907 283 900 l 266 931 z "},"∫":{"ha":710,"x_min":8,"x_max":701,"o":"m 369 870 q 399 988 377 939 q 452 1068 420 1037 q 526 1114 485 1099 q 617 1128 568 1128 q 662 1125 640 1128 q 701 1113 685 1122 l 696 1085 q 690 1077 694 1079 q 679 1075 686 1075 q 659 1076 672 1075 q 629 1078 647 1078 q 554 1067 588 1078 q 496 1031 521 1056 q 456 967 472 1006 q 433 872 440 928 l 340 9 q 310 -109 332 -60 q 257 -189 289 -158 q 183 -235 224 -220 q 93 -249 141 -249 q 48 -246 70 -249 q 8 -233 25 -243 l 13 -206 q 19 -198 15 -200 q 31 -196 24 -196 q 50 -197 38 -196 q 80 -199 62 -199 q 155 -187 122 -199 q 213 -152 188 -176 q 254 -88 238 -127 q 277 8 270 -49 l 369 870 z "},"√":{"ha":876,"x_min":42,"x_max":856,"o":"m 856 1194 l 469 0 l 414 0 l 228 479 l 69 479 q 50 486 58 479 q 42 508 42 492 l 42 528 l 260 528 q 276 523 270 528 q 285 511 283 518 l 428 137 q 437 107 434 122 q 442 76 440 92 q 453 129 447 102 l 792 1177 q 802 1189 796 1185 q 816 1194 808 1194 l 856 1194 z "},"∏":{"ha":937,"x_min":49,"x_max":888,"o":"m 888 926 l 742 926 l 742 -244 l 674 -244 l 674 926 l 263 926 l 263 -244 l 194 -244 l 194 926 l 49 926 l 49 983 l 888 983 l 888 926 z "},"∑":{"ha":948,"x_min":53,"x_max":878,"o":"m 878 926 l 156 926 l 604 378 l 604 360 l 156 -187 l 878 -187 l 878 -244 l 53 -244 l 53 -219 q 60 -197 53 -207 l 528 370 l 61 935 q 53 958 53 944 l 53 983 l 878 983 l 878 926 z "},"◊":{"ha":806,"x_min":94,"x_max":712,"o":"m 647 471 l 421 932 q 403 987 408 960 q 395 959 399 973 q 385 933 391 946 l 160 471 l 383 13 q 395 -17 390 -2 q 403 -45 399 -31 q 422 12 409 -16 l 647 471 m 712 471 l 426 -107 l 380 -107 l 94 471 l 380 1049 l 426 1049 l 712 471 z "},"←":{"ha":1389,"x_min":85,"x_max":1299,"o":"m 85 442 l 468 825 l 490 803 q 495 786 497 794 q 485 770 493 778 l 221 506 q 175 465 196 481 q 221 470 196 468 q 275 472 246 472 l 1299 472 l 1299 411 l 275 411 q 221 413 246 411 q 175 417 197 415 q 197 400 185 410 q 221 378 208 390 l 488 110 q 498 95 496 103 q 492 78 500 87 l 470 55 l 85 442 z "},"→":{"ha":1389,"x_min":90,"x_max":1304,"o":"m 1304 441 l 921 58 l 899 80 q 893 97 891 89 q 903 113 895 106 l 1168 377 q 1192 400 1181 390 q 1213 417 1203 410 q 1168 413 1192 415 q 1114 411 1143 411 l 90 411 l 90 472 l 1114 472 q 1168 470 1143 472 q 1214 465 1193 468 q 1168 506 1193 481 l 901 772 q 891 788 893 780 q 897 805 889 796 l 918 828 l 1304 441 z "},"↑":{"ha":1042,"x_min":135,"x_max":905,"o":"m 905 674 l 883 652 q 865 646 874 644 q 849 656 857 648 l 585 920 q 545 965 560 944 q 551 867 551 924 l 551 -157 l 491 -157 l 491 867 q 493 920 491 896 q 497 967 494 945 q 457 920 483 946 l 190 653 q 175 644 183 646 q 158 650 167 642 l 135 672 l 522 1057 l 905 674 z "},"↓":{"ha":1042,"x_min":138,"x_max":907,"o":"m 520 -231 l 138 152 l 159 174 q 177 180 169 182 q 192 170 185 178 l 457 -94 q 496 -140 481 -119 q 492 -94 493 -119 q 490 -41 490 -70 l 490 983 l 551 983 l 551 -41 q 550 -94 551 -70 q 545 -140 548 -118 q 563 -118 553 -129 q 585 -94 572 -107 l 852 172 q 867 182 860 180 q 885 176 875 184 l 907 155 l 520 -231 z "},"↗":{"ha":1042,"x_min":42,"x_max":922,"o":"m 922 873 l 922 331 l 891 331 q 874 339 878 332 q 870 357 870 346 l 870 731 q 874 791 870 767 q 845 756 861 774 q 808 717 828 737 l 84 -7 l 42 35 l 766 760 q 805 796 786 780 q 840 826 824 813 q 780 822 815 822 l 402 822 q 384 826 390 822 q 376 842 377 830 l 376 873 l 922 873 z "},"↖":{"ha":1042,"x_min":119,"x_max":999,"o":"m 999 35 l 957 -7 l 233 717 q 197 755 213 737 q 167 790 181 774 q 172 731 172 765 l 172 357 q 167 339 172 346 q 151 331 163 332 l 119 331 l 119 873 l 666 873 l 665 842 q 658 826 665 830 q 640 822 651 822 l 262 822 q 201 826 226 822 q 237 796 218 813 q 276 760 256 780 l 999 35 z "},"↘":{"ha":1042,"x_min":42,"x_max":922,"o":"m 922 543 l 922 0 l 376 0 l 376 31 q 384 47 377 43 q 402 51 390 51 l 780 51 q 840 47 815 51 q 805 77 824 60 q 766 114 786 93 l 42 838 l 84 880 l 808 156 q 845 117 828 136 q 874 82 861 99 q 870 142 870 107 l 870 517 q 874 534 870 527 q 891 542 878 542 l 922 543 z "},"↙":{"ha":1042,"x_min":119,"x_max":999,"o":"m 119 0 l 119 542 l 151 542 q 167 534 163 541 q 172 516 172 527 l 172 142 q 167 83 172 106 q 197 118 181 99 q 233 156 213 136 l 957 880 l 999 838 l 276 113 q 201 47 235 72 q 228 50 213 49 q 262 51 244 51 l 640 51 q 658 47 651 51 q 665 31 665 43 l 666 0 l 119 0 z "},"↔":{"ha":1389,"x_min":85,"x_max":1304,"o":"m 1304 441 l 921 58 l 899 80 q 893 97 891 89 q 903 113 895 106 l 1168 377 q 1192 400 1181 390 q 1213 417 1203 410 q 1168 413 1192 415 q 1114 411 1143 411 l 183 411 q 221 378 201 397 l 488 110 q 498 95 496 103 q 492 78 500 87 l 470 55 l 85 442 l 468 825 l 490 803 q 495 786 497 794 q 485 770 493 778 l 221 506 q 183 472 200 485 l 1114 472 q 1168 470 1143 472 q 1214 465 1193 468 q 1168 506 1193 481 l 901 772 q 891 788 893 780 q 897 805 889 796 l 918 828 l 1304 441 z "},"↕":{"ha":1042,"x_min":135,"x_max":908,"o":"m 521 -231 l 138 152 l 160 174 q 177 180 169 182 q 193 170 185 178 l 458 -94 q 476 -114 467 -105 q 491 -131 484 -123 l 491 867 q 492 920 491 896 q 497 966 494 945 q 457 920 482 946 l 190 653 q 174 644 182 646 q 158 649 167 642 l 135 672 l 522 1057 l 905 674 l 883 652 q 865 646 874 644 q 849 656 857 648 l 585 920 q 545 965 559 946 q 550 920 548 944 q 551 867 551 896 l 551 -132 q 567 -114 558 -124 q 585 -94 575 -105 l 853 172 q 868 182 860 180 q 885 176 876 184 l 908 155 l 521 -231 z "},"Ơ":{"ha":1157,"x_min":81,"x_max":1117,"o":"m 549 51 q 710 81 638 51 q 835 168 783 111 q 916 307 888 225 q 944 492 944 388 q 916 676 944 594 q 835 815 888 758 q 710 902 783 872 q 549 933 638 933 q 389 902 462 933 q 264 815 316 872 q 182 676 211 758 q 153 492 153 594 q 182 307 153 388 q 264 168 211 225 q 389 81 316 111 q 549 51 462 51 m 1107 1076 q 1115 1042 1113 1060 q 1117 1005 1117 1024 q 1103 927 1117 961 q 1064 869 1089 893 q 1003 830 1038 844 q 927 809 968 815 q 994 666 971 746 q 1018 492 1018 587 q 984 285 1018 378 q 888 127 950 192 q 740 25 826 61 q 549 -10 653 -10 q 359 25 445 -10 q 211 127 273 61 q 115 285 149 192 q 81 492 81 378 q 115 698 81 605 q 211 856 149 790 q 359 958 273 922 q 549 994 445 994 q 749 955 660 994 q 901 842 838 915 q 960 853 933 844 q 1007 876 988 862 q 1037 908 1026 890 q 1048 949 1048 926 q 1042 975 1048 965 q 1030 993 1037 985 q 1018 1009 1024 1001 q 1013 1033 1013 1018 q 1063 1076 1013 1076 l 1107 1076 z "},"Ư":{"ha":1117,"x_min":133,"x_max":1115,"o":"m 1104 1076 q 1113 1042 1110 1060 q 1115 1005 1115 1024 q 1097 918 1115 955 q 1046 856 1078 881 q 970 818 1014 831 q 877 806 927 806 l 877 375 q 851 223 877 294 q 777 100 826 153 q 660 18 729 48 q 505 -12 591 -12 q 350 18 419 -12 q 232 100 281 48 q 158 223 184 153 q 133 375 133 294 l 133 983 l 204 983 l 204 376 q 225 248 204 307 q 284 144 245 188 q 378 76 322 101 q 505 51 434 51 q 632 75 576 51 q 726 144 688 100 q 786 247 765 188 q 806 375 806 306 l 806 983 l 877 983 l 877 842 q 945 850 914 842 q 998 872 976 858 q 1033 906 1021 886 q 1046 949 1046 925 q 1040 975 1046 965 q 1028 993 1035 985 q 1015 1009 1021 1001 q 1010 1033 1010 1018 q 1061 1076 1010 1076 l 1104 1076 z "},"ơ":{"ha":826,"x_min":72,"x_max":827,"o":"m 388 43 q 495 64 449 43 q 573 125 542 85 q 619 220 603 165 q 634 346 634 276 q 619 471 634 415 q 573 567 603 527 q 495 628 542 607 q 388 650 449 650 q 280 628 326 650 q 202 567 233 607 q 156 471 172 527 q 140 346 140 415 q 156 220 140 276 q 202 125 172 165 q 280 64 233 85 q 388 43 326 43 m 817 795 q 825 765 823 781 q 827 731 827 748 q 814 660 827 692 q 779 607 801 629 q 725 571 756 585 q 656 553 693 558 q 702 346 702 467 q 681 199 702 265 q 619 88 660 134 q 520 16 579 41 q 388 -9 462 -9 q 255 16 313 -9 q 155 88 196 41 q 93 199 115 134 q 72 346 72 265 q 93 493 72 427 q 155 605 115 558 q 255 677 196 651 q 388 702 313 702 q 533 671 471 702 q 636 583 596 640 q 729 616 694 588 q 765 687 765 643 q 759 707 765 699 q 748 720 754 714 q 737 735 742 727 q 732 756 732 742 q 778 795 732 795 l 817 795 z "},"ư":{"ha":842,"x_min":106,"x_max":847,"o":"m 838 795 q 845 765 843 781 q 847 731 847 748 q 832 655 847 688 q 791 600 817 622 q 728 565 765 577 q 650 551 692 553 l 650 0 l 613 0 q 593 18 596 0 l 587 121 q 476 25 539 61 q 336 -11 413 -11 q 235 7 278 -11 q 164 59 192 25 q 121 141 135 93 q 106 249 106 189 l 106 691 l 173 691 l 173 249 q 217 97 173 152 q 353 42 262 42 q 479 76 420 42 q 583 172 538 110 l 583 691 l 650 691 l 650 583 q 705 593 680 585 q 748 614 730 601 q 776 646 766 628 q 785 687 785 665 q 780 707 785 699 q 769 720 775 714 q 757 735 763 727 q 752 756 752 742 q 798 795 752 795 l 838 795 z "},"₫":{"ha":821,"x_min":69,"x_max":754,"o":"m 76 -119 l 722 -119 l 722 -162 l 76 -162 l 76 -119 m 581 535 q 492 619 540 594 q 385 643 444 643 q 276 622 323 643 q 199 559 230 600 q 152 461 168 519 q 137 331 137 403 q 152 207 137 260 q 194 117 167 153 q 263 63 222 81 q 353 44 303 44 q 482 80 426 44 q 581 178 537 115 l 581 535 m 754 848 l 754 803 l 647 803 l 647 0 l 610 0 q 590 18 593 0 l 583 128 q 474 27 533 63 q 336 -9 415 -9 q 224 14 274 -9 q 140 81 174 37 q 87 187 106 124 q 69 329 69 250 q 89 478 69 411 q 148 594 109 546 q 243 669 187 642 q 371 695 299 695 q 492 669 442 695 q 581 592 542 642 l 581 803 l 409 803 l 409 848 l 581 848 l 581 1010 l 647 1010 l 647 848 l 754 848 z "},"○":{"ha":921,"x_min":80,"x_max":841,"o":"m 80 453 q 110 601 80 531 q 191 722 140 670 q 313 803 243 774 q 460 833 382 833 q 608 803 539 833 q 730 722 678 774 q 811 601 781 670 q 841 453 841 531 q 811 305 841 374 q 730 184 781 235 q 608 102 678 132 q 460 72 539 72 q 313 102 382 72 q 191 184 243 132 q 110 305 140 235 q 80 453 80 374 m 139 453 q 164 327 139 386 q 232 225 189 269 q 334 156 276 181 q 460 131 393 131 q 586 156 527 131 q 688 225 644 181 q 757 327 732 268 q 782 453 782 385 q 757 578 782 519 q 688 681 732 637 q 586 750 644 724 q 460 775 527 775 q 334 750 393 775 q 232 681 276 725 q 164 579 189 638 q 139 453 139 520 z "},"◌":{"ha":921,"x_min":97,"x_max":827,"o":"m 431 788 q 440 809 431 801 q 461 818 449 818 q 482 809 473 818 q 491 788 491 801 q 482 767 491 776 q 461 758 473 758 q 440 767 449 758 q 431 788 431 776 m 559 763 q 568 784 559 775 q 588 792 576 792 q 609 784 600 792 q 618 763 618 775 q 609 742 618 751 q 588 733 600 733 q 568 742 576 733 q 559 763 559 751 m 668 691 q 677 711 668 703 q 697 720 685 720 q 718 711 709 720 q 727 691 727 703 q 718 670 727 679 q 697 661 709 661 q 677 670 685 661 q 668 691 668 679 m 738 583 q 747 604 738 595 q 768 613 756 613 q 789 604 780 613 q 798 583 798 595 q 789 562 798 571 q 768 553 780 553 q 747 562 756 553 q 738 583 738 571 m 767 453 q 776 474 767 465 q 797 483 785 483 q 818 474 809 483 q 827 453 827 465 q 818 433 827 442 q 797 424 809 424 q 776 433 785 424 q 767 453 767 442 m 302 763 q 311 784 302 775 q 331 792 319 792 q 352 784 343 792 q 361 763 361 775 q 352 742 361 751 q 331 733 343 733 q 311 742 319 733 q 302 763 302 751 m 194 691 q 202 711 194 703 q 224 720 211 720 q 244 711 235 720 q 253 691 253 703 q 244 670 253 679 q 224 661 235 661 q 202 670 211 661 q 194 691 194 679 m 122 583 q 131 604 122 595 q 151 613 140 613 q 172 604 163 613 q 181 583 181 595 q 172 562 181 571 q 151 553 163 553 q 131 562 140 553 q 122 583 122 571 m 97 453 q 105 474 97 465 q 126 483 114 483 q 147 474 138 483 q 156 453 156 465 q 147 433 156 442 q 126 424 138 424 q 105 433 114 424 q 97 453 97 442 m 738 326 q 747 347 738 338 q 768 356 756 356 q 789 347 780 356 q 798 326 798 338 q 789 305 798 314 q 768 296 780 296 q 747 305 756 296 q 738 326 738 314 m 122 326 q 131 347 122 338 q 151 356 140 356 q 172 347 163 356 q 181 326 181 338 q 172 305 181 314 q 151 296 163 296 q 131 305 140 296 q 122 326 122 314 m 668 217 q 677 238 668 229 q 697 247 685 247 q 718 238 709 247 q 727 217 727 229 q 718 196 727 205 q 697 188 709 188 q 677 196 685 188 q 668 217 668 205 m 194 217 q 202 238 194 229 q 224 247 211 247 q 244 238 235 247 q 253 217 253 229 q 244 196 253 205 q 224 188 235 188 q 202 196 211 188 q 194 217 194 205 m 559 147 q 568 167 559 158 q 588 176 576 176 q 609 167 600 176 q 618 147 618 158 q 609 126 618 135 q 588 117 600 117 q 568 126 576 117 q 559 147 559 135 m 302 147 q 311 167 302 158 q 331 176 319 176 q 352 167 343 176 q 361 147 361 158 q 352 126 361 135 q 331 117 343 117 q 311 126 319 117 q 302 147 302 135 m 431 117 q 440 138 431 129 q 461 147 449 147 q 482 138 473 147 q 491 117 491 129 q 482 97 491 106 q 461 88 473 88 q 440 97 449 88 q 431 117 431 106 z "},"͏":{"ha":0,"x_min":0,"x_max":0,"o":""},"᷂":{"ha":0,"x_min":-76,"x_max":74,"o":"m -76 -60 q -69 -53 -76 -57 q -53 -45 -62 -49 q -35 -40 -44 -42 q -19 -37 -26 -37 q -10 -40 -13 -37 q -2 -45 -6 -42 q 10 -53 3 -49 q 30 -61 17 -57 q 74 -102 74 -75 q 62 -128 74 -118 q 36 -145 50 -138 q 10 -158 22 -153 q -2 -171 -2 -164 q 8 -182 -2 -177 q 29 -194 17 -187 q 51 -211 41 -201 q 60 -234 60 -220 q 52 -256 60 -247 q 33 -271 44 -264 q 15 -284 23 -278 q 6 -299 6 -290 q 16 -317 6 -310 q 36 -329 26 -324 q 37 -331 37 -330 q 34 -335 37 -335 q 0 -320 15 -331 q -15 -293 -15 -309 q -8 -273 -15 -281 q 9 -258 0 -265 q 27 -246 19 -251 q 35 -235 35 -241 q 24 -223 35 -229 q 0 -210 13 -217 q -24 -194 -13 -203 q -35 -171 -35 -185 q -24 -147 -35 -156 q 2 -129 -12 -137 q 27 -115 16 -122 q 39 -101 39 -109 q 31 -90 39 -94 q 9 -85 23 -85 q -1 -86 2 -85 q -7 -89 -5 -87 q -12 -91 -9 -90 q -21 -92 -15 -92 q -40 -89 -30 -92 q -57 -81 -49 -85 q -70 -70 -65 -76 q -76 -60 -76 -65 z "},"Ɓ":{"ha":1063,"x_min":42,"x_max":981,"o":"m 649 57 q 844 113 778 57 q 910 270 910 169 q 893 354 910 317 q 842 417 875 391 q 760 457 808 443 q 649 471 711 471 l 402 471 l 402 57 l 649 57 m 402 926 l 402 523 l 615 523 q 731 540 683 523 q 810 586 779 558 q 856 651 841 615 q 870 725 870 687 q 807 875 870 824 q 613 926 744 926 l 402 926 m 613 983 q 759 966 697 983 q 861 917 821 949 q 921 838 901 885 q 940 733 940 792 q 927 658 940 694 q 888 591 913 622 q 825 538 863 560 q 740 503 788 515 q 918 427 856 487 q 981 269 981 367 q 958 156 981 206 q 894 72 936 106 q 790 18 851 37 q 649 0 728 0 l 331 0 l 331 929 l 301 929 q 152 889 200 929 q 103 776 103 848 q 107 740 103 758 q 115 706 110 722 q 116 689 117 697 q 103 678 115 681 l 64 669 q 48 723 53 698 q 42 777 42 749 q 59 862 42 824 q 109 927 76 900 q 190 968 142 953 q 301 983 238 983 l 613 983 z "},"Ƅ":{"ha":890,"x_min":62,"x_max":840,"o":"m 490 597 q 641 574 576 597 q 751 510 707 550 q 817 417 795 470 q 840 303 840 363 q 818 183 840 239 q 752 87 796 128 q 644 23 709 47 q 492 0 578 0 l 181 0 l 181 713 l 62 782 l 199 983 l 251 983 l 251 597 l 490 597 m 492 57 q 616 77 564 57 q 702 130 669 97 q 752 209 736 164 q 769 305 769 254 q 752 394 769 351 q 700 469 735 436 q 614 521 666 501 q 492 540 562 540 l 252 540 l 252 57 l 492 57 z "},"Ɔ":{"ha":949,"x_min":55,"x_max":868,"o":"m 95 165 q 108 159 101 165 q 167 112 138 132 q 232 78 197 92 q 308 57 267 64 q 402 50 349 50 q 558 80 486 50 q 683 167 630 110 q 765 306 735 224 q 795 492 795 388 q 766 676 795 594 q 683 815 736 758 q 555 902 629 872 q 393 933 481 933 q 274 917 324 933 q 191 884 224 902 q 139 850 158 865 q 112 835 120 835 q 94 843 99 835 l 73 874 q 214 963 137 931 q 393 994 292 994 q 586 957 499 994 q 736 855 674 921 q 833 696 799 788 q 868 492 868 603 q 834 285 868 378 q 739 126 800 192 q 593 25 678 60 q 406 -11 508 -11 q 294 -1 345 -11 q 200 27 243 9 q 122 72 158 46 q 55 131 85 98 l 83 160 q 95 165 88 165 z "},"Ƈ":{"ha":942,"x_min":82,"x_max":1103,"o":"m 895 131 q 828 72 865 98 q 750 27 792 46 q 656 -1 707 9 q 544 -11 605 -11 q 357 25 442 -11 q 211 126 272 60 q 116 285 150 192 q 82 492 82 378 q 117 696 82 603 q 214 855 151 788 q 364 957 276 921 q 557 994 451 994 q 701 974 637 994 q 820 918 766 955 q 819 942 819 931 q 819 968 819 954 q 829 1055 819 1015 q 860 1124 839 1095 q 914 1169 881 1153 q 992 1185 947 1185 q 1049 1180 1023 1185 q 1103 1164 1074 1174 l 1094 1129 q 1084 1116 1092 1117 q 1067 1117 1076 1115 q 1032 1125 1050 1122 q 997 1128 1014 1128 q 907 1082 936 1128 q 877 955 877 1036 l 877 874 l 856 843 q 838 835 850 835 q 811 850 830 835 q 759 884 792 865 q 676 917 726 902 q 557 933 626 933 q 394 902 468 933 q 267 815 321 872 q 184 676 214 758 q 155 492 155 594 q 185 306 155 388 q 267 167 215 224 q 392 80 320 110 q 548 50 464 50 q 642 57 601 50 q 718 78 683 64 q 783 112 753 92 q 842 159 813 132 q 855 165 849 165 q 867 160 862 165 l 895 131 z "},"Ɗ":{"ha":1241,"x_min":42,"x_max":1158,"o":"m 690 58 q 851 87 778 58 q 976 172 924 116 q 1056 308 1028 227 q 1085 492 1085 388 q 1056 675 1085 594 q 976 811 1028 756 q 851 896 924 867 q 690 925 778 925 l 402 925 l 402 58 l 690 58 m 690 983 q 880 949 794 983 q 1028 851 967 915 q 1124 696 1090 787 q 1158 492 1158 605 q 1124 287 1158 378 q 1028 132 1090 196 q 880 34 967 68 q 690 0 794 0 l 331 0 l 331 929 l 301 929 q 152 889 200 929 q 103 776 103 848 q 107 740 103 758 q 115 706 110 722 q 116 689 117 697 q 103 678 115 681 l 64 669 q 48 723 53 698 q 42 777 42 749 q 59 862 42 824 q 109 927 76 900 q 190 968 142 953 q 301 983 238 983 l 690 983 z "},"Ƌ":{"ha":845,"x_min":72,"x_max":700,"o":"m 628 57 l 628 481 l 399 481 q 206 429 269 481 q 143 273 143 376 q 207 114 143 172 q 400 57 271 57 l 628 57 m 700 983 l 700 0 l 400 0 q 260 19 322 0 q 158 75 199 39 q 94 163 116 111 q 72 279 72 215 q 92 388 72 340 q 153 469 113 435 q 255 520 194 503 q 399 538 317 538 l 628 538 l 628 926 l 103 926 l 103 983 l 700 983 z "},"Ǝ":{"ha":804,"x_min":69,"x_max":659,"o":"m 659 0 l 70 0 l 69 59 l 588 59 l 588 469 l 157 469 l 157 526 l 588 526 l 588 924 l 70 924 l 70 983 l 659 983 l 659 0 z "},"Ə":{"ha":986,"x_min":75,"x_max":903,"o":"m 97 858 q 250 959 160 923 q 456 996 340 996 q 639 961 557 996 q 780 860 722 926 q 871 696 839 793 q 903 476 903 599 q 873 282 903 370 q 786 128 843 193 q 648 28 730 64 q 463 -8 566 -8 q 310 20 381 -8 q 187 102 239 48 q 105 237 135 157 q 75 419 75 317 q 81 448 75 440 q 101 456 88 456 l 830 456 l 830 476 q 803 672 830 587 q 726 816 776 758 q 606 903 676 874 q 449 933 535 933 q 317 916 372 933 q 227 878 263 899 q 170 841 191 858 q 137 824 149 824 q 126 826 131 824 q 118 833 122 829 l 97 858 m 144 404 q 168 257 144 322 q 235 146 192 192 q 336 76 278 100 q 463 51 394 51 q 606 76 542 51 q 715 148 669 101 q 789 259 761 194 q 826 404 817 324 l 144 404 z "},"Ɛ":{"ha":822,"x_min":84,"x_max":765,"o":"m 765 126 q 709 72 742 97 q 634 28 676 47 q 543 0 592 10 q 438 -10 493 -10 q 297 10 362 -10 q 185 67 232 30 q 111 158 138 105 q 84 278 84 211 q 99 363 84 322 q 144 438 115 403 q 217 499 174 473 q 318 540 261 526 q 222 572 262 551 q 158 619 183 592 q 122 678 133 647 q 110 743 110 710 q 133 841 110 795 q 200 920 156 886 q 306 973 244 953 q 448 993 369 993 q 543 985 499 993 q 623 964 586 978 q 691 932 660 951 q 747 889 722 913 l 731 863 q 722 853 726 856 q 712 851 717 851 q 686 864 703 851 q 638 893 669 877 q 561 921 608 908 q 447 934 514 934 q 332 918 381 934 q 250 876 283 903 q 201 815 217 850 q 185 740 185 780 q 206 663 185 696 q 264 607 227 629 q 350 574 301 585 q 458 563 400 563 l 616 563 l 616 510 l 453 510 q 325 492 380 510 q 232 441 269 473 q 176 369 195 410 q 157 283 157 328 q 178 190 157 233 q 237 115 199 147 q 331 67 276 84 q 454 49 386 49 q 565 65 518 49 q 643 99 612 80 q 692 134 675 117 q 713 154 709 151 q 726 161 720 161 q 738 156 733 161 l 765 126 z "},"Ƒ":{"ha":784,"x_min":-81,"x_max":734,"o":"m 217 924 l 217 510 l 665 510 l 665 451 l 217 451 l 217 -27 q 205 -122 217 -79 q 170 -195 193 -165 q 113 -241 147 -225 q 33 -258 78 -258 q -26 -252 0 -258 q -81 -236 -52 -247 l -72 -201 q -61 -188 -69 -190 q -44 -189 -53 -187 q -9 -197 -27 -194 q 25 -200 9 -200 q 116 -155 86 -200 q 145 -27 145 -109 l 145 983 l 734 983 l 734 924 l 217 924 z "},"Ɠ":{"ha":1024,"x_min":81,"x_max":1137,"o":"m 911 876 l 892 846 q 863 838 882 829 q 833 858 852 842 q 779 890 813 873 q 695 919 745 906 q 572 933 644 933 q 399 902 476 933 q 267 815 322 872 q 183 676 213 758 q 153 492 153 594 q 183 305 153 388 q 267 165 213 222 q 396 77 321 108 q 563 47 472 47 q 655 52 613 47 q 732 67 697 57 q 800 93 768 78 q 865 126 833 108 l 865 391 l 677 391 q 664 396 669 391 q 659 407 659 401 l 659 446 l 930 446 l 930 97 q 854 51 893 71 q 769 17 815 31 q 672 -4 724 3 q 558 -11 620 -11 q 364 25 452 -11 q 214 126 276 60 q 116 285 151 192 q 81 492 81 378 q 116 698 81 606 q 214 857 150 791 q 369 958 278 922 q 574 994 460 994 q 731 975 663 994 q 853 920 798 956 q 852 943 852 932 q 852 968 852 955 q 862 1055 852 1015 q 894 1124 872 1095 q 948 1169 915 1153 q 1025 1185 980 1185 q 1082 1180 1056 1185 q 1137 1164 1108 1174 l 1128 1129 q 1117 1116 1125 1117 q 1101 1117 1110 1115 q 1065 1125 1083 1122 q 1031 1128 1047 1128 q 941 1082 970 1128 q 911 955 911 1036 l 911 876 z "},"Ɣ":{"ha":893,"x_min":-11,"x_max":904,"o":"m 647 55 q 631 71 638 60 l 445 338 q 438 323 442 330 q 429 308 435 315 l 263 67 q 256 61 260 64 q 248 55 252 58 l 647 55 m 490 375 l 755 0 l 139 0 l 405 379 l -11 983 l 57 983 q 72 979 67 983 q 81 968 77 974 l 450 423 l 451 424 l 815 968 q 824 979 819 974 q 837 983 829 983 l 904 983 l 490 375 z "},"Ɩ":{"ha":411,"x_min":140,"x_max":391,"o":"m 140 983 l 211 983 l 211 188 q 341 47 211 47 l 391 47 l 391 22 q 373 -1 391 6 q 317 -8 355 -8 q 241 5 274 -8 q 185 44 208 19 q 151 105 163 69 q 140 185 140 140 l 140 983 z "},"Ƙ":{"ha":910,"x_min":145,"x_max":890,"o":"m 217 529 l 275 529 q 298 530 288 529 q 317 534 308 531 q 334 544 326 538 q 351 561 342 550 l 591 890 q 674 968 627 943 q 787 992 722 992 q 844 987 819 992 q 890 973 869 981 l 883 938 q 872 925 880 926 q 853 926 864 924 q 824 933 840 931 q 790 936 808 936 q 653 866 708 936 l 421 551 q 397 525 409 535 q 369 509 385 515 q 402 495 388 505 q 431 469 417 485 l 869 0 l 812 0 q 786 5 794 0 q 770 19 778 9 l 368 438 q 353 454 360 447 q 337 465 346 460 q 316 472 328 469 q 288 474 305 474 l 217 474 l 217 0 l 145 0 l 145 984 l 217 984 l 217 529 z "},"Ɯ":{"ha":1476,"x_min":134,"x_max":1331,"o":"m 1331 983 l 1331 1 l 1297 1 q 1279 7 1285 1 q 1271 26 1273 13 l 1263 192 q 1210 109 1240 147 q 1145 45 1181 72 q 1068 4 1109 19 q 982 -10 1026 -10 q 814 49 880 -10 q 723 213 749 108 q 675 113 706 156 q 606 43 645 71 q 522 3 567 16 q 431 -10 477 -10 q 305 14 360 -10 q 212 84 250 38 q 154 199 174 131 q 134 356 134 267 l 134 983 l 206 983 l 206 356 q 222 224 206 281 q 270 126 239 166 q 345 66 301 87 q 443 46 389 46 q 540 66 494 46 q 620 124 585 85 q 676 221 656 163 q 697 356 697 279 l 697 983 l 769 983 l 769 356 q 784 227 769 284 q 828 129 799 169 q 900 67 858 89 q 995 46 942 46 q 1077 62 1038 46 q 1150 108 1116 78 q 1212 181 1184 138 q 1260 276 1240 223 l 1260 983 l 1331 983 z "},"Ɲ":{"ha":1049,"x_min":-81,"x_max":903,"o":"m 903 983 l 903 0 l 870 0 q 855 3 861 0 q 844 14 849 6 l 206 867 q 208 827 208 846 l 208 -44 q 197 -139 208 -97 q 164 -212 186 -182 q 109 -259 142 -242 q 31 -275 76 -275 q -26 -269 0 -275 q -81 -253 -52 -264 l -72 -219 q -61 -206 -69 -207 q -44 -206 -53 -204 q -9 -215 -27 -212 q 25 -217 9 -217 q 116 -172 86 -217 q 145 -44 145 -126 l 145 983 l 181 983 q 195 980 190 983 q 207 969 201 978 l 844 119 q 842 158 842 140 l 842 983 l 903 983 z "},"Ɵ":{"ha":1099,"x_min":81,"x_max":1018,"o":"m 153 476 q 186 297 156 376 q 268 164 216 219 q 392 80 320 109 q 549 51 463 51 q 708 80 636 51 q 831 164 779 109 q 913 297 883 219 q 944 476 942 376 l 153 476 m 943 531 q 907 700 938 625 q 825 826 877 774 q 703 905 774 878 q 549 933 633 933 q 396 905 466 933 q 274 826 326 878 q 191 700 222 774 q 155 531 160 625 l 943 531 m 549 994 q 740 958 653 994 q 888 856 826 922 q 984 698 950 790 q 1018 492 1018 605 q 984 285 1018 378 q 888 127 950 192 q 740 25 826 61 q 549 -10 653 -10 q 359 25 445 -10 q 211 127 273 61 q 115 285 149 192 q 81 492 81 378 q 115 698 81 605 q 211 856 149 790 q 359 958 273 922 q 549 994 445 994 z "},"Ƣ":{"ha":1338,"x_min":83,"x_max":1199,"o":"m 512 51 q 655 81 590 51 q 768 168 720 111 q 842 306 815 224 q 869 492 869 388 q 842 676 869 594 q 768 816 815 758 q 655 903 720 873 q 512 934 590 934 q 369 903 435 934 q 256 816 303 873 q 182 676 209 758 q 156 492 156 594 q 182 306 156 388 q 256 168 209 224 q 369 81 303 111 q 512 51 435 51 m 1127 776 q 1120 838 1127 809 q 1097 888 1113 867 q 1057 921 1081 909 q 1000 933 1033 933 q 911 908 954 933 q 833 844 868 883 q 913 690 885 779 q 942 492 942 601 q 910 285 942 378 q 823 127 879 193 q 687 26 766 62 q 512 -9 608 -9 q 337 26 416 -9 q 201 127 258 62 q 114 285 144 193 q 83 492 83 378 q 114 698 83 605 q 201 856 144 790 q 337 958 258 922 q 512 994 416 994 q 672 964 599 994 q 800 881 744 935 q 847 925 822 904 q 898 960 871 945 q 953 984 924 975 q 1013 992 982 992 q 1095 977 1060 992 q 1153 933 1130 961 q 1187 864 1176 904 q 1199 776 1199 824 l 1199 -247 l 1127 -247 l 1127 776 z "},"Ƥ":{"ha":988,"x_min":42,"x_max":933,"o":"m 585 453 q 701 471 649 453 q 788 521 752 489 q 843 596 824 553 q 862 691 862 640 q 792 865 862 804 q 585 926 723 926 l 402 926 l 402 453 l 585 453 m 585 983 q 845 907 758 983 q 933 691 933 831 q 909 572 933 626 q 840 479 885 518 q 730 418 794 440 q 585 396 665 396 l 402 396 l 402 0 l 331 0 l 331 929 l 301 929 q 152 889 200 929 q 103 776 103 848 q 107 740 103 758 q 115 706 110 722 q 116 689 117 697 q 103 678 115 681 l 64 669 q 48 723 53 698 q 42 777 42 749 q 59 862 42 824 q 109 927 76 900 q 190 968 142 953 q 301 983 238 983 l 585 983 z "},"Ʀ":{"ha":801,"x_min":145,"x_max":823,"o":"m 387 338 q 504 353 452 338 q 591 398 556 369 q 646 468 627 427 q 665 560 665 509 q 596 716 665 665 q 397 767 528 767 l 217 767 l 217 338 l 387 338 m 823 -160 l 762 -160 q 742 -156 750 -160 q 727 -142 734 -152 l 412 257 q 400 270 406 265 q 387 279 394 276 q 370 283 380 282 q 345 285 360 285 l 217 285 l 217 0 l 145 0 l 145 993 l 217 993 l 217 823 l 397 823 q 650 758 566 823 q 735 565 735 692 q 715 462 735 509 q 659 380 696 415 q 571 323 623 345 q 455 293 519 301 q 485 265 472 283 l 823 -160 z "},"Ƨ":{"ha":737,"x_min":69,"x_max":674,"o":"m 106 895 q 216 969 156 945 q 354 994 277 994 q 475 973 422 994 q 564 917 528 952 q 619 837 600 883 q 638 742 638 792 q 616 637 638 680 q 560 565 594 594 q 480 516 525 535 q 389 480 435 497 q 297 445 342 463 q 217 404 252 428 q 161 345 183 380 q 140 258 140 310 q 156 171 140 210 q 203 105 172 133 q 280 63 235 78 q 383 48 325 48 q 458 56 425 48 q 517 77 492 65 q 563 103 543 89 q 596 130 582 117 q 619 150 610 142 q 635 158 628 158 q 655 148 647 158 l 674 117 q 551 23 622 58 q 384 -11 481 -11 q 251 9 309 -11 q 152 65 192 29 q 91 152 112 101 q 69 264 69 203 q 91 365 69 324 q 148 436 113 407 q 227 486 183 466 q 319 524 272 506 q 410 559 365 541 q 490 601 455 576 q 547 660 525 626 q 568 744 568 694 q 554 817 568 782 q 513 877 540 851 q 445 919 485 903 q 353 935 406 935 q 264 922 300 935 q 203 893 227 908 q 164 864 178 877 q 140 851 149 851 q 122 863 129 851 l 106 895 z "},"Ƭ":{"ha":902,"x_min":42,"x_max":882,"o":"m 882 922 l 537 922 l 537 0 l 465 0 l 465 922 l 300 922 q 150 884 198 922 q 103 776 103 846 q 106 740 103 758 q 115 706 109 722 q 115 689 117 697 q 102 678 114 681 l 63 669 q 47 723 53 698 q 42 777 42 749 q 59 862 42 824 q 109 927 76 900 q 190 968 142 953 q 300 983 238 983 l 882 983 l 882 922 z "},"Ʈ":{"ha":804,"x_min":20,"x_max":784,"o":"m 439 -56 q 469 -180 439 -136 q 565 -224 499 -224 q 614 -218 595 -224 q 639 -212 633 -212 q 648 -214 643 -212 q 656 -226 653 -217 l 663 -253 q 612 -270 636 -265 q 559 -275 588 -275 q 472 -259 508 -275 q 412 -215 435 -244 q 378 -143 389 -185 q 367 -49 367 -101 l 367 922 l 20 922 l 20 983 l 784 983 l 784 922 l 439 922 l 439 -56 z "},"Ʊ":{"ha":1110,"x_min":89,"x_max":1020,"o":"m 555 -11 q 377 21 461 -11 q 230 113 293 53 q 128 260 166 173 q 91 457 91 347 q 116 624 91 547 q 184 763 141 702 q 285 867 227 824 q 410 928 344 909 q 373 923 392 925 q 335 922 353 922 l 89 922 l 89 958 q 96 976 89 969 q 115 983 103 983 l 468 983 l 468 899 q 345 845 401 885 q 248 748 289 806 q 185 615 208 690 q 162 458 162 541 q 194 281 162 357 q 281 153 227 204 q 407 76 335 102 q 555 50 478 50 q 703 76 632 50 q 828 153 774 102 q 915 281 883 204 q 948 458 948 357 q 925 615 948 541 q 861 748 902 690 q 765 845 821 806 q 642 899 708 885 l 642 983 l 994 983 q 1013 976 1006 983 q 1020 958 1020 969 l 1020 922 l 774 922 q 737 923 756 922 q 699 928 717 925 q 824 867 765 909 q 925 763 882 824 q 994 624 969 702 q 1019 457 1019 547 q 981 260 1019 347 q 880 113 944 173 q 733 21 817 53 q 555 -11 649 -11 z "},"Ʋ":{"ha":997,"x_min":136,"x_max":914,"o":"m 617 972 q 671 988 645 983 q 726 994 697 994 q 814 976 778 994 q 872 924 849 958 q 904 840 894 890 q 914 726 914 790 q 891 516 914 614 q 827 335 867 417 q 732 189 786 253 q 615 80 677 125 q 487 12 553 35 q 356 -12 421 -12 q 261 6 303 -12 q 192 60 220 23 q 150 155 165 97 q 136 294 136 213 l 136 983 l 208 983 l 208 294 q 217 179 208 226 q 247 104 227 133 q 296 62 267 75 q 366 49 326 49 q 477 71 421 49 q 587 133 534 92 q 686 234 640 174 q 767 368 733 293 q 822 534 802 444 q 842 729 842 625 q 838 813 842 775 q 819 878 833 851 q 782 921 806 906 q 722 936 759 936 q 688 933 706 936 q 653 925 670 931 q 636 924 644 923 q 626 938 628 926 l 617 972 l 617 972 z "},"Ƴ":{"ha":976,"x_min":14,"x_max":944,"o":"m 664 872 q 741 963 699 933 q 841 993 783 993 q 893 988 870 993 q 944 972 916 982 l 935 938 q 925 925 933 926 q 908 926 917 924 q 876 934 892 931 q 843 938 860 938 q 776 915 805 938 q 723 853 747 892 l 449 406 l 449 0 l 377 0 l 377 406 l 14 983 l 76 983 q 92 978 85 983 q 103 965 98 974 l 383 514 q 400 483 393 498 q 413 453 408 468 q 443 514 424 481 l 664 872 z "},"Ƶ":{"ha":838,"x_min":51,"x_max":780,"o":"m 780 958 q 770 930 780 945 l 486 533 l 758 533 l 758 478 l 447 478 l 147 59 l 775 59 l 775 0 l 51 0 l 51 26 q 54 39 51 33 q 60 51 56 45 l 365 478 l 91 478 l 91 533 l 406 533 l 685 924 l 69 924 l 69 983 l 780 983 l 780 958 z "},"Ʒ":{"ha":807,"x_min":52,"x_max":733,"o":"m 370 595 q 537 574 468 595 q 650 515 606 552 q 713 428 693 478 q 733 321 733 378 q 705 189 733 249 q 629 84 678 128 q 513 15 581 40 q 366 -10 446 -10 q 265 1 313 -10 q 176 31 217 12 q 104 74 135 49 q 52 126 72 99 l 80 156 q 87 161 83 160 q 92 163 90 163 q 101 161 97 163 q 110 154 104 160 q 143 121 121 140 q 199 87 166 103 q 273 60 231 71 q 365 49 315 49 q 488 70 433 49 q 581 128 542 92 q 639 214 619 165 q 660 317 660 263 q 644 405 660 364 q 591 476 628 446 q 496 524 555 507 q 352 542 438 542 l 267 542 l 267 570 q 269 584 267 578 q 278 598 272 591 l 605 924 l 71 924 l 71 983 l 706 983 l 706 958 q 704 943 706 951 q 694 927 702 935 l 358 595 l 370 595 z "},"Ƹ":{"ha":808,"x_min":75,"x_max":756,"o":"m 756 126 q 704 74 735 99 q 632 31 672 49 q 544 1 592 12 q 442 -10 496 -10 q 294 15 362 -10 q 178 84 227 40 q 102 189 130 128 q 75 321 75 249 q 95 428 75 378 q 158 515 115 478 q 270 574 201 552 q 438 595 340 595 l 449 595 l 115 927 q 104 943 106 935 q 101 958 101 951 l 101 983 l 737 983 l 737 924 l 203 924 l 529 598 q 539 584 536 591 q 541 570 541 578 l 541 542 l 456 542 q 311 524 370 542 q 216 476 253 507 q 164 405 180 446 q 148 317 148 364 q 168 214 148 263 q 227 128 189 165 q 320 70 265 92 q 443 49 374 49 q 535 60 493 49 q 609 87 577 71 q 664 121 642 103 q 698 154 687 140 q 707 161 703 160 q 715 163 710 163 q 721 161 718 163 q 728 156 724 160 l 756 126 z "},"Ƽ":{"ha":788,"x_min":54,"x_max":715,"o":"m 687 954 q 677 931 687 940 q 648 922 668 922 l 304 922 l 211 597 q 367 616 295 616 q 518 594 453 616 q 627 533 583 572 q 693 439 671 493 q 715 320 715 385 q 690 191 715 251 q 619 85 665 131 q 511 14 574 40 q 371 -12 448 -12 q 266 -1 315 -12 q 176 28 217 10 q 105 72 136 47 q 54 125 74 97 l 79 153 q 92 160 85 160 q 106 153 99 160 q 129 132 111 149 q 178 96 147 115 q 257 63 210 77 q 365 48 303 48 q 488 70 435 48 q 575 131 540 93 q 627 218 610 169 q 644 320 644 267 q 626 417 644 373 q 573 492 608 460 q 483 540 537 523 q 360 557 430 557 q 272 550 318 557 q 175 530 225 544 l 132 544 l 241 927 q 207 926 224 926 q 172 926 190 926 l 113 926 q 93 932 99 926 q 87 947 87 939 l 87 983 l 687 983 l 687 954 z "},"Ǥ":{"ha":1088,"x_min":81,"x_max":1068,"o":"m 1068 235 l 931 235 l 931 97 q 854 51 894 71 q 769 17 815 31 q 672 -4 724 3 q 558 -11 620 -11 q 364 25 452 -11 q 214 126 276 60 q 116 285 151 192 q 81 492 81 378 q 116 698 81 606 q 215 857 151 791 q 370 958 278 922 q 574 994 461 994 q 678 986 631 994 q 767 964 726 978 q 843 927 808 949 q 911 876 878 905 l 892 846 q 880 836 888 838 q 863 838 873 833 q 833 858 853 842 q 780 890 813 873 q 695 919 746 906 q 572 933 644 933 q 399 902 476 933 q 268 815 322 872 q 184 676 213 758 q 154 492 154 594 q 184 305 154 388 q 268 165 214 222 q 397 77 322 108 q 563 47 472 47 q 656 52 614 47 q 733 68 697 58 q 802 93 769 78 q 866 127 834 108 l 866 235 l 672 235 q 659 240 665 235 q 654 251 654 244 l 654 286 l 866 286 l 866 410 l 672 410 q 654 426 654 410 l 654 461 l 931 461 l 931 286 l 1068 286 l 1068 235 z "},"Ƕ":{"ha":1478,"x_min":145,"x_max":1411,"o":"m 1144 684 q 1249 702 1195 702 q 1328 685 1297 702 q 1377 640 1359 669 q 1403 571 1396 610 q 1411 486 1411 531 q 1382 270 1411 363 q 1304 115 1352 177 q 1193 20 1256 52 q 1064 -11 1131 -11 q 972 4 1015 -11 q 899 52 930 19 q 850 137 867 85 q 832 262 832 189 l 832 471 l 217 471 l 217 0 l 145 0 l 145 983 l 217 983 l 217 524 l 832 524 l 832 983 l 903 983 l 903 262 q 947 97 903 150 q 1065 44 990 44 q 1170 71 1119 44 q 1259 153 1220 99 q 1320 291 1297 208 q 1344 484 1344 374 q 1317 607 1344 567 q 1235 647 1291 647 q 1211 645 1222 647 q 1190 641 1199 644 q 1174 637 1181 639 q 1165 635 1167 635 q 1149 649 1151 635 l 1144 684 z "},"Ƿ":{"ha":952,"x_min":145,"x_max":877,"o":"m 217 42 q 474 174 364 106 q 658 318 585 242 q 769 478 732 394 q 806 659 806 563 q 788 770 806 720 q 736 856 769 820 q 656 911 703 892 q 551 931 609 931 q 456 918 501 931 q 369 879 410 904 q 290 819 328 854 q 217 741 252 784 l 217 42 m 216 813 q 296 890 256 857 q 378 946 336 924 q 465 981 419 969 q 564 992 511 992 q 693 967 635 992 q 792 897 751 941 q 855 793 833 853 q 877 665 877 733 q 834 462 877 558 q 707 280 791 366 q 500 118 623 194 q 217 -26 377 42 l 217 -245 l 145 -245 l 145 985 l 194 985 q 207 979 201 985 q 213 961 213 973 l 216 813 z "},"Ƞ":{"ha":997,"x_min":145,"x_max":862,"o":"m 216 812 q 295 892 256 858 q 374 949 333 926 q 460 982 415 971 q 558 992 505 992 q 683 969 627 992 q 779 905 740 947 q 840 805 819 863 q 862 676 862 747 l 862 -244 l 790 -244 l 790 674 q 774 780 790 733 q 726 861 758 828 q 649 913 694 895 q 544 931 603 931 q 446 918 491 931 q 361 879 401 904 q 285 819 321 854 q 217 741 250 784 l 217 0 l 145 0 l 145 985 l 194 985 q 207 979 201 985 q 213 961 213 973 l 216 812 z "}}}
